<svg width="58" height="39" viewBox="0 0 58 39" fill="none" xmlns="http://www.w3.org/2000/svg">
<path d="M57.0724 13.5643L51.3086 2.52619C50.9649 1.87492 50.3805 1.38357 49.6799 1.1568C48.9793 0.930036 48.2178 0.985769 47.5577 1.31213L41.9034 4.13916H37.6397L29.7215 0.556506C29.1098 0.280188 28.4195 0.231398 27.775 0.418927L16.0148 3.84736L10.4416 1.06112C9.7815 0.734901 9.02014 0.679197 8.31958 0.905859C7.61902 1.13252 7.03458 1.62365 6.69067 2.27471L0.926917 13.3131C0.754013 13.6441 0.648787 14.0064 0.617382 14.3785C0.585976 14.7507 0.62902 15.1254 0.744001 15.4808C0.858983 15.8362 1.0436 16.1651 1.28707 16.4484C1.53054 16.7316 1.828 16.9635 2.16207 17.1306L7.87145 19.9853L20.6083 29.9448C20.9183 30.1881 21.2763 30.363 21.6588 30.4581L35.2425 33.8539C35.4634 33.9089 35.6902 33.9367 35.9179 33.9367C36.6656 33.9369 37.383 33.6412 37.9132 33.114L46.5375 24.4897C46.5548 24.4724 46.5714 24.4546 46.5874 24.4358L50.2141 20.1931L55.8372 17.3816C56.1713 17.2145 56.4687 16.9826 56.7121 16.6994C56.9555 16.4161 57.1401 16.0872 57.2551 15.7319C57.3701 15.3766 57.4131 15.0019 57.3818 14.6297C57.3504 14.2576 57.2452 13.8954 57.0724 13.5643ZM45.7251 22.5589L36.1134 15.5685C35.9513 15.4506 35.7556 15.3878 35.5552 15.3893C35.3547 15.3908 35.16 15.4564 34.9997 15.5767L31.9997 17.8267C30.8615 18.6735 29.4807 19.1308 28.0622 19.1308C26.6436 19.1308 25.2628 18.6735 24.1247 17.8267L22.8543 16.8739C22.7469 16.7934 22.658 16.6907 22.5937 16.5727C22.5293 16.4548 22.4911 16.3245 22.4816 16.1905C22.472 16.0566 22.4913 15.9221 22.5383 15.7962C22.5852 15.6704 22.6586 15.5561 22.7536 15.4611L31.9258 6.28885C32.102 6.11363 32.3402 6.01493 32.5886 6.01416H37.4346L37.4367 6.0144H41.5565L48.5004 19.3121L45.7251 22.5589ZM2.52817 14.9035C2.48944 14.7851 2.47488 14.6602 2.48535 14.5361C2.49582 14.4119 2.5311 14.2912 2.5891 14.181L8.35262 3.14283C8.43272 2.99091 8.55285 2.86378 8.7 2.77521C8.84715 2.68664 9.01572 2.64 9.18746 2.64033C9.33164 2.64021 9.47385 2.67376 9.60278 2.7383L14.602 5.23768L7.96965 17.9385L3.00043 15.4536C2.88889 15.3982 2.78959 15.3211 2.70843 15.2266C2.62727 15.1322 2.56589 15.0224 2.52793 14.9038L2.52817 14.9035ZM36.5875 31.7881C36.4728 31.9024 36.3306 31.9851 36.1746 32.0283C36.0186 32.0715 35.854 32.0737 35.6969 32.0347L22.1132 28.6386C21.9859 28.607 21.8666 28.5487 21.7633 28.4678L9.56692 18.931L16.4964 5.66002L28.2996 2.21893C28.5145 2.15622 28.7448 2.17252 28.9488 2.26486L33.0911 4.13916H32.5886C32.2192 4.13818 31.8532 4.21049 31.5119 4.3519C31.1706 4.49331 30.8607 4.70101 30.6002 4.96299L21.4279 14.1353C21.143 14.4202 20.9226 14.763 20.7817 15.1405C20.6408 15.518 20.5827 15.9214 20.6113 16.3233C20.6398 16.7252 20.7544 17.1164 20.9473 17.4701C21.1401 17.8239 21.4068 18.1321 21.7291 18.3739L22.9994 19.3269C24.4628 20.4156 26.2382 21.0036 28.0622 21.0036C29.8861 21.0036 31.6615 20.4156 33.1249 19.3269L35.5706 17.4922L44.4361 23.9396L36.5875 31.7881ZM55.4711 15.1546C55.4332 15.2732 55.3718 15.383 55.2907 15.4775C55.2095 15.572 55.1102 15.6492 54.9986 15.7046L50.0294 18.1892L43.3973 5.48846L48.3963 2.98932C48.6163 2.88049 48.8701 2.86187 49.1036 2.93743C49.3371 3.013 49.5319 3.17677 49.6465 3.39385L55.4104 14.432C55.4685 14.5422 55.5038 14.663 55.5142 14.7872C55.5247 14.9114 55.5101 15.0364 55.4714 15.1548L55.4711 15.1546ZM26.1593 38.1165C26.1295 38.236 26.0765 38.3485 26.0033 38.4474C25.93 38.5464 25.838 38.63 25.7324 38.6934C25.6268 38.7567 25.5098 38.7987 25.388 38.8168C25.2662 38.8348 25.142 38.8287 25.0225 38.7988L17.9585 37.033C17.5286 36.9249 17.1301 36.7173 16.7953 36.4269L11.5097 31.8327C11.4162 31.7521 11.3395 31.6538 11.2841 31.5435C11.2287 31.4332 11.1956 31.3131 11.1867 31.19C11.1778 31.0668 11.1934 30.9432 11.2324 30.8261C11.2714 30.709 11.3332 30.6008 11.4142 30.5076C11.4952 30.4144 11.5937 30.3382 11.7043 30.2832C11.8148 30.2282 11.9351 30.1956 12.0582 30.1873C12.1814 30.1789 12.305 30.1949 12.4219 30.2344C12.5388 30.274 12.6468 30.3362 12.7397 30.4175L18.0255 35.0122C18.1373 35.1089 18.2703 35.1781 18.4136 35.2142L25.477 36.98C25.7182 37.0403 25.9255 37.194 26.0534 37.4072C26.1813 37.6203 26.2193 37.8756 26.159 38.1167L26.1593 38.1165Z" fill="#11192E"/>
</svg>
