<svg width="52" height="47" viewBox="0 0 52 47" fill="none" xmlns="http://www.w3.org/2000/svg">
<path d="M13.1791 45.329H0.813528C0.325411 45.329 0 45.0036 0 44.5155V1.72393C0 1.23581 0.325411 0.9104 0.813528 0.9104H13.1791C13.6673 0.9104 13.9927 1.23581 13.9927 1.72393V44.5155C13.9927 45.0036 13.6673 45.329 13.1791 45.329ZM1.62706 43.702H12.3656V2.53746H1.62706V43.702Z" fill="#11192E"/>
<path d="M9.76251 19.2962H4.23052C3.7424 19.2962 3.41699 18.9708 3.41699 18.4827V5.62896C3.41699 5.14084 3.7424 4.81543 4.23052 4.81543H9.76251C10.2506 4.81543 10.576 5.14084 10.576 5.62896V18.4827C10.576 18.9708 10.2506 19.2962 9.76251 19.2962ZM5.04405 17.6692H8.94898V6.44249H5.04405V17.6692Z" fill="#11192E"/>
<path d="M6.99651 41.4242C5.04405 41.4242 3.41699 39.7971 3.41699 37.8447C3.41699 35.8922 5.04405 34.2651 6.99651 34.2651C8.94898 34.2651 10.576 35.8922 10.576 37.8447C10.576 39.7971 8.94898 41.4242 6.99651 41.4242ZM6.99651 35.8922C5.93893 35.8922 5.04405 36.7871 5.04405 37.8447C5.04405 38.9022 5.93893 39.7971 6.99651 39.7971C8.0541 39.7971 8.94898 38.9022 8.94898 37.8447C8.94898 36.7871 8.0541 35.8922 6.99651 35.8922Z" fill="#11192E"/>
<path d="M24.8143 19.2962H19.2823C18.7942 19.2962 18.4688 18.9708 18.4688 18.4827V5.62896C18.4688 5.14084 18.7942 4.81543 19.2823 4.81543H24.8143C25.3024 4.81543 25.6278 5.14084 25.6278 5.62896V18.4827C25.6278 18.9708 25.221 19.2962 24.8143 19.2962ZM20.0958 17.6692H24.0007V6.44249H20.0958V17.6692Z" fill="#11192E"/>
<path d="M22.0473 41.4241C20.0948 41.4241 18.4678 39.797 18.4678 37.8445C18.4678 35.8921 20.0948 34.265 22.0473 34.265C23.9998 34.265 25.6268 35.8921 25.6268 37.8445C25.6268 39.797 23.9998 41.4241 22.0473 41.4241ZM22.0473 35.8921C20.9897 35.8921 20.0948 36.7869 20.0948 37.8445C20.0948 38.9021 20.9897 39.797 22.0473 39.797C23.1049 39.797 23.9998 38.9835 23.9998 37.8445C23.9998 36.7056 23.1049 35.8921 22.0473 35.8921Z" fill="#11192E"/>
<path d="M28.2299 45.329H15.8643C15.3762 45.329 15.0508 45.0036 15.0508 44.5155V1.72393C15.0508 1.23581 15.3762 0.9104 15.8643 0.9104H28.2299C28.718 0.9104 29.0435 1.23581 29.0435 1.72393V44.5155C29.0435 45.0036 28.718 45.329 28.2299 45.329ZM16.6778 43.702H27.4164V2.53746H16.6778V43.702Z" fill="#11192E"/>
<path d="M35.8765 20.191C35.7138 20.191 35.6324 20.191 35.4697 20.1097C35.307 20.0283 35.1443 19.7843 35.063 19.6216L31.7275 7.1746C31.6461 6.76783 31.8902 6.27972 32.297 6.19836L37.6663 4.73401C37.9103 4.65266 38.073 4.73402 38.3171 4.81537C38.4798 4.89672 38.6425 5.14078 38.7238 5.30348L42.0593 17.7505C42.1407 18.1572 41.8966 18.6453 41.4898 18.7267L36.1206 20.191C35.9578 20.191 35.9578 20.191 35.8765 20.191ZM33.5173 7.50001L36.446 18.4013L40.1882 17.425L37.2595 6.52378L33.5173 7.50001Z" fill="#11192E"/>
<path d="M43.5233 40.936C42.8725 40.936 42.303 40.7733 41.7336 40.4479C40.92 39.9598 40.3506 39.2276 40.0252 38.2514C39.537 36.3803 40.676 34.3464 42.5471 33.8583C43.442 33.6143 44.4182 33.777 45.2317 34.1837C46.0453 34.6718 46.6147 35.404 46.9401 36.3803C47.1842 37.2751 47.0215 38.2514 46.6147 39.0649C46.1266 39.8784 45.3944 40.4479 44.4182 40.7733C44.1741 40.936 43.8487 40.936 43.5233 40.936ZM43.5233 35.404C43.3606 35.404 43.1979 35.404 43.0352 35.4854C41.9776 35.7294 41.4082 36.8684 41.6522 37.8446C41.8149 38.3327 42.1403 38.7395 42.5471 39.0649C43.0352 39.309 43.5233 39.3903 44.0114 39.2276C44.4996 39.0649 44.9063 38.7395 45.2317 38.3327C45.5571 37.926 45.5571 37.3565 45.3944 36.8684C45.2317 36.3803 44.9063 35.9735 44.4996 35.6481C44.2555 35.4854 43.8487 35.404 43.5233 35.404Z" fill="#11192E"/>
<path d="M39.293 46.224C39.1303 46.224 39.049 46.224 38.8863 46.1426C38.7236 46.0613 38.5609 45.8172 38.4795 45.6545L27.4155 4.24593C27.3342 4.00187 27.4155 3.83917 27.4969 3.59511C27.5782 3.4324 27.8223 3.2697 27.985 3.18835L39.9439 0.0155873C40.3506 -0.0657654 40.8387 0.178293 40.9201 0.585057L51.9841 41.9123C52.0654 42.319 51.8214 42.8071 51.4146 42.8885L39.4557 46.1426C39.4557 46.224 39.3744 46.224 39.293 46.224ZM29.2053 4.6527L39.8625 44.4342L50.2757 41.6682L39.6184 1.80535L29.2053 4.6527Z" fill="#11192E"/>
</svg>
