<svg width="55" height="55" viewBox="0 0 55 55" fill="none" xmlns="http://www.w3.org/2000/svg">
<path d="M45.2419 0H14.9032H14.6371C11.4435 0 8.87097 2.57258 8.87097 5.76613V6.03226V44.3548H0.887097C0.354839 44.3548 0 44.7097 0 45.2419C0 50.6532 4.34677 55 9.75806 55H40.8064C43.7339 55 46.129 52.6048 46.129 49.6774V10.6452H54.1129C54.6452 10.6452 55 10.2903 55 9.75806C55 4.34677 50.6532 0 45.2419 0ZM9.75806 53.2258C5.67742 53.2258 2.30645 50.121 1.8629 46.129H9.75806H35.4839V49.6774C35.4839 50.0323 35.4839 50.2984 35.5726 50.6532V50.7419C35.6613 51.0081 35.75 51.2742 35.8387 51.5403V51.629C35.9274 51.8952 36.1048 52.1613 36.1935 52.3387L36.2823 52.4274C36.4597 52.6935 36.6371 52.871 36.8145 53.0484C36.8145 53.0484 36.8145 53.0484 36.8145 53.1371H9.75806V53.2258ZM44.3548 49.6774C44.3548 51.629 42.7581 53.2258 40.8064 53.2258C38.8548 53.2258 37.2581 51.629 37.2581 49.6774V45.2419C37.2581 44.7097 36.9032 44.3548 36.371 44.3548H10.6452V6.03226C10.6452 3.6371 12.5081 1.77419 14.9032 1.77419H44.3548V9.75806V49.6774ZM46.129 8.87097V1.8629C49.8548 2.30645 52.7823 5.23387 53.1371 8.87097H46.129Z" fill="#11192E"/>
<path d="M18.6293 10.6452H36.3712C36.9035 10.6452 37.2583 10.2904 37.2583 9.75812V6.20973C37.2583 5.67747 36.9035 5.32263 36.3712 5.32263H18.6293C18.097 5.32263 17.7422 5.67747 17.7422 6.20973V9.75812C17.7422 10.2904 18.097 10.6452 18.6293 10.6452ZM19.5164 7.09683H35.4841V8.87102H19.5164V7.09683Z" fill="#11192E"/>
<path d="M40.4524 15.4354H14.5492C14.0169 15.4354 13.6621 15.7903 13.6621 16.3225C13.6621 16.8548 14.0169 17.2096 14.5492 17.2096H40.5411C41.0734 17.2096 41.4282 16.8548 41.4282 16.3225C41.4282 15.7903 40.9847 15.4354 40.4524 15.4354Z" fill="#11192E"/>
<path d="M40.4524 18.9838H14.5492C14.0169 18.9838 13.6621 19.3386 13.6621 19.8709C13.6621 20.4031 14.0169 20.758 14.5492 20.758H40.5411C41.0734 20.758 41.4282 20.4031 41.4282 19.8709C41.4282 19.3386 40.9847 18.9838 40.4524 18.9838Z" fill="#11192E"/>
<path d="M40.4524 22.5322H14.5492C14.0169 22.5322 13.6621 22.8871 13.6621 23.4193C13.6621 23.9516 14.0169 24.3064 14.5492 24.3064H40.5411C41.0734 24.3064 41.4282 23.9516 41.4282 23.4193C41.4282 22.8871 40.9847 22.5322 40.4524 22.5322Z" fill="#11192E"/>
<path d="M40.4524 26.0806H14.5492C14.0169 26.0806 13.6621 26.4354 13.6621 26.9677C13.6621 27.4999 14.0169 27.8548 14.5492 27.8548H40.5411C41.0734 27.8548 41.4282 27.4999 41.4282 26.9677C41.4282 26.4354 40.9847 26.0806 40.4524 26.0806Z" fill="#11192E"/>
<path d="M40.4524 29.6289H14.5492C14.0169 29.6289 13.6621 29.9837 13.6621 30.516C13.6621 31.0483 14.0169 31.4031 14.5492 31.4031H40.5411C41.0734 31.4031 41.4282 31.0483 41.4282 30.516C41.4282 29.9837 40.9847 29.6289 40.4524 29.6289Z" fill="#11192E"/>
<path d="M40.4524 33.1774H14.5492C14.0169 33.1774 13.6621 33.5322 13.6621 34.0645C13.6621 34.5967 14.0169 34.9516 14.5492 34.9516H40.5411C41.0734 34.9516 41.4282 34.5967 41.4282 34.0645C41.4282 33.5322 40.9847 33.1774 40.4524 33.1774Z" fill="#11192E"/>
<path d="M40.4524 36.7257H14.5492C14.0169 36.7257 13.6621 37.0805 13.6621 37.6128C13.6621 38.1451 14.0169 38.4999 14.5492 38.4999H40.5411C41.0734 38.4999 41.4282 38.1451 41.4282 37.6128C41.4282 37.0805 40.9847 36.7257 40.4524 36.7257Z" fill="#11192E"/>
</svg>
