<svg width="114" height="46" fill="none" xmlns="http://www.w3.org/2000/svg"><path d="M17.443 19.911l-3.767-5.453H9.52v5.453H5V.336h8.453c1.73 0 3.227.289 4.492.867 1.283.577 2.27 1.398 2.957 2.46.688 1.063 1.032 2.322 1.032 3.776 0 1.454-.353 2.712-1.06 3.775-.688 1.044-1.674 1.846-2.957 2.405l4.38 6.292h-4.854zM17.359 7.44c0-1.1-.353-1.94-1.06-2.517-.707-.597-1.74-.895-3.097-.895H9.52v6.824h3.682c1.358 0 2.39-.299 3.097-.895.707-.597 1.06-1.436 1.06-2.517zm13.767-2.798c2.325 0 4.11.56 5.357 1.678 1.246 1.1 1.869 2.769 1.869 5.006v8.585h-4.073v-1.873c-.819 1.398-2.344 2.097-4.576 2.097-1.153 0-2.157-.196-3.013-.587-.837-.392-1.478-.932-1.925-1.622-.446-.69-.67-1.473-.67-2.35 0-1.398.522-2.498 1.563-3.3 1.06-.8 2.688-1.202 4.882-1.202H34c0-.95-.288-1.678-.865-2.181-.577-.522-1.441-.783-2.595-.783-.8 0-1.59.13-2.371.391-.763.243-1.413.578-1.953 1.007L24.654 6.46c.818-.578 1.795-1.025 2.93-1.342a13.309 13.309 0 013.542-.476zM30.791 17.2c.744 0 1.405-.168 1.981-.504.577-.354.986-.867 1.228-1.538V13.62h-2.985c-1.786 0-2.679.587-2.679 1.762 0 .56.214 1.007.642 1.342.446.317 1.05.476 1.813.476zm21.181 1.984c-.428.317-.958.56-1.59.727a8.245 8.245 0 01-1.953.224c-1.786 0-3.172-.457-4.157-1.37-.967-.914-1.451-2.256-1.451-4.027v-6.18h-2.316V5.201h2.316V1.538h4.352v3.664h3.739v3.355h-3.739v6.125c0 .634.158 1.128.474 1.482.335.336.8.503 1.395.503.689 0 1.274-.186 1.758-.559l1.172 3.076zm16.682-6.739c0 .056-.028.447-.083 1.174H57.216c.204.932.688 1.669 1.45 2.21.763.54 1.712.81 2.846.81.781 0 1.47-.111 2.065-.335a5.184 5.184 0 001.702-1.119l2.315 2.517c-1.413 1.622-3.478 2.433-6.193 2.433-1.693 0-3.19-.326-4.492-.979-1.302-.67-2.306-1.594-3.013-2.768-.707-1.175-1.06-2.508-1.06-4 0-1.472.344-2.796 1.032-3.97a7.332 7.332 0 012.874-2.769c1.227-.671 2.594-1.007 4.1-1.007 1.47 0 2.8.317 3.99.951a6.816 6.816 0 012.79 2.74c.688 1.175 1.032 2.546 1.032 4.112zm-7.783-4.503c-.986 0-1.814.28-2.483.84-.67.558-1.08 1.323-1.228 2.292h7.393c-.149-.95-.558-1.706-1.227-2.265-.67-.578-1.488-.867-2.455-.867zm24.184 1.874h4.129v7.942c-1.06.802-2.288 1.417-3.683 1.846a14.292 14.292 0 01-4.213.643c-2.027 0-3.85-.429-5.468-1.287-1.618-.876-2.892-2.078-3.822-3.607-.911-1.547-1.367-3.29-1.367-5.23 0-1.938.456-3.672 1.367-5.201.93-1.548 2.213-2.75 3.85-3.608C77.485.438 79.326 0 81.372 0c1.711 0 3.264.289 4.66.867 1.394.578 2.566 1.417 3.514 2.517l-2.9 2.684c-1.396-1.472-3.08-2.209-5.05-2.209-1.247 0-2.353.261-3.32.783a5.61 5.61 0 00-2.26 2.21c-.54.95-.81 2.041-.81 3.271 0 1.212.27 2.294.81 3.244a5.853 5.853 0 002.232 2.238c.967.522 2.064.783 3.292.783 1.301 0 2.473-.28 3.515-.84V9.817zm17.785 10.431c-2.028 0-3.86-.438-5.496-1.314-1.618-.877-2.892-2.08-3.822-3.608-.912-1.547-1.367-3.281-1.367-5.201 0-1.92.455-3.645 1.367-5.174.93-1.548 2.204-2.76 3.822-3.636C98.98.438 100.812 0 102.84 0c2.027 0 3.85.438 5.468 1.314 1.618.877 2.892 2.088 3.822 3.636.93 1.529 1.395 3.253 1.395 5.173s-.465 3.655-1.395 5.202c-.93 1.529-2.204 2.731-3.822 3.608-1.618.876-3.441 1.314-5.468 1.314zm0-3.86c1.153 0 2.195-.26 3.124-.782a5.717 5.717 0 002.177-2.238c.539-.95.809-2.032.809-3.244 0-1.211-.27-2.293-.809-3.244a5.525 5.525 0 00-2.177-2.209c-.929-.54-1.971-.81-3.124-.81s-2.195.27-3.125.81a5.71 5.71 0 00-2.204 2.21c-.52.95-.781 2.032-.781 3.244 0 1.211.26 2.293.781 3.243a5.913 5.913 0 002.204 2.238c.93.522 1.972.783 3.125.783zM6.193 28.4H9.11v10.224h6.318V41H6.193V28.4zm15.203 12.744c-1.02 0-1.938-.21-2.754-.63a4.829 4.829 0 01-1.89-1.782c-.456-.756-.684-1.614-.684-2.574 0-.96.228-1.818.684-2.574a4.702 4.702 0 011.89-1.764c.816-.432 1.734-.648 2.754-.648s1.932.216 2.736.648a4.702 4.702 0 011.89 1.764c.456.756.684 1.614.684 2.574 0 .96-.228 1.818-.684 2.574a4.829 4.829 0 01-1.89 1.782c-.804.42-1.716.63-2.736.63zm0-2.304c.72 0 1.308-.24 1.764-.72.468-.492.702-1.146.702-1.962 0-.816-.234-1.464-.702-1.944-.456-.492-1.044-.738-1.764-.738s-1.314.246-1.782.738c-.468.48-.702 1.128-.702 1.944 0 .816.234 1.47.702 1.962.468.48 1.062.72 1.782.72zm17.177-7.524v8.064c0 1.776-.462 3.096-1.386 3.96-.924.864-2.274 1.296-4.05 1.296a10.13 10.13 0 01-2.664-.342c-.84-.228-1.536-.558-2.088-.99l1.116-2.016c.408.336.924.6 1.548.792a5.994 5.994 0 001.872.306c.972 0 1.686-.222 2.142-.666.468-.432.702-1.092.702-1.98v-.414c-.732.804-1.752 1.206-3.06 1.206a5.258 5.258 0 01-2.448-.576 4.54 4.54 0 01-1.746-1.656c-.432-.708-.648-1.524-.648-2.448 0-.924.216-1.74.648-2.448a4.41 4.41 0 011.746-1.638 5.128 5.128 0 012.448-.594c1.404 0 2.472.462 3.204 1.386v-1.242h2.664zm-5.31 6.912c.744 0 1.35-.216 1.818-.648.48-.444.72-1.02.72-1.728s-.24-1.278-.72-1.71c-.468-.444-1.074-.666-1.818-.666s-1.356.222-1.836.666c-.48.432-.72 1.002-.72 1.71s.24 1.284.72 1.728c.48.432 1.092.648 1.836.648zm7.924-6.912h2.808V41h-2.808v-9.684zm1.404-1.35c-.516 0-.936-.15-1.26-.45a1.46 1.46 0 01-.486-1.116c0-.444.162-.816.486-1.116.324-.3.744-.45 1.26-.45s.936.144 1.26.432c.324.288.486.648.486 1.08 0 .468-.162.858-.486 1.17-.324.3-.744.45-1.26.45zm7.268 11.178c-.804 0-1.59-.096-2.358-.288-.768-.204-1.38-.456-1.836-.756l.936-2.016c.432.276.954.504 1.566.684a6.782 6.782 0 001.8.252c1.188 0 1.782-.294 1.782-.882 0-.276-.162-.474-.486-.594-.324-.12-.822-.222-1.494-.306-.792-.12-1.446-.258-1.962-.414a3.107 3.107 0 01-1.35-.828c-.372-.396-.558-.96-.558-1.692 0-.612.174-1.152.522-1.62.36-.48.876-.852 1.548-1.116.684-.264 1.488-.396 2.412-.396.684 0 1.362.078 2.034.234.684.144 1.248.348 1.692.612l-.936 1.998a5.588 5.588 0 00-2.79-.72c-.6 0-1.05.084-1.35.252-.3.168-.45.384-.45.648 0 .3.162.51.486.63.324.12.84.234 1.548.342.792.132 1.44.276 1.944.432.504.144.942.414 1.314.81.372.396.558.948.558 1.656 0 .6-.18 1.134-.54 1.602-.36.468-.888.834-1.584 1.098-.684.252-1.5.378-2.448.378zm12.55-.612a3 3 0 01-1.026.468 5.333 5.333 0 01-1.26.144c-1.152 0-2.046-.294-2.682-.882-.624-.588-.936-1.452-.936-2.592v-3.978h-1.494v-2.16h1.494v-2.358h2.808v2.358h2.412v2.16h-2.412v3.942c0 .408.102.726.306.954.216.216.516.324.9.324.444 0 .822-.12 1.134-.36l.756 1.98zm1.577-9.216h2.807V41h-2.808v-9.684zm1.404-1.35c-.516 0-.936-.15-1.26-.45a1.46 1.46 0 01-.486-1.116c0-.444.162-.816.485-1.116.325-.3.745-.45 1.26-.45.517 0 .937.144 1.26.432.325.288.486.648.486 1.08 0 .468-.162.858-.486 1.17-.323.3-.743.45-1.26.45zm8.69 11.178c-1.032 0-1.962-.21-2.79-.63a4.929 4.929 0 01-1.927-1.782c-.456-.756-.683-1.614-.683-2.574 0-.96.227-1.818.683-2.574a4.8 4.8 0 011.927-1.764c.828-.432 1.757-.648 2.79-.648 1.02 0 1.907.216 2.663.648a3.734 3.734 0 011.675 1.818l-2.178 1.17c-.504-.888-1.23-1.332-2.178-1.332-.733 0-1.338.24-1.819.72-.48.48-.72 1.134-.72 1.962 0 .828.24 1.482.72 1.962s1.087.72 1.819.72c.96 0 1.686-.444 2.178-1.332l2.178 1.188c-.349.768-.907 1.368-1.675 1.8-.755.432-1.643.648-2.663.648zm9.212 0c-.804 0-1.59-.096-2.358-.288-.768-.204-1.38-.456-1.836-.756l.936-2.016c.432.276.954.504 1.566.684a6.782 6.782 0 001.8.252c1.188 0 1.782-.294 1.782-.882 0-.276-.162-.474-.486-.594-.324-.12-.822-.222-1.494-.306-.792-.12-1.446-.258-1.962-.414a3.107 3.107 0 01-1.35-.828c-.372-.396-.558-.96-.558-1.692 0-.612.174-1.152.522-1.62.36-.48.876-.852 1.548-1.116.684-.264 1.488-.396 2.412-.396.684 0 1.362.078 2.034.234.684.144 1.248.348 1.692.612l-.936 1.998a5.588 5.588 0 00-2.79-.72c-.6 0-1.05.084-1.35.252-.3.168-.45.384-.45.648 0 .3.162.51.486.63.324.12.84.234 1.548.342.792.132 1.44.276 1.944.432.504.144.942.414 1.314.81.372.396.558.948.558 1.656 0 .6-.18 1.134-.54 1.602-.36.468-.888.834-1.584 1.098-.684.252-1.5.378-2.448.378z" fill="#CB454D"/></svg>