<svg width="279" height="31" fill="none" xmlns="http://www.w3.org/2000/svg"><path d="M82.316.611h-11.99L60.93 29.668h8.359l1.729-5.833h10.837l1.73 5.833h8.646L82.893.611h-.577zm-9.28 16.168l2.536-8.668h1.614l2.594 8.668h-6.744zM243.721.611h-11.99l-9.396 29.057h8.358l1.73-5.833h10.895l1.729 5.833h8.647L244.355.611h-.634zm-9.223 16.168l2.536-8.668h1.614l2.594 8.668h-6.744zM99.61.611h-4.497v29.057h8.186V8.111h12.855v-7.5H99.609zm33.664 0h-13.777v29.057h8.186v-8.556h5.591c7.609 0 11.471-4.611 11.471-10.223.058-5.667-3.862-10.278-11.471-10.278zm0 13.445h-5.591V7.667h5.591c2.248 0 3.286 1.445 3.286 3.167.058 1.778-1.038 3.222-3.286 3.222zM163.595 0c-9.165 0-16.14 6.556-16.14 15.168 0 8.611 6.975 15.167 16.14 15.167 9.166 0 16.141-6.556 16.141-15.167C179.736 6.556 172.761 0 163.595 0zm0 22.39c-4.381 0-7.551-3.056-7.551-7.278 0-4.222 3.17-7.278 7.551-7.278s7.551 3.056 7.551 7.278c0 4.278-3.17 7.278-7.551 7.278zM211.21.611h-2.709l-6.918 12.612L194.781.61h-11.125v29.057h8.185V11.89l6.457 11.946h6.283l6.629-12.057v17.89h8.185V.611h-8.185zm67.79 0h-28.016v7.5h9.915v21.557h8.186V8.111H279v-7.5zm-247.065 0l-11.586 6.5L8.762.612 0 15.168l11.702 6.556v7.889h17.466v-8l11.471-6.445L31.935.61zm-11.586 9.5l3.055 5.112h-6.11l3.055-5.111zm-8.647 9.39l-8.993-5L9.511 3.278l9.454 5.334-4.035 6.667-1.153 1.944-.058.111-1.498 2.5-.52-.333zm15.506 8.223H13.72v-6.611l2.364-3.945h8.474L27.15 21.5v6.223h.057zm1.268-7.945l-1.268-2.111-.288-.5-1.153-1.945-4.035-6.667 9.454-5.334 6.744 11.223-8.762 4.89-.692.444z" fill="#fff"/></svg>