<svg width="229" height="51" fill="none" xmlns="http://www.w3.org/2000/svg"><path d="M24.654 48.651a25.151 25.151 0 01-9.224-1.845A23.127 23.127 0 012.851 34.224a24.483 24.483 0 01-1.845-9.227c.03-3.165.656-6.295 1.845-9.227A23.135 23.135 0 0115.43 3.187a24.464 24.464 0 019.224-1.845 25.18 25.18 0 019.225 1.845A23.13 23.13 0 0146.458 15.77a24.483 24.483 0 011.844 9.227 25.17 25.17 0 01-1.844 9.227 23.136 23.136 0 01-12.58 12.582 24.465 24.465 0 01-9.224 1.845z" fill="#fff"/><path d="M24.654 1.174A23.811 23.811 0 002.651 15.88a23.829 23.829 0 005.163 25.962A23.814 23.814 0 0048.47 24.997a23.91 23.91 0 00-7-16.82 23.897 23.897 0 00-16.816-7.003zm0 47.31a23.475 23.475 0 01-21.693-14.5A23.493 23.493 0 018.051 8.39a23.478 23.478 0 0140.083 16.608 23.49 23.49 0 01-6.877 16.608 23.477 23.477 0 01-16.603 6.879z" fill="#fff"/><path d="M24.654 48.484c12.968 0 23.48-10.516 23.48-23.487 0-12.972-10.512-23.487-23.48-23.487S1.174 12.025 1.174 24.997c0 12.971 10.512 23.487 23.48 23.487z" fill="#fff"/><path d="M24.655 46.47a21.313 21.313 0 01-15.263-6.375A21.44 21.44 0 013.02 24.83 21.06 21.06 0 019.392 9.562a21.434 21.434 0 0115.263-6.375 21.044 21.044 0 0115.262 6.375A21.442 21.442 0 0146.29 24.83a21.06 21.06 0 01-6.373 15.266 21.047 21.047 0 01-15.262 6.375z" fill="#11192E"/><path d="M24.655 46.135a20.79 20.79 0 01-14.927-6.207 20.518 20.518 0 01-6.205-14.931 21.192 21.192 0 016.204-14.933 21.18 21.18 0 0114.928-6.206 21.18 21.18 0 0114.928 6.206 21.192 21.192 0 016.204 14.933 20.81 20.81 0 01-6.205 14.93 20.511 20.511 0 01-14.927 6.208z" fill="#11192E"/><path d="M24.654 44.457A19.451 19.451 0 016.688 32.443 19.466 19.466 0 0117.211 7.02a19.433 19.433 0 0121.196 4.22 19.462 19.462 0 01-13.752 33.217z" fill="#11192E"/><path d="M15.094 32.713l3.02 1.007a1.393 1.393 0 001.844-1.678c-.838-5.033-4.025-8.052-10.398-9.227-.168 0-.168 0-.168-.168.165-1.42.622-2.79 1.342-4.026a.168.168 0 01.168-.168v-1.342c-.168 0-.168.168-.336.336a17.417 17.417 0 00-1.845 5.2c0 .336.168.672.503.672 6.206 1.006 9.392 3.858 10.063 8.723 0 .336 0 .503-.167.671a.62.62 0 01-.504.168 1.006 1.006 0 01-.67-.168l-2.684-1.342h-.335l.167 1.174c-.167.168-.167.168 0 .168z" fill="#fff"/><path d="M38.742 34.223l-1.341.168v.168a7.06 7.06 0 01-3.355 1.678c-.167 0-.167 0-.167-.168V35.9a.721.721 0 00-.671-.671H17.61a.62.62 0 00-.503.168c-.503.335-1.174.67-1.677 1.006a.621.621 0 01-.503.168h-1.51c-.167 0-.335 0-.335-.168-.671-1.174-1.342-2.013-2.18-3.355-.168-.168-.168-.168 0-.336l-1.007-1.006a.587.587 0 00-.167.335c.14.385.37.73.67 1.007.168.168.336.503.504.671l.503.671c.429.59.82 1.207 1.174 1.846l.167.335c.168.168.168.335.504.335h2.012a.62.62 0 00.503-.167l1.845-1.007a.52.52 0 01.336-.168H33.04c.336 0 .336.336.336.504v.503a.37.37 0 00.335.335 10.75 10.75 0 005.032-2.348v-.336z" fill="#fff"/><path d="M33.208 31.875v.67c0 .169-.168.504-.336.504h-.335a.621.621 0 01-.503-.168c-.168-.167-.168-.67-.168-.839l.168-.335a31.044 31.044 0 001.174-10.57 12.45 12.45 0 01-.839 4.363 37.759 37.759 0 01-1.174 6.71c-.335 1.007.336 1.51 1.174 1.51h.839a.72.72 0 00.67-.67v-.336l-.335-1.007c-.335-.168-.335 0-.335.168zm-6.038-5.872a3.003 3.003 0 00-3.02 3.02 2.517 2.517 0 00.672 1.845l1.341-1.006c-.186-.306-.3-.65-.335-1.007a1.846 1.846 0 013.69 0 1.527 1.527 0 01-.671 1.342l.67.671a3.522 3.522 0 00.672-1.845 3.005 3.005 0 00-3.02-3.02zM12.914 15.266a24.672 24.672 0 015.367 4.027.168.168 0 00-.168.167c.522.432.975.94 1.342 1.51.67.839 1.006 1.342 1.342 1.678.503 0 .838 0 1.006-.168.168-.168.168-.168-.168-.503 0-.168-.167-.168-.167-.336s-.336-.503-.504-.67c-.167-.169-.335-.504-.503-.672a2.315 2.315 0 01-.503-.671l-.503-.503-.503-.503-.503-.504-.504-.503-.503-.503c-.167-.168-.335-.336-.503-.336-.168-.168-.335-.168-.503-.335-.168-.168-.335-.168-.503-.336-.168-.168-.335-.168-.503-.335-.168-.168-.336-.168-.503-.336-.168-.168-.336-.168-.503-.336a.52.52 0 00-.336-.167.588.588 0 01-.335-.168c-.168-.168-.336-.168 0-.503a15.32 15.32 0 012.683-2.181h.168l.67-1.007c-.167 0-.335 0-.335.168a18.601 18.601 0 00-4.025 3.355c-.168.168-.168.168-.168.336-.335-.168-.167 0 .168.335zm7.044-5.033a18.806 18.806 0 014.864 5.704h-.335a36.323 36.323 0 012.012 4.362v.168h.671c.168 0 .168 0 .168-.168v-.168a20.032 20.032 0 00-4.696-8.22l-.168-.168-.168-.168-.167-.167-.168-.168-.168-.168a.167.167 0 01-.168-.168l-.167-.167-.168-.168-.168-.168c-.167-.168-.167-.335.168-.335a24.832 24.832 0 013.187-.504h.67l1.174-.503H24.99a14.47 14.47 0 00-4.696.671c-.336 0-.336.168-.336.336-.167-.168-.167 0 0 .167z" fill="#fff"/><path d="M37.233 34.224a9.024 9.024 0 00-3.354-1.678c-.168 0-.168 0-.168.168v.168a.721.721 0 01-.67.67h-.84a1.256 1.256 0 01-1.173-1.51c3.019-11.072-.336-17.95-5.2-22.312-.503-.503-.838-.335-1.509-.335a10.53 10.53 0 00-3.186.503c-.336 0-.336.168-.168.335a20.904 20.904 0 016.54 10.066c0 .168 0 .168-.167.168a2.533 2.533 0 01-2.18-1.174 29.688 29.688 0 00-8.554-7.214.318.318 0 00-.503 0 8.537 8.537 0 00-2.683 2.18.318.318 0 000 .504 25.998 25.998 0 018.553 7.382.62.62 0 01.168.503 3.187 3.187 0 01-2.851-.503 48.288 48.288 0 00-8.219-3.691c-.335-.168-.503 0-.503.168a14.214 14.214 0 00-1.341 4.026c0 .168 0 .168.167.168 6.374 1.342 9.56 4.194 10.399 9.227a1.393 1.393 0 01-1.845 1.677l-3.019-1.006h-4.36c-.168 0-.336.168-.168.335.838 1.342 1.51 2.181 2.18 3.356 0 .167.168.167.335.167h1.51a.621.621 0 00.503-.167c.503-.336 1.174-.672 1.677-1.007a.62.62 0 01.503-.168h15.598a.72.72 0 01.67.671v.168c0 .168 0 .168.169.168a7.915 7.915 0 003.354-1.678c.503-.168.503-.335.335-.335zM27.17 32.21a3.018 3.018 0 01-2.134-5.155 3.019 3.019 0 015.153 2.135 3.121 3.121 0 01-3.019 3.02z" fill="#fff"/><path d="M37.233 34.224a9.024 9.024 0 00-3.354-1.678c-.168 0-.168 0-.168.168v.168a.721.721 0 01-.67.67h-.84a1.256 1.256 0 01-1.173-1.51c3.019-11.072-.336-17.95-5.2-22.312-.503-.503-.838-.335-1.509-.335a10.53 10.53 0 00-3.186.503c-.336 0-.336.168-.168.335a20.904 20.904 0 016.54 10.066c0 .168 0 .168-.167.168a2.533 2.533 0 01-2.18-1.174 29.688 29.688 0 00-8.554-7.214.318.318 0 00-.503 0 8.537 8.537 0 00-2.683 2.18.318.318 0 000 .504 25.998 25.998 0 018.553 7.382.62.62 0 01.168.503 3.187 3.187 0 01-2.851-.503 48.288 48.288 0 00-8.219-3.691c-.335-.168-.503 0-.503.168a14.214 14.214 0 00-1.341 4.026c0 .168 0 .168.167.168 6.374 1.342 9.56 4.194 10.399 9.227a1.393 1.393 0 01-1.845 1.677l-3.019-1.006h-4.36c-.168 0-.336.168-.168.335.838 1.342 1.51 2.181 2.18 3.356 0 .167.168.167.335.167h1.51a.621.621 0 00.503-.167c.503-.336 1.174-.672 1.677-1.007a.62.62 0 01.503-.168h15.598a.72.72 0 01.67.671v.168c0 .168 0 .168.169.168a7.915 7.915 0 003.354-1.678c.503-.168.503-.335.335-.335zM27.17 32.21a3.018 3.018 0 01-2.134-5.155 3.019 3.019 0 015.153 2.135 3.121 3.121 0 01-3.019 3.02z" fill="#fff"/><path d="M37.233 34.224a9.024 9.024 0 00-3.354-1.678c-.168 0-.168 0-.168.168v.168a.721.721 0 01-.67.67h-.84a1.256 1.256 0 01-1.173-1.51c3.019-11.072-.336-17.95-5.2-22.312-.503-.503-.838-.335-1.509-.335a10.53 10.53 0 00-3.186.503c-.336 0-.336.168-.168.335a20.904 20.904 0 016.54 10.066c0 .168 0 .168-.167.168a2.533 2.533 0 01-2.18-1.174 29.688 29.688 0 00-8.554-7.214.318.318 0 00-.503 0 8.537 8.537 0 00-2.683 2.18.318.318 0 000 .504 25.998 25.998 0 018.553 7.382.62.62 0 01.168.503 3.187 3.187 0 01-2.851-.503 48.288 48.288 0 00-8.219-3.691c-.335-.168-.503 0-.503.168a14.214 14.214 0 00-1.341 4.026c0 .168 0 .168.167.168 6.374 1.342 9.56 4.194 10.399 9.227a1.393 1.393 0 01-1.845 1.677l-3.019-1.006h-4.36c-.168 0-.336.168-.168.335.838 1.342 1.51 2.181 2.18 3.356 0 .167.168.167.335.167h1.51a.621.621 0 00.503-.167c.503-.336 1.174-.672 1.677-1.007a.62.62 0 01.503-.168h15.598a.72.72 0 01.67.671v.168c0 .168 0 .168.169.168a7.915 7.915 0 003.354-1.678c.503-.168.503-.335.335-.335zM27.17 32.21a3.018 3.018 0 01-2.134-5.155 3.019 3.019 0 015.153 2.135 3.121 3.121 0 01-3.019 3.02z" fill="#fff"/><path d="M38.742 34.168a9.508 9.508 0 00-5.199-2.516.72.72 0 00-.67.67v.672c0 .168 0 .168-.168.168h-.336c-.167 0-.167 0-.335-.168v-.503l.168-.336c2.012-6.71 2.683-15.937-5.2-22.648-.335-.335-.67-.335-1.006-.503h-1.174a14.47 14.47 0 00-4.696.67c-.335.169-.503.336-.503.504a.672.672 0 00.335.671 24.375 24.375 0 014.529 5.2c-.671 0-1.007-.335-1.51-.838a46.956 46.956 0 00-5.535-4.026c-.167 0-.335-.168-.503-.168a.62.62 0 00-.503.168 16.773 16.773 0 00-4.193 3.523.62.62 0 00-.168.503c0 .335.336.503.84.671a35.653 35.653 0 015.198 3.69h-.335a3.856 3.856 0 01-1.51-.502 52.21 52.21 0 00-5.031-2.014h-.335c-.504 0-.671.336-.671.504a19.245 19.245 0 00-1.845 5.2c0 .504.167 1.007.67 1.007 6.038 1.006 9.225 3.69 9.896 8.556 0 .168 0 .503-.168.503a.52.52 0 01-.335.168.622.622 0 01-.503-.168l-2.684-1.342a.587.587 0 01-.335-.168H10.23c-.671 0-.839.336-.839.84 0 .502.335.67.67 1.173.169.168.336.504.504.671l.503.672c.43.59.821 1.206 1.174 1.845l.168.335c.168.336.335.336.67.336h2.013a.619.619 0 00.504-.168l1.844-1.006h15.43a.166.166 0 01.155.103c.009.02.013.042.013.064v.504c0 .335.168.67.503.67h.168a9.508 9.508 0 005.2-2.516.62.62 0 00.167-.503c0 .168-.168 0-.336-.168zm-.167.839a8.284 8.284 0 01-5.032 2.349c-.167 0-.167-.168-.167-.336v-.503a.454.454 0 00-.504-.503H17.61a.62.62 0 00-.503.167c-.67.336-1.174.671-1.845 1.007a.587.587 0 00-.335.168h-2.013c-.168 0-.335 0-.335-.168l-.168-.336c-.839-1.342-.839-1.51-1.677-2.684-.503-.839-1.174-1.342-1.174-1.677a.453.453 0 01.503-.504h5.031s1.845.84 2.684 1.342c.838.504 1.677 0 1.51-.838-.84-5.704-4.864-7.885-10.231-8.892-.336 0-.336-.335-.336-.67a18.862 18.862 0 011.677-5.202.874.874 0 01.671-.335 39.26 39.26 0 015.032 2.013c1.341.671 1.845.503 2.348.168v-.336a46.235 46.235 0 00-5.535-4.026c-.503-.168-.67-.336-.335-.671a18.6 18.6 0 014.025-3.355.503.503 0 01.67 0 46.956 46.956 0 015.535 4.026 3.102 3.102 0 002.013.839c.168 0 .335 0 .335-.168a23.837 23.837 0 00-4.863-5.704c-.168-.168-.168-.168-.168-.335 0-.168.168-.168.335-.168a14.47 14.47 0 014.696-.671h1.007c.335 0 .503.168.838.335 8.218 6.879 6.709 16.777 5.032 22.313 0 .168 0 .168-.168.335-.026.345.031.69.168 1.007.168.168.335.335.503.335h.335a.537.537 0 00.504-.503v-.67a.369.369 0 01.335-.336 10.163 10.163 0 014.864 2.348c.09.09.15.209.167.336 0 .335-.167.335-.167.503z" fill="#050A19"/><path d="M27.674 27.29a2.18 2.18 0 00-1.542 3.723 2.18 2.18 0 003.722-1.542 2.349 2.349 0 00-2.18-2.181zm0 3.859a1.845 1.845 0 111.844-1.846 1.678 1.678 0 01-1.845 1.846z" fill="#050A19"/><path d="M27.673 31.148a1.845 1.845 0 111.845-1.845 1.68 1.68 0 01-1.845 1.845z" fill="#050A19"/><path d="M64.739 36.908c3.521.167 9.224.335 12.578.335 14.424 0 16.101 0 16.101-7.885 0-6.207-1.845-6.71-9.392-6.878l-8.89-.168c-4.024-.168-4.192-.503-4.192-2.349 0-1.845.503-1.845 10.23-1.845 1.846 0 7.716.168 10.902.168a.452.452 0 00.503-.503v-4.027a.452.452 0 00-.503-.503c-3.019-.168-8.05-.335-11.74-.335-14.088 0-16.436.335-16.436 7.549 0 6.207 1.342 7.046 10.398 7.381l8.05.336c3.858.168 3.858.671 3.858 2.013 0 2.013-.168 2.013-9.224 2.013-4.193 0-8.554-.168-12.411-.335a.453.453 0 00-.503.503v4.194c.335.168.503.336.67.336zm152.454-8.724h-10.566l4.863-9.563h.839l4.864 9.563zm-30.86-3.355v.335c0 6.04-.503 6.375-8.386 6.375h-6.541V18.621h6.541c7.883 0 8.386.168 8.386 6.208zm-34.214 0v.335c0 6.71-.336 6.71-8.051 6.71s-8.05-.167-8.05-6.71v-.335c0-6.71.335-6.71 8.05-6.71 7.715 0 8.051 0 8.051 6.71zm76.814 11.575l-11.405-22.816c-.168-.335-.335-.335-.503-.335h-10.063c-.335 0-.503.168-.503.335l-11.405 22.816c-.168.336 0 .671.336.671h6.541c.335 0 .503-.167.503-.335l1.677-3.355h15.597l1.678 3.355c.167.335.335.335.503.335h6.541c.503-.167.671-.335.503-.67zm-50.986-23.319h-13.25a.449.449 0 00-.373.13.453.453 0 00-.108.172.456.456 0 00-.022.201v22.816a.46.46 0 00.13.374.447.447 0 00.373.13h13.25c14.088 0 15.933-.671 15.933-11.744v-.168c0-11.24-1.845-11.91-15.933-11.91zm-51.153 23.32l-13.082-12.918 12.411-9.73c.335-.336.167-.672-.168-.672h-8.05a1.274 1.274 0 00-.671.168l-12.579 10.066v-9.73a.446.446 0 00-.129-.374.464.464 0 00-.374-.13h-6.206a.453.453 0 00-.503.503v22.816a.452.452 0 00.503.504h6.206a.453.453 0 00.503-.504V30.7l3.69-3.02 9.056 8.892a.877.877 0 00.671.336h8.722c.335 0 .335-.336 0-.504zm1.509-11.576v.335c0 11.576 1.845 12.247 15.765 12.247 13.921 0 15.766-.671 15.766-12.247v-.335c0-11.576-1.845-12.247-15.766-12.247-13.92 0-15.765.839-15.765 12.247zM72.621 7.549l3.02 3.355a.87.87 0 00.67.336h6.373c.336 0 .503 0 .671-.336l3.019-3.355c.335-.335.168-.671-.335-.671h-4.193a.872.872 0 00-.671.336l-1.342 1.845h-.839l-1.341-1.845a.873.873 0 00-.671-.336h-4.193c-.336.168-.503.503-.168.671" fill="#fff"/></svg>