<svg width="236" height="39" fill="none" xmlns="http://www.w3.org/2000/svg"><path d="M1.818 36.552V2.448a.62.62 0 01.615-.61H42.61c.332 0 .606.286.606.61v34.104a.614.614 0 01-.606.62H2.433a.616.616 0 01-.615-.62zM2.433 0A2.446 2.446 0 000 2.448v34.104A2.44 2.44 0 002.433 39H42.61c1.336 0 2.424-1.095 2.424-2.448V2.448C45.033 1.105 43.954 0 42.61 0H2.433z" fill="#fff"/><path d="M36.71 23.362l-11.334-.038a1.39 1.39 0 01-1.392-1.39c0-.305.104-.581.265-.81l5.786-5.857c.256-.314.559-.42.994-.42.35 0 .654.125.89.325l5.928 6c.151.228.236.495.236.78.01.782-.606 1.41-1.373 1.41zm-16.996-.038l-11.344.029c-.757 0-1.373-.629-1.373-1.4 0-.286.086-.553.228-.781l5.937-6c.255-.21.577-.324.9-.324.435 0 .738.105.993.419l5.786 5.857c.151.229.255.505.255.81 0 .771-.615 1.39-1.382 1.39zM39.437 5.257l-7.451 7.505v.02c-.237.275-.626.428-.976.428s-.663-.172-.928-.476l-7.565-7.59-7.537 7.6c-.266.304-.597.466-.947.466s-.73-.172-.976-.448L5.615 5.257l-.057-.047V34h33.936V5.21l-.057.047zm29.06 28.705V11.295h-11.4V5.21h30.536v6.086H76.877v22.657h-8.38v.01zm23.01 0V5.209h27.525v6.315H98.816v5.438h19.79v5.657h-19.79v5.667h20.216v5.657H91.506v.019zm69.017 0V5.209h27.526v6.315h-20.216v5.438h19.79v5.657h-19.79v5.667h20.216v5.657h-27.526v.019zm66.178.047l-13.333-15.161 11.988-13.639h-9.999l-7.007 7.924-6.978-7.924h-9.999l11.94 13.639-13.332 15.114h10.112l8.248-9.381 8.247 9.429h10.113zM124.401 5.21v28.753h7.518V23.067h7.424l8.285 10.885h9.023s-8.275-11-8.171-10.885c9.241.21 12.707-17.867-3.011-17.867l-21.068.01zm7.575 5.867h13.332c4.356 0 4.469 5.886.161 5.886h-13.55l.057-5.886zm99.63 22.457c-2.007 0-3.617-1.657-3.617-3.714s1.61-3.714 3.617-3.714c1.998 0 3.617 1.657 3.617 3.714 0 2.048-1.619 3.714-3.617 3.714zm-4.412-3.714a4.407 4.407 0 108.815 0c0-2.448-1.969-4.438-4.403-4.438-2.443 0-4.412 1.99-4.412 4.438zm3.428-.276V27.97h1.07c.549 0 1.117.077 1.117.762 0 .772-.635.8-1.345.8l-.842.01zm-.777 2.895h.777v-2.171h.852l1.42 2.171h.777l-1.468-2.238c.776-.076 1.382-.514 1.382-1.438 0-1.02-.615-1.514-1.761-1.514h-1.988l.009 5.19z" fill="#fff"/></svg>