<svg width="227" height="35" fill="none" xmlns="http://www.w3.org/2000/svg"><path fill-rule="evenodd" clip-rule="evenodd" d="M35.764 17.767l-3.761 1.022a.503.503 0 01-.617-.347L28.525 7.556a.512.512 0 00-.617-.354l-1.437.322a.484.484 0 00-.37.592l2.246 8.55c-.14.04-1.182.253-1.328.296L24.87 9.153c-.18-.661-.807-1.12-1.52-1.12h-4.228c-.58 0-1.112.304-1.386.792l-2.976 5.284H7.97c-.56 0-1.08.287-1.36.751l-1.574 2.597c-.18.293-.249.64-.195.979l.312 1.976c.047.3.188.567.392.78a3.227 3.227 0 00-.151.691 2.89 2.89 0 00.787 2.308c.59.62 1.412.962 2.319.962 1.799 0 3.34-1.343 3.51-3.057.01-.103.014-.206.014-.308 0-.033 0-.066-.002-.1h5.769a4.23 4.23 0 001.078 2.022c.87.914 2.085 1.416 3.418 1.416 2.676 0 4.964-1.996 5.217-4.545a4.66 4.66 0 00.02-.623l1.593-.371.44 1.68a.51.51 0 00.617.348l4.857-1.267c.268-.067.53-.362.578-.651l.556-1.525c.052-.29-.13-.475-.4-.405h-.001zm-11.301 2.54c-.103 1.029-1.1 1.9-2.176 1.9-.461 0-.872-.164-1.155-.46-.287-.303-.418-.716-.376-1.166.104-1.031 1.098-1.902 2.175-1.902.46 0 .873.165 1.155.463.286.298.422.715.377 1.165zm-6.287-1.624H8.063c-.014-.08-.02-.108-.028-.177l.843-1.391h6.827c.58 0 1.114-.305 1.387-.792 0 0 2.298-4.088 2.974-5.285h2.07l1.306 4.749a4.71 4.71 0 00-.512-.028c-2.07 0-3.913 1.197-4.755 2.924zm-8.493 3.2c-.055.562-.598 1.037-1.184 1.037-.306 0-.49-.124-.588-.23a.729.729 0 01-.19-.594c.056-.562.598-1.038 1.182-1.038.306 0 .49.127.59.235.145.149.21.359.19.59zM42.202 32.34h8.054l3.28-21.32.19 21.32h9.466l6.698-20.963-3.218 20.963h9.305l4.81-31.142H66.595L60.828 19.22l.298-18.017h-14.12L42.203 32.34z" fill="#fff"/><path fill-rule="evenodd" clip-rule="evenodd" d="M94.7 19.597h-4.221l4.22-11.004v11.004zm11.408 12.738l-2.79-31.137h-13.49L75.964 32.34H86.06l1.96-4.926h7.238v4.921h10.85zm2.412.005h8.274l2.94-18.59 2.822 18.583h12.383l4.93-31.135h-8.48l-2.891 18.308-2.557-18.308h-12.486L108.52 32.34zm28.938 0h9.914l4.555-31.142h-9.915l-4.554 31.142zm89.227-31.136l-3.37 22.61c0-.022-.714 9.724-14.086 9.724-11.288 0-10.466-7.007-10.105-9.76l3.388-22.575 10.214-.005-3.21 21.307c-.113.758-.395 2.63 1.52 2.63s2.198-1.872 2.31-2.63l3.173-21.307 10.166.006zM187.12 22.526c-.11.757-.389 2.63-2.281 2.63-1.892 0-1.613-1.873-1.501-2.63l1.576-10.576c.144-.972.392-2.629 2.285-2.629 1.892 0 1.645 1.657 1.5 2.629l-1.578 10.576h-.001zm8.672-19.866c-2.493-1.742-5.508-1.443-9.781-1.443h-31.633l-1.245 8.086h5.364l-3.5 23.748h10.153l3.49-23.726h6.643l-1.938 13.045s-2.162 11.168 9.825 11.168c12.832 0 13.73-9.833 13.73-9.833l1.946-13.037s.984-5.159-3.054-8.008zM16.88 1.198H5.536a.293.293 0 00-.282.236L3.617 11.978c2.498-5.259 7.5-9.346 13.264-10.78h-.001zM.002 34.479a.233.233 0 00.058.186l-.003.001a.21.21 0 00.16.07H17.6c9.493 0 18.217-7.658 19.6-17.152L39.79.253a.212.212 0 00-.048-.17c-.002-.006-.002-.01-.006-.013-.003-.003-.003-.007-.006-.01l-.004.004A.224.224 0 0039.57 0H26.117c.306.082.602.189.9.293 6.357 2.402 10.49 9.202 9.506 16.69-.013.084-.026.166-.036.248-1.185 8.134-7.82 14.896-15.676 16.566-1.06.197-2.134.305-3.207.305h-3.4a7.27 7.27 0 01-1.98-.278c-5.513-1.68-9.438-6.208-10.335-11.97L.002 34.479z" fill="#fff"/></svg>