<svg width="285" height="63" fill="none" xmlns="http://www.w3.org/2000/svg"><path d="M60.59 1.784l-8.127 44.044h8.434l6.15-33.814 21.18 30.748 7.487-40.978h-7.987l-3.813 20.851L69.552 1.784H60.59zM10.27 17.17c-1.837 0-3.395 1.283-3.757 2.983l-.084.335-1.698 9.422a3.5 3.5 0 00-.083.752c0 2.091 1.781 3.792 3.896 3.792h6.958c.947 0 1.615 1.059 1.448 1.923-.195 1.004-.585 1.756-2.115 1.756H3.2l-1.42 7.75h18.063c3.48 0 4.23-3.29 4.23-3.29s1.754-8.084 1.754-10.174c0-2.091-1.698-3.764-3.785-3.764h-7.041c-1.197 0-1.587-.864-1.42-1.923.14-.836.863-1.784 2.087-1.784h11.69l1.447-7.722H10.27v-.056zm21.848 0l-5.26 28.657h22.321l1.42-7.75h-14.39l.696-3.651h14.362l1.085-5.882H37.935l.696-3.708h14.417l1.42-7.694h-22.35v.028zm63.568 0L89.62 50.093 68.662 19.68l-7.599 41.536h8.155l3.758-20.49 14.138 20.49h8.906l8.1-44.045h-8.434zm11.746 0l-5.288 28.685h22.237l1.392-7.75h-14.278l.696-3.651h14.278l1.057-5.882h-14.138l.612-3.708h14.167l1.447-7.694h-22.182zm25.382 0l-5.26 28.685h21.347c3.452 0 4.843-1.422 5.149-3.29 0 0 1.336-7.192 1.364-7.387.028-.167.056-.334.056-.53 0-1.505-.752-2.815-2.004-3.456 1.642-.167 2.894-1.394 3.256-2.983l.056-.25 1.169-6.356c.028-.195.055-.39.055-.614 0-1.867-1.029-3.846-3.785-3.846h-21.403v.027zm63.402 0a3.826 3.826 0 00-3.758 3.123l-.222 1.17-3.09 16.726-.528 2.871a3.026 3.026 0 00-.084.725 4.042 4.042 0 004.036 4.042h17.172c2.115 0 3.869-1.505 4.286-3.485l2.533-13.798h-12.998l-.918 5.101h6.095s-.083.614-.222 1.366c-.251 1.31-1.002 3.066-3.229 3.066h-7.014c-.751 0-1.503-.64-1.336-1.505l1.893-10.342c.167-.836.612-1.366 1.364-1.366h17.089l1.419-7.694h-22.488zm25.8 0l-5.288 28.685h22.238l1.447-7.722h-14.306l.668-3.68h14.25l1.058-5.881h-14.278l.668-3.708h14.278l1.447-7.694h-22.182zm-56.415.028c-1.976 0-3.897 1.422-4.203 3.29 0 0-3.479 19.29-3.535 19.513-.807 3.234 1.782 5.854 4.537 5.854h17.84c1.976 0 4.398-1.394 4.704-3.262l3.757-20.74s.084-.64.084-.836c0-1.867-1.197-3.819-3.952-3.819h-19.232zm81.937 0l-5.288 28.685h7.403l2.895-15.667 8.711 15.667h6.457l5.261-28.685h-7.515l-2.839 15.22-8.6-15.22h-6.485zm-78.291 7.638h9.379c.612 0 1.586.614 1.308 1.7l-1.948 10.426c-.167.614-.612 1.115-1.225 1.115h-9.24c-.612 0-1.586-.585-1.308-1.672l1.892-10.426c.195-.585.529-1.143 1.142-1.143zm-30.087.028h8.823c.835 0 1.392.78 1.197 1.868-.223 1.143-.919 1.812-1.865 1.812h-8.823l.668-3.68zm-1.753 9.562h8.795c.918 0 1.363.892 1.224 1.84-.139 1.031-.89 1.811-1.892 1.811h-8.823l.696-3.651zm142.11-27.513c-.501 0-1.002.112-1.447.279a3.393 3.393 0 00-1.169.808 3.792 3.792 0 00-.807 1.199 3.5 3.5 0 00-.279 1.422c0 .502.084.975.279 1.421.195.446.445.864.807 1.2a3.87 3.87 0 001.197.835c.445.196.918.28 1.419.28a3.67 3.67 0 001.42-.28 3.994 3.994 0 001.224-.836c.362-.335.612-.725.807-1.17a4.039 4.039 0 00-.028-2.871c-.194-.447-.417-.865-.779-1.2a3.905 3.905 0 00-1.224-.808 3.492 3.492 0 00-1.42-.279zm0 .363c.445 0 .863.083 1.28.25.418.168.78.39 1.114.697.306.307.528.67.695 1.088.167.39.251.836.251 1.31a3.33 3.33 0 01-.946 2.342 3.652 3.652 0 01-1.114.724 3.378 3.378 0 01-2.56 0c-.418-.167-.752-.418-1.086-.725a3.234 3.234 0 01-.723-1.087 3.155 3.155 0 01-.251-1.254c0-.446.084-.864.251-1.283.167-.418.417-.78.723-1.115a3.417 3.417 0 011.058-.724c.417-.14.863-.223 1.308-.223zm-1.252 1.226v4.21h.222v-1.924h1.253l.918 1.923h.362l-.974-2.007c.306-.027.557-.139.751-.362.195-.195.279-.446.279-.753 0-.418-.139-.697-.418-.892-.278-.195-.723-.195-1.336-.195h-1.057zm.222.307h1.03c.445 0 .752.056.974.195.223.111.306.307.306.557 0 .307-.083.502-.25.642-.195.111-.529.195-1.002.195h-1.03v-1.59h-.028z" fill="#fff"/></svg>