<svg width="185" height="77" fill="none" xmlns="http://www.w3.org/2000/svg"><path d="M180.359 32.229c-1.049-.001-2.123-.383-2.732-.7-12.402-6.459-26.475-10.277-40.139-10.277-1.713 0-2.982.068-4.578.229 2.58 4.096 7.02 10.057 10.061 13.71.793.949 1.025 1.521 1.025 2.435 0 1.592-1.676 3.135-3.457 3.135-1.191 0-1.904-.469-3.004-1.764-3.705-4.347-9.268-12.051-11.904-16.422-12.969 2.293-27.428 9.953-35.971 16.719-.977.783-1.656 1.104-2.635 1.104-1.816 0-3.395-1.563-3.395-3.35 0-1.032.38-1.81 1.715-2.923 13.039-10.852 33.291-19.424 50.49-19.424 6.818 0 13.395.945 19.754 2.502 3.863.943 9.59 2.862 14.469 4.99-12.789-7.727-28.818-14.787-38.953-14.787-2.586 0-4.168.866-4.168 2.607 0 1.025.572 2.398 1.426 3.777-2.029.205-4.701.617-6.723 1.158-1.057-1.936-1.791-4.004-1.791-6.223 0-4.943 3.219-7.984 9.705-7.984 14.691 0 39.381 13.693 51.701 23.696 1.41 1.146 2.799 2.566 2.799 4.231 0 1.648-1.427 3.56-3.695 3.561zM20.703 61.361c0-.881.533-1.428 1.354-1.428.821 0 1.33.547 1.33 1.428v1.486c.717-1.465 2.301-2.914 3.73-2.914.917 0 1.362.539 1.362 1.254 0 .697-.38 1.223-1.563 1.549-2.449.683-3.523 2.053-3.523 4.682v7.607c0 .881-.516 1.429-1.336 1.429-.82 0-1.354-.548-1.354-1.429V61.361zm60.254 0c0-.881.531-1.428 1.354-1.428.818 0 1.332.547 1.332 1.428v1.486c.713-1.465 2.297-2.914 3.727-2.914.918 0 1.365.539 1.365 1.254 0 .697-.385 1.223-1.564 1.549-2.451.683-3.523 2.053-3.523 4.682v7.607c0 .881-.518 1.429-1.336 1.429-.822 0-1.354-.548-1.354-1.429V61.361h-.001zm-44.823-1.428c2.627 0 4.314 1.055 4.314 2.002 0 .568-.422 1.135-1.061 1.135-.984 0-1.447-.793-3.254-.793-3.051 0-4.617 2.729-4.617 5.917 0 3.455 1.762 5.918 4.617 5.918 1.988 0 2.424-.822 3.359-.822.609 0 .975.411.975 1.04 0 .608-.502 1.104-1.408 1.522-.791.364-1.838.602-2.926.602-4.572 0-7.318-3.434-7.318-8.26 0-4.726 2.77-8.261 7.319-8.261zm8.246 9.293c.051 2.643 1.764 4.885 4.771 4.885 3.16 0 3.906-1.769 5.047-1.769.64 0 1.088.433 1.088 1.111 0 1.306-2.883 3-6.11 3-2.417 0-4.036-.767-5.24-1.991-1.536-1.557-2.255-3.855-2.255-6.268 0-4.414 2.734-8.263 7.258-8.263 4.21 0 6.936 3.716 6.936 7.866 0 .941-.38 1.428-1.486 1.428H44.38v.001zm8.807-2.005c0-2.308-1.314-4.944-4.26-4.944-2.895 0-4.445 2.271-4.547 4.944h8.807zm8.197 7.805c0 .88-.521 1.427-1.342 1.427-.821 0-1.348-.547-1.348-1.427V55.894c0-.88.527-1.428 1.348-1.428.82 0 1.342.548 1.342 1.428v19.132zm9.784 1.432c-4.277 0-7.117-3.407-7.117-8.264 0-4.859 2.84-8.266 7.117-8.266 4.27 0 7.117 3.406 7.117 8.266 0 4.857-2.846 8.264-7.117 8.264zm0-2.347c2.617 0 4.414-2.285 4.414-5.916 0-3.635-1.797-5.918-4.414-5.918-2.621 0-4.418 2.283-4.418 5.918 0 3.63 1.796 5.916 4.418 5.916zm36.218-13.063c-1.498 5.15-3.959 13.615-4.16 14.313-.227.77-.695 1.093-1.428 1.093-.736 0-1.191-.272-1.432-1.093-.207-.725-2.789-9.596-4.268-14.693a32.847 32.847 0 01-.648-2.677 81.98 81.98 0 01-.377 2.686 6696.39 6696.39 0 00-2.289 14.443c-.146.933-.62 1.334-1.402 1.334-.73 0-1.199-.493-1.199-1.275 0-.303.063-.698.15-1.215 0 0 2.697-16.221 2.912-17.461.23-1.326.918-2.035 2.035-2.035.998 0 1.785.585 2.102 1.688.195.686 2.37 8.305 3.75 13.121.256.889.51 1.936.707 2.881.182-.928.422-1.926.67-2.795 1.377-4.811 3.594-12.52 3.789-13.207.316-1.104 1.02-1.688 2.016-1.688 1.049 0 1.818.687 2.033 2.035.199 1.243 2.914 17.461 2.914 17.461.088.517.146.912.146 1.215 0 .782-.467 1.275-1.197 1.275-.781 0-1.258-.401-1.4-1.334-.322-2.06-1.455-9.205-2.223-14.026a79.259 79.259 0 01-.424-3.123 45.447 45.447 0 01-.777 3.077zm10.752-5.851c.91 0 1.641.729 1.641 1.64 0 .911-.73 1.64-1.641 1.64a1.634 1.634 0 01-1.641-1.64 1.635 1.635 0 011.641-1.64zm1.346 6.164c0-.881-.525-1.428-1.346-1.428-.821 0-1.342.547-1.342 1.428v13.664c0 .881.521 1.429 1.342 1.429.821 0 1.346-.548 1.346-1.429V61.361zm4.676-4.737c0-.881.521-1.428 1.34-1.428.822 0 1.35.547 1.35 1.428v3.491h1.094c.879 0 1.336.431 1.336 1.16 0 .729-.457 1.165-1.336 1.165h-1.094v12.585c0 .88-.527 1.428-1.35 1.428-.818 0-1.34-.548-1.34-1.428V62.441h-.977c-.877 0-1.334-.436-1.334-1.165 0-.729.457-1.16 1.334-1.16h.977v-3.492zm8.474 0c0-.881.525-1.428 1.348-1.428.82 0 1.342.547 1.342 1.428v3.491h1.092c.885 0 1.336.431 1.336 1.16 0 .729-.451 1.165-1.336 1.165h-1.092v12.585c0 .88-.521 1.428-1.342 1.428-.822 0-1.348-.548-1.348-1.428V62.441h-.98c-.879 0-1.336-.436-1.336-1.165 0-.729.457-1.16 1.336-1.16h.98v-3.492zM17.816 73.993c-.563-1.508-5.813-15.619-6.63-17.797-.411-1.093-1.038-1.729-2.077-1.729-1.061 0-1.625.638-2.04 1.729-.372.979-6.087 16.293-6.657 17.797-.25.661-.346 1.016-.346 1.302 0 .673.578 1.157 1.277 1.157.72 0 1.135-.373 1.36-1.002.138-.377.88-2.463 1.827-5.119h9.158l1.828 5.119c.205.566.578 1.002 1.307 1.002.699 0 1.355-.426 1.355-1.125 0-.307-.073-.55-.362-1.334zM5.38 67.956c1.115-3.121 2.334-6.538 3.146-8.822.229-.637.43-1.24.584-1.744.17.543.379 1.165.582 1.739.816 2.289 2.033 5.698 3.146 8.827H5.38zm154.327 7.07c0 .88-.529 1.427-1.35 1.427-.818 0-1.344-.547-1.344-1.427V55.894c0-.88.525-1.428 1.344-1.428.82 0 1.35.548 1.35 1.428v19.132zm-7.834-15.093c-.82 0-1.34.547-1.34 1.428v1.207c-.992-1.631-2.609-2.639-4.602-2.639-4.094 0-6.908 3.406-6.908 8.266 0 4.856 2.814 8.264 6.908 8.264 1.992 0 3.609-1.009 4.602-2.643v1.211c0 .879.52 1.427 1.34 1.427.822 0 1.346-.548 1.346-1.427V61.361c-.001-.881-.524-1.428-1.346-1.428zm-5.733 14.182c-2.617 0-4.414-2.289-4.414-5.92 0-3.635 1.797-5.924 4.414-5.924 2.621 0 4.416 2.289 4.416 5.924 0 3.63-1.795 5.92-4.416 5.92z" fill="#fff"/></svg>