<svg width="280" height="60" fill="none" xmlns="http://www.w3.org/2000/svg"><path d="M30.113 8.154V3.857c0-2.149-1.75-3.857-3.882-3.857-2.133 0-3.828 1.763-3.828 3.857v4.242C9.936 9.972.313 20.771.313 33.83c0 14.325 11.592 26.006 25.808 26.006 14.217 0 25.81-11.68 25.81-26.006-.055-12.948-9.515-23.691-21.818-25.675zm-3.992 46.942c-11.646 0-21.106-9.531-21.106-21.267 0-10.413 7.491-19.118 17.388-20.881v4.628a3.98 3.98 0 001.531 3.14v3.912H15.24a2.88 2.88 0 00-2.46 1.378c-.493.881-.547 1.928-.055 2.81l10.99 21.101c.493.937 1.477 1.543 2.516 1.543 1.093 0 2.023-.606 2.515-1.543l10.99-21.102c.438-.881.438-1.983-.109-2.81a2.844 2.844 0 00-2.406-1.377h-8.694v-3.912a3.872 3.872 0 001.586-3.14v-4.628c9.733 1.928 17.06 10.578 17.06 20.881 0 11.736-9.46 21.267-21.052 21.267zm156.713-9.09h-8.475V35.703h7.217v-9.036h-7.217v-8.87h7.655V8.32h-19.193v47.162h20.013v-9.477zM95.564 17.74h3.61v37.686h11.483V8.32H84.082v47.107h11.483V17.741zm-15.31 28.32h-8.53V35.703h7.273v-9.036h-7.272v-8.981h7.819V8.32H60.078v47.107h20.176v-9.366zm117.89-10.303h3.555v19.724h11.537V8.375h-11.537v16.914h-3.555V8.375h-11.482v47.107h11.482V35.758zm25.7 19.724h11.483V17.796h6.889V8.375h-25.207v9.421h6.835v37.686zM125.967 8.32h-11.483v47.107h11.483V8.32zm33.081 37.685h-2.46V8.32h-11.592v37.685h-3.609V8.32h-11.592v47.052h21.215V60h8.038V46.005zm111.383-31.019a7.782 7.782 0 00-1.695-3.581c-.875-.992-2.132-1.763-3.827-2.259-1.696-.551-4.101-.771-7.218-.771h-11.647v47.107h11.483V36.474h3.117c2.515 0 4.593-.386 6.124-1.102 1.585-.716 2.624-1.818 3.226-3.196.601-1.377.875-3.581.875-6.556v-4.132c0-2.92-.164-5.124-.438-6.502zm-11.756 12.507c-3.335 0-6.069-2.755-6.069-6.116 0-3.36 2.734-6.115 6.069-6.115s6.07 2.755 6.07 6.115c0 3.416-2.735 6.116-6.07 6.116z" fill="#fff"/><path d="M258.675 16.75c-2.57 0-4.648 2.093-4.648 4.627 0 2.59 2.078 4.628 4.648 4.628s4.647-2.093 4.647-4.628c-.054-2.534-2.132-4.628-4.647-4.628zm.82 7.713l-1.312-2.535v2.535h-1.914v-6.061h1.914v2.59l1.257-2.59h2.242l-1.64 3.03 1.859 3.086-2.406-.055zm18.7-10.964l-.601-.992c-.11-.165-.219-.33-.383-.44a1.2 1.2 0 00.437-.276c.219-.22.274-.496.274-.772 0-.22-.055-.44-.164-.66-.11-.221-.274-.331-.492-.442a2.946 2.946 0 00-.82-.11h-1.805v4.022h.93v-1.598h.546c.055 0 .11.056.165.056.054 0 .109.055.164.165.109.11.218.275.328.496l.492.716.054.11h1.094l-.219-.275zm-1.203-2.26c-.054.056-.109.11-.164.11-.109.056-.218.056-.437.056h-.82v-.771h.929c.219 0 .383.055.438.11a.426.426 0 01.109.275c0 .056-.055.11-.055.22z" fill="#fff"/><path d="M279.234 11.846c0 1.598-1.312 2.92-2.898 2.92-1.585 0-2.898-1.322-2.898-2.92 0-1.598 1.313-2.92 2.898-2.92 1.586-.055 2.898 1.267 2.898 2.92zm-2.898-3.692c-2.023 0-3.663 1.653-3.663 3.692 0 2.038 1.64 3.691 3.663 3.691 2.024 0 3.664-1.653 3.664-3.691 0-2.039-1.695-3.692-3.664-3.692z" fill="#fff"/></svg>