<svg width="279" height="31" viewBox="0 0 279 31" fill="none" xmlns="http://www.w3.org/2000/svg">
<path d="M82.3164 0.611084H77.8201H74.9955H72.1132H70.3263L60.9302 29.6682H69.2887L71.018 23.8346H81.8552L83.5845 29.6682H92.2312L82.8928 0.611084H82.3164ZM73.0356 16.7786L75.5719 8.11149H77.186L79.78 16.7786H73.0356Z" fill="white"/>
<path d="M243.721 0.611084H239.225H236.4H233.518H231.731L222.335 29.6682H230.693L232.423 23.8346H243.318L245.047 29.6682H253.694L244.355 0.611084H243.721ZM234.498 16.7786L237.034 8.11149H238.648L241.242 16.7786H234.498Z" fill="white"/>
<path d="M99.6096 0.611084H95.1133V29.6682H103.299V8.11149H116.154V0.611084H103.299H99.6096Z" fill="white"/>
<path d="M133.274 0.611084H127.683H123.993H119.497V29.6682H127.683V21.1122H133.274C140.883 21.1122 144.745 16.5008 144.745 10.8894C144.803 5.22244 140.883 0.611084 133.274 0.611084ZM133.274 14.0563H127.683V7.66702H133.274C135.522 7.66702 136.56 9.11154 136.56 10.8339C136.618 12.6117 135.522 14.0563 133.274 14.0563Z" fill="white"/>
<path d="M163.595 0C154.43 0 147.455 6.55596 147.455 15.1676C147.455 23.7792 154.43 30.3352 163.595 30.3352C172.761 30.3352 179.736 23.7792 179.736 15.1676C179.736 6.55596 172.761 0 163.595 0ZM163.595 22.3903C159.214 22.3903 156.044 19.3345 156.044 15.112C156.044 10.8896 159.214 7.83382 163.595 7.83382C167.976 7.83382 171.146 10.8896 171.146 15.112C171.146 19.3901 167.976 22.3903 163.595 22.3903Z" fill="white"/>
<path d="M211.21 0.611084H208.501L201.583 13.2229L194.781 0.611084H191.841H187.46H183.656V29.6682H191.841V11.8895L198.298 23.8346H204.581L211.21 11.7784V29.6682H219.395V0.611084H215.476H211.21Z" fill="white"/>
<path d="M279 0.611084H269.085H260.899H250.984V8.11149H260.899V29.6682H269.085V8.11149H279V0.611084Z" fill="white"/>
<path d="M31.9351 0.611084L20.3486 7.11152L8.76198 0.611084L0 15.1676L11.7019 21.7236V29.613H29.1682V21.6125L40.6395 15.1676L31.9351 0.611084ZM20.3486 10.1117L23.4037 15.2232H17.2934L20.3486 10.1117ZM11.7019 19.5012L2.7093 14.5009L9.51136 3.27793L18.9651 8.61162L14.93 15.2787L13.7771 17.2233L13.7194 17.3344L12.2207 19.8346L11.7019 19.5012ZM27.2083 27.724H13.7194V21.1125L16.0829 17.1678H24.5566L27.1506 21.5014V27.724H27.2083ZM28.4764 19.779L27.2083 17.6678L26.92 17.1678L25.7671 15.2232L21.732 8.55606L31.1857 3.22237L37.9302 14.4453L29.1682 19.3346L28.4764 19.779Z" fill="white"/>
</svg>
