<svg width="229" height="51" viewBox="0 0 229 51" fill="none" xmlns="http://www.w3.org/2000/svg">
<path d="M24.6544 48.6512C21.4909 48.6217 18.3614 47.9956 15.43 46.8058C12.6068 45.6429 10.0418 43.9323 7.88286 41.7728C5.72394 39.6132 4.01385 37.0475 2.85123 34.2236C1.64546 31.2962 1.01893 28.1626 1.00635 24.9966C1.03585 21.8323 1.66175 18.7019 2.85123 15.7696C4.01385 12.9457 5.72394 10.3799 7.88286 8.22041C10.0418 6.06089 12.6068 4.35032 15.43 3.18737C18.3565 1.98127 21.4892 1.35456 24.6544 1.34198C27.8178 1.37149 30.9473 1.99756 33.8788 3.18737C36.7019 4.35032 39.2669 6.06089 41.4259 8.22041C43.5848 10.3799 45.2949 12.9457 46.4575 15.7696C47.6633 18.697 48.2898 21.8305 48.3024 24.9966C48.2729 28.1609 47.647 31.2913 46.4575 34.2236C45.2949 37.0475 43.5848 39.6132 41.4259 41.7728C39.2669 43.9323 36.7019 45.6429 33.8788 46.8058C30.9522 48.0119 27.8195 48.6386 24.6544 48.6512Z" fill="white"/>
<path d="M24.6541 1.17447C19.9438 1.17447 15.3393 2.57163 11.4228 5.18926C7.50633 7.8069 4.45381 11.5274 2.65125 15.8804C0.848698 20.2334 0.377067 25.0233 1.296 29.6444C2.21494 34.2654 4.48317 38.5102 7.81386 41.8418C11.1445 45.1734 15.3881 47.4423 20.0079 48.3615C24.6277 49.2807 29.4163 48.8089 33.768 47.0058C38.1198 45.2028 41.8393 42.1494 44.4562 38.2318C47.0731 34.3143 48.4699 29.7085 48.4699 24.9968C48.4478 18.6856 45.9315 12.6391 41.47 8.1763C37.0084 3.71352 30.9636 1.19658 24.6541 1.17447V1.17447ZM24.6541 48.4837C20.0102 48.4837 15.4705 47.1062 11.6092 44.5254C7.74785 41.9447 4.73832 38.2765 2.96115 33.9849C1.18399 29.6932 0.718997 24.9708 1.62499 20.4148C2.53098 15.8588 4.76726 11.6738 8.05104 8.38913C11.3348 5.10444 15.5186 2.86753 20.0733 1.96129C24.6281 1.05504 29.3492 1.52016 33.6396 3.29782C37.9301 5.07549 41.5972 8.08586 44.1773 11.9482C46.7573 15.8106 48.1344 20.3516 48.1344 24.9968C48.1344 31.2259 45.6606 37.1999 41.2572 41.6045C36.8538 46.0092 30.8815 48.4837 24.6541 48.4837Z" fill="white"/>
<path d="M24.6541 48.4838C37.6219 48.4838 48.1344 37.9684 48.1344 24.997C48.1344 12.0255 37.6219 1.51013 24.6541 1.51013C11.6863 1.51013 1.17383 12.0255 1.17383 24.997C1.17383 37.9684 11.6863 48.4838 24.6541 48.4838Z" fill="white"/>
<path d="M24.6547 46.4703C21.8144 46.4783 19.0012 45.9185 16.3803 44.8238C13.7594 43.729 11.3836 42.1214 9.39249 40.0953C7.37227 38.0997 5.76855 35.7225 4.67448 33.1017C3.5804 30.481 3.01777 27.6689 3.01926 24.8288C2.99595 21.9856 3.54864 19.167 4.64398 16.5432C5.73933 13.9194 7.35464 11.5447 9.39249 9.56238C11.3875 7.5416 13.7641 5.93744 16.3841 4.84306C19.0041 3.74868 21.8154 3.18589 24.6547 3.18738C27.4972 3.16407 30.3149 3.71691 32.938 4.81256C35.5611 5.90821 37.9351 7.52397 39.9169 9.56238C41.9371 11.558 43.5408 13.9352 44.6349 16.5559C45.729 19.1767 46.2916 21.9888 46.2901 24.8288C46.3134 27.6721 45.7607 30.4907 44.6654 33.1145C43.57 35.7383 41.9547 38.1129 39.9169 40.0953C37.9351 42.1337 35.5611 43.7495 32.938 44.8451C30.3149 45.9408 27.4972 46.4936 24.6547 46.4703Z" fill="#11192E"/>
<path d="M24.655 46.1347C21.8787 46.1491 19.1276 45.6073 16.564 44.5412C14.0004 43.4751 11.6761 41.9064 9.72824 39.9275C7.73672 37.989 6.15975 35.6659 5.09302 33.0993C4.02629 30.5327 3.49205 27.776 3.52273 24.9966C3.53602 19.3945 5.76672 14.0256 9.72691 10.0643C13.6871 6.10302 19.0545 3.8717 24.655 3.85841C30.2555 3.8717 35.6229 6.10302 39.5831 10.0643C43.5433 14.0256 45.774 19.3945 45.7873 24.9966C45.8016 27.7736 45.2599 30.5255 44.1942 33.0898C43.1284 35.6541 41.5601 37.9791 39.5818 39.9275C37.6438 41.9196 35.3214 43.497 32.7555 44.564C30.1896 45.631 27.4337 46.1654 24.655 46.1347Z" fill="#11192E"/>
<path d="M24.6545 44.4573C20.8078 44.4557 17.0479 43.3134 13.8501 41.175C10.6522 39.0365 8.15984 35.9978 6.688 32.4429C5.21616 28.8879 4.8309 24.9763 5.58091 21.2024C6.33091 17.4285 8.18251 13.9617 10.9017 11.2402C12.707 9.43232 14.8509 7.99813 17.2107 7.01962C19.5705 6.0411 22.0999 5.53745 24.6545 5.53745C27.209 5.53745 29.7385 6.0411 32.0983 7.01962C34.4581 7.99813 36.6019 9.43232 38.4072 11.2402C41.1264 13.9617 42.978 17.4285 43.728 21.2024C44.478 24.9763 44.0927 28.8879 42.6209 32.4429C41.1491 35.9978 38.6567 39.0365 35.4589 41.175C32.261 43.3134 28.5011 44.4557 24.6545 44.4573Z" fill="#11192E"/>
<path d="M15.0944 32.7133L18.1133 33.7199C18.3547 33.814 18.6176 33.8389 18.8724 33.7918C19.1272 33.7446 19.3638 33.6273 19.5555 33.4529C19.7472 33.2786 19.8865 33.0541 19.9576 32.8049C20.0288 32.5557 20.029 32.2916 19.9582 32.0422C19.1196 27.0093 15.933 23.9896 9.55977 22.8153C9.39206 22.8153 9.39206 22.8153 9.39206 22.6475C9.55743 21.2273 10.0142 19.8566 10.7338 18.6212C10.7338 18.5767 10.7515 18.534 10.7829 18.5026C10.8144 18.4711 10.857 18.4534 10.9015 18.4534V17.1113C10.7338 17.1113 10.7338 17.2791 10.5661 17.4468C9.67867 19.0713 9.0559 20.8269 8.72119 22.6475C8.72119 22.983 8.88891 23.3185 9.22434 23.3185C15.4298 24.3251 18.6165 27.1771 19.2873 32.0422C19.2873 32.3778 19.2873 32.5455 19.1196 32.7133C19.0533 32.7767 18.9739 32.8246 18.8869 32.8536C18.7999 32.8827 18.7075 32.892 18.6165 32.881C18.38 32.9062 18.1424 32.8467 17.9456 32.7133L15.2621 31.3712H14.9267L15.0944 32.5455C14.9267 32.7133 14.9267 32.7133 15.0944 32.7133Z" fill="white"/>
<path d="M38.7425 34.2233L37.4007 34.3911V34.5588C36.4543 35.4103 35.2953 35.9899 34.0464 36.2365C33.8787 36.2365 33.8787 36.2364 33.8787 36.0687V35.9009C33.8669 35.7268 33.7925 35.5629 33.6691 35.4395C33.5458 35.3161 33.3819 35.2416 33.2078 35.2299H17.6102C17.5192 35.2189 17.4268 35.2283 17.3398 35.2573C17.2528 35.2863 17.1733 35.3342 17.1071 35.3976C16.6039 35.7332 15.933 36.0687 15.4299 36.4042C15.3636 36.4676 15.2841 36.5156 15.1971 36.5446C15.1101 36.5736 15.0178 36.5829 14.9267 36.572H13.4173C13.2496 36.572 13.0819 36.572 13.0819 36.4042C12.411 35.2299 11.7401 34.3911 10.9016 33.049C10.7338 32.8812 10.7338 32.8812 10.9016 32.7134L9.89526 31.7068C9.80418 31.7973 9.74526 31.9152 9.72754 32.0424C9.8672 32.4269 10.0973 32.7721 10.3984 33.049C10.5661 33.2167 10.7338 33.5522 10.9016 33.72L11.4047 34.3911C11.8337 34.9814 12.2258 35.5977 12.5787 36.2365L12.7464 36.572C12.9142 36.7397 12.9142 36.9075 13.2496 36.9075H15.2622C15.3532 36.9185 15.4456 36.9091 15.5326 36.8801C15.6196 36.8511 15.6991 36.8032 15.7653 36.7397L17.6102 35.7332C17.6973 35.6374 17.8169 35.5776 17.9456 35.5654H33.0401C33.3756 35.5654 33.3756 35.9009 33.3756 36.0687V36.572C33.3831 36.6584 33.4209 36.7394 33.4822 36.8008C33.5436 36.8622 33.6246 36.8999 33.711 36.9075C35.5648 36.5788 37.2999 35.7689 38.7425 34.5588V34.2233Z" fill="white"/>
<path d="M33.2077 31.8747V32.5458C33.2077 32.7136 33.04 33.0491 32.8723 33.0491H32.5369C32.4458 33.06 32.3535 33.0507 32.2665 33.0217C32.1795 32.9927 32.1 32.9447 32.0337 32.8813C31.866 32.7136 31.866 32.2103 31.866 32.0425L32.0337 31.707C33.03 28.2777 33.4272 24.7022 33.2077 21.1379C33.1919 22.6304 32.9079 24.1078 32.3692 25.4997C32.1808 27.7674 31.7879 30.0134 31.1951 32.2103C30.8597 33.2168 31.5306 33.7201 32.3692 33.7201H33.2077C33.3818 33.7084 33.5457 33.6339 33.669 33.5105C33.7924 33.3871 33.8668 33.2232 33.8786 33.0491V32.7136L33.5432 31.707C33.2077 31.5392 33.2077 31.707 33.2077 31.8747Z" fill="white"/>
<path d="M27.1698 26.0033C26.7727 26.0011 26.3791 26.0777 26.0119 26.2286C25.6446 26.3796 25.3109 26.602 25.0301 26.8828C24.7493 27.1637 24.5271 27.4974 24.3761 27.8648C24.2252 28.2322 24.1486 28.6259 24.1509 29.0231C24.1333 29.3599 24.1837 29.6969 24.2989 30.0139C24.4142 30.3309 24.592 30.6215 24.8217 30.8684L26.1635 29.8619C25.9774 29.5558 25.8628 29.2118 25.828 28.8553C25.828 28.3659 26.0224 27.8965 26.3684 27.5504C26.7144 27.2043 27.1836 27.0099 27.6729 27.0099C28.1622 27.0099 28.6315 27.2043 28.9774 27.5504C29.3234 27.8965 29.5178 28.3659 29.5178 28.8553C29.531 29.1178 29.4761 29.3793 29.3586 29.6145C29.241 29.8496 29.0648 30.0504 28.8469 30.1974L29.5178 30.8684C29.9117 30.3293 30.1444 29.6893 30.1887 29.0231C30.1909 28.6259 30.1143 28.2322 29.9634 27.8648C29.8125 27.4974 29.5902 27.1637 29.3094 26.8828C29.0286 26.602 28.6949 26.3796 28.3277 26.2286C27.9604 26.0777 27.5668 26.0011 27.1698 26.0033Z" fill="white"/>
<path d="M12.914 15.2662C14.8779 16.3576 16.6836 17.7122 18.281 19.2925C18.2365 19.2925 18.1938 19.3102 18.1624 19.3416C18.1309 19.3731 18.1132 19.4158 18.1132 19.4603C18.6354 19.8916 19.0879 20.4009 19.455 20.9701C20.1258 21.809 20.4613 22.3122 20.7967 22.6478C21.2999 22.6478 21.6353 22.6478 21.803 22.48C21.9707 22.3122 21.9707 22.3122 21.6353 21.9767C21.6353 21.809 21.4676 21.809 21.4676 21.6412C21.4676 21.4734 21.1321 21.1379 20.9644 20.9701C20.7967 20.8024 20.629 20.4669 20.4613 20.2991C20.2541 20.1079 20.0836 19.8805 19.9581 19.628L19.455 19.1247L18.9518 18.6215L18.4487 18.1182L17.9455 17.6149L17.4424 17.1116C17.2747 16.9438 17.1069 16.7761 16.9392 16.7761C16.7715 16.6083 16.6038 16.6083 16.4361 16.4405C16.2684 16.2728 16.1006 16.2728 15.9329 16.105C15.7652 15.9372 15.5975 15.9372 15.4298 15.7695C15.2621 15.6017 15.0943 15.6017 14.9266 15.434C14.7589 15.2662 14.5912 15.2662 14.4235 15.0984C14.3364 15.0027 14.2168 14.9429 14.088 14.9307C13.9609 14.9129 13.8431 14.854 13.7526 14.7629C13.5849 14.5951 13.4172 14.5951 13.7526 14.2596C14.562 13.4337 15.4622 12.7021 16.4361 12.0787H16.6038L17.2747 11.0721C17.1069 11.0721 16.9392 11.0721 16.9392 11.2399C15.4459 12.1627 14.0908 13.2923 12.914 14.5951C12.7463 14.7629 12.7463 14.7629 12.7463 14.9307C12.4109 14.7629 12.5786 14.9307 12.914 15.2662Z" fill="white"/>
<path d="M19.9583 10.2333C21.9458 11.7889 23.6 13.7287 24.8221 15.9373H24.4866C25.253 17.3452 25.9253 18.8024 26.4992 20.2991V20.4669H27.1701C27.3378 20.4669 27.3378 20.4669 27.3378 20.2991V20.1314C26.4517 17.0552 24.8413 14.2364 22.6418 11.911L22.4741 11.7432L22.3063 11.5754L22.1386 11.4077L21.9709 11.2399L21.8032 11.0722C21.7587 11.0722 21.716 11.0545 21.6846 11.023C21.6531 10.9916 21.6355 10.9489 21.6355 10.9044L21.4678 10.7366L21.3 10.5689L21.1323 10.4011C20.9646 10.2333 20.9646 10.0656 21.3 10.0656C22.3502 9.82892 23.4147 9.66081 24.4866 9.56229H25.1575L26.3315 9.059H24.9898C23.3982 9.02283 21.8115 9.24956 20.2937 9.73006C19.9583 9.73006 19.9583 9.89782 19.9583 10.0656C19.7906 9.89782 19.7906 10.0656 19.9583 10.2333Z" fill="white"/>
<path d="M37.2333 34.2237C36.2449 33.4357 35.1022 32.8641 33.8789 32.546C33.7112 32.546 33.7112 32.546 33.7112 32.7138V32.8816C33.6994 33.0557 33.625 33.2196 33.5016 33.343C33.3783 33.4664 33.2144 33.5408 33.0403 33.5526H32.2018C32.0202 33.5442 31.8427 33.4966 31.6813 33.4129C31.5199 33.3293 31.3786 33.2117 31.267 33.0682C31.1555 32.9247 31.0763 32.7588 31.035 32.5817C30.9937 32.4047 30.9912 32.2208 31.0277 32.0428C34.0466 20.9704 30.6923 14.0921 25.8285 9.73026C25.3254 9.22697 24.99 9.39473 24.3191 9.39473C23.2373 9.39781 22.1625 9.56757 21.1325 9.89802C20.797 9.89802 20.797 10.0658 20.9648 10.2335C24.0821 12.8769 26.3563 16.3765 27.5057 20.2993C27.5057 20.4671 27.5057 20.4671 27.338 20.4671C26.9045 20.4744 26.4763 20.3703 26.0945 20.1647C25.7128 19.959 25.3902 19.6588 25.1577 19.2928C22.7894 16.3676 19.8866 13.9195 16.6041 12.0789C16.5743 12.0406 16.5362 12.0096 16.4926 11.9883C16.449 11.9669 16.4011 11.9558 16.3526 11.9558C16.304 11.9558 16.2561 11.9669 16.2125 11.9883C16.1689 12.0096 16.1308 12.0406 16.101 12.0789C15.0671 12.6152 14.1539 13.3574 13.4175 14.2599C13.3792 14.2897 13.3482 14.3278 13.3269 14.3714C13.3055 14.415 13.2944 14.463 13.2944 14.5115C13.2944 14.5601 13.3055 14.608 13.3269 14.6516C13.3482 14.6952 13.3792 14.7334 13.4175 14.7632C16.7752 16.5668 19.6953 19.0868 21.9711 22.1447C22.0345 22.211 22.0824 22.2905 22.1114 22.3776C22.1404 22.4646 22.1497 22.5569 22.1388 22.648C21.6576 22.7953 21.1483 22.8264 20.6527 22.739C20.1572 22.6515 19.6894 22.4479 19.2876 22.1447C16.6692 20.661 13.9179 19.4254 11.0695 18.4539C10.7341 18.2862 10.5663 18.4539 10.5663 18.6217C9.92011 19.8891 9.46783 21.2463 9.22461 22.648C9.22461 22.8158 9.22461 22.8158 9.39233 22.8158C15.7656 24.1579 18.9522 27.0099 19.7907 32.0428C19.8615 32.2921 19.8613 32.5562 19.7902 32.8054C19.719 33.0547 19.5798 33.2791 19.388 33.4534C19.1963 33.6278 18.9597 33.7451 18.7049 33.7923C18.4502 33.8395 18.1873 33.8146 17.9459 33.7204L14.927 32.7138H10.5663C10.3986 32.7138 10.2309 32.8816 10.3986 33.0493C11.2372 34.3914 11.9081 35.2303 12.5789 36.4046C12.5789 36.5724 12.7467 36.5724 12.9144 36.5724H14.4238C14.5149 36.5833 14.6072 36.574 14.6942 36.545C14.7812 36.5159 14.8607 36.468 14.927 36.4046C15.4301 36.0691 16.101 35.7335 16.6041 35.398C16.6704 35.3346 16.7499 35.2867 16.8369 35.2577C16.9239 35.2287 17.0162 35.2193 17.1073 35.2303H32.7049C32.879 35.242 33.0428 35.3165 33.1662 35.4399C33.2895 35.5633 33.364 35.7272 33.3758 35.9013V36.0691C33.3758 36.2368 33.3758 36.2368 33.5435 36.2368C34.7798 35.9544 35.9302 35.3791 36.8978 34.5592C37.401 34.3914 37.401 34.2237 37.2333 34.2237ZM27.1703 32.2105C26.5732 32.2105 25.9895 32.0334 25.4931 31.7016C24.9966 31.3698 24.6097 30.8982 24.3812 30.3464C24.1527 29.7946 24.0929 29.1874 24.2094 28.6017C24.3259 28.0159 24.6134 27.4778 25.0356 27.0555C25.4578 26.6332 25.9957 26.3456 26.5813 26.2291C27.1669 26.1126 27.7739 26.1724 28.3255 26.4009C28.8772 26.6295 29.3487 27.0165 29.6804 27.5131C30.0121 28.0097 30.1892 28.5935 30.1892 29.1908C30.164 29.9837 29.8378 30.7372 29.2771 31.2981C28.7163 31.8591 27.9629 32.1853 27.1703 32.2105Z" fill="white"/>
<path d="M37.2333 34.2237C36.2449 33.4357 35.1022 32.8641 33.8789 32.546C33.7112 32.546 33.7112 32.546 33.7112 32.7138V32.8816C33.6994 33.0557 33.625 33.2196 33.5016 33.343C33.3783 33.4664 33.2144 33.5408 33.0403 33.5526H32.2018C32.0202 33.5442 31.8427 33.4966 31.6813 33.4129C31.5199 33.3293 31.3786 33.2117 31.267 33.0682C31.1555 32.9247 31.0763 32.7588 31.035 32.5817C30.9937 32.4047 30.9912 32.2208 31.0277 32.0428C34.0466 20.9704 30.6923 14.0921 25.8285 9.73026C25.3254 9.22697 24.99 9.39473 24.3191 9.39473C23.2373 9.39781 22.1625 9.56757 21.1325 9.89802C20.797 9.89802 20.797 10.0658 20.9648 10.2335C24.0821 12.8769 26.3563 16.3765 27.5057 20.2993C27.5057 20.4671 27.5057 20.4671 27.338 20.4671C26.9045 20.4744 26.4763 20.3703 26.0945 20.1647C25.7128 19.959 25.3902 19.6588 25.1577 19.2928C22.7894 16.3676 19.8866 13.9195 16.6041 12.0789C16.5743 12.0406 16.5362 12.0096 16.4926 11.9883C16.449 11.9669 16.4011 11.9558 16.3526 11.9558C16.304 11.9558 16.2561 11.9669 16.2125 11.9883C16.1689 12.0096 16.1308 12.0406 16.101 12.0789C15.0671 12.6152 14.1539 13.3574 13.4175 14.2599C13.3792 14.2897 13.3482 14.3278 13.3269 14.3714C13.3055 14.415 13.2944 14.463 13.2944 14.5115C13.2944 14.5601 13.3055 14.608 13.3269 14.6516C13.3482 14.6952 13.3792 14.7334 13.4175 14.7632C16.7752 16.5668 19.6953 19.0868 21.9711 22.1447C22.0345 22.211 22.0824 22.2905 22.1114 22.3776C22.1404 22.4646 22.1497 22.5569 22.1388 22.648C21.6576 22.7953 21.1483 22.8264 20.6527 22.739C20.1572 22.6515 19.6894 22.4479 19.2876 22.1447C16.6692 20.661 13.9179 19.4254 11.0695 18.4539C10.7341 18.2862 10.5663 18.4539 10.5663 18.6217C9.92011 19.8891 9.46783 21.2463 9.22461 22.648C9.22461 22.8158 9.22461 22.8158 9.39233 22.8158C15.7656 24.1579 18.9522 27.0099 19.7907 32.0428C19.8615 32.2921 19.8613 32.5562 19.7902 32.8054C19.719 33.0547 19.5798 33.2791 19.388 33.4534C19.1963 33.6278 18.9597 33.7451 18.7049 33.7923C18.4502 33.8395 18.1873 33.8146 17.9459 33.7204L14.927 32.7138H10.5663C10.3986 32.7138 10.2309 32.8816 10.3986 33.0493C11.2372 34.3914 11.9081 35.2303 12.5789 36.4046C12.5789 36.5724 12.7467 36.5724 12.9144 36.5724H14.4238C14.5149 36.5833 14.6072 36.574 14.6942 36.545C14.7812 36.5159 14.8607 36.468 14.927 36.4046C15.4301 36.0691 16.101 35.7335 16.6041 35.398C16.6704 35.3346 16.7499 35.2867 16.8369 35.2577C16.9239 35.2287 17.0162 35.2193 17.1073 35.2303H32.7049C32.879 35.242 33.0428 35.3165 33.1662 35.4399C33.2895 35.5633 33.364 35.7272 33.3758 35.9013V36.0691C33.3758 36.2368 33.3758 36.2368 33.5435 36.2368C34.7798 35.9544 35.9302 35.3791 36.8978 34.5592C37.401 34.3914 37.401 34.2237 37.2333 34.2237ZM27.1703 32.2105C26.5732 32.2105 25.9895 32.0334 25.4931 31.7016C24.9966 31.3698 24.6097 30.8982 24.3812 30.3464C24.1527 29.7946 24.0929 29.1874 24.2094 28.6017C24.3259 28.0159 24.6134 27.4778 25.0356 27.0555C25.4578 26.6332 25.9957 26.3456 26.5813 26.2291C27.1669 26.1126 27.7739 26.1724 28.3255 26.4009C28.8772 26.6295 29.3487 27.0165 29.6804 27.5131C30.0121 28.0097 30.1892 28.5935 30.1892 29.1908C30.164 29.9837 29.8378 30.7372 29.2771 31.2981C28.7163 31.8591 27.9629 32.1853 27.1703 32.2105Z" fill="white"/>
<path d="M37.2333 34.2237C36.2449 33.4357 35.1022 32.8641 33.8789 32.546C33.7112 32.546 33.7112 32.546 33.7112 32.7138V32.8816C33.6994 33.0557 33.625 33.2196 33.5016 33.343C33.3783 33.4664 33.2144 33.5408 33.0403 33.5526H32.2018C32.0202 33.5442 31.8427 33.4966 31.6813 33.4129C31.5199 33.3293 31.3786 33.2117 31.267 33.0682C31.1555 32.9247 31.0763 32.7588 31.035 32.5817C30.9937 32.4047 30.9912 32.2208 31.0277 32.0428C34.0466 20.9704 30.6923 14.0921 25.8285 9.73026C25.3254 9.22697 24.99 9.39473 24.3191 9.39473C23.2373 9.39781 22.1625 9.56757 21.1325 9.89802C20.797 9.89802 20.797 10.0658 20.9648 10.2335C24.0821 12.8769 26.3563 16.3765 27.5057 20.2993C27.5057 20.4671 27.5057 20.4671 27.338 20.4671C26.9045 20.4744 26.4763 20.3703 26.0945 20.1647C25.7128 19.959 25.3902 19.6588 25.1577 19.2928C22.7894 16.3676 19.8866 13.9195 16.6041 12.0789C16.5743 12.0406 16.5362 12.0096 16.4926 11.9883C16.449 11.9669 16.4011 11.9558 16.3526 11.9558C16.304 11.9558 16.2561 11.9669 16.2125 11.9883C16.1689 12.0096 16.1308 12.0406 16.101 12.0789C15.0671 12.6152 14.1539 13.3574 13.4175 14.2599C13.3792 14.2897 13.3482 14.3278 13.3269 14.3714C13.3055 14.415 13.2944 14.463 13.2944 14.5115C13.2944 14.5601 13.3055 14.608 13.3269 14.6516C13.3482 14.6952 13.3792 14.7334 13.4175 14.7632C16.7752 16.5668 19.6953 19.0868 21.9711 22.1447C22.0345 22.211 22.0824 22.2905 22.1114 22.3776C22.1404 22.4646 22.1497 22.5569 22.1388 22.648C21.6576 22.7953 21.1483 22.8264 20.6527 22.739C20.1572 22.6515 19.6894 22.4479 19.2876 22.1447C16.6692 20.661 13.9179 19.4254 11.0695 18.4539C10.7341 18.2862 10.5663 18.4539 10.5663 18.6217C9.92011 19.8891 9.46783 21.2463 9.22461 22.648C9.22461 22.8158 9.22461 22.8158 9.39233 22.8158C15.7656 24.1579 18.9522 27.0099 19.7907 32.0428C19.8615 32.2921 19.8613 32.5562 19.7902 32.8054C19.719 33.0547 19.5798 33.2791 19.388 33.4534C19.1963 33.6278 18.9597 33.7451 18.7049 33.7923C18.4502 33.8395 18.1873 33.8146 17.9459 33.7204L14.927 32.7138H10.5663C10.3986 32.7138 10.2309 32.8816 10.3986 33.0493C11.2372 34.3914 11.9081 35.2303 12.5789 36.4046C12.5789 36.5724 12.7467 36.5724 12.9144 36.5724H14.4238C14.5149 36.5833 14.6072 36.574 14.6942 36.545C14.7812 36.5159 14.8607 36.468 14.927 36.4046C15.4301 36.0691 16.101 35.7335 16.6041 35.398C16.6704 35.3346 16.7499 35.2867 16.8369 35.2577C16.9239 35.2287 17.0162 35.2193 17.1073 35.2303H32.7049C32.879 35.242 33.0428 35.3165 33.1662 35.4399C33.2895 35.5633 33.364 35.7272 33.3758 35.9013V36.0691C33.3758 36.2368 33.3758 36.2368 33.5435 36.2368C34.7798 35.9544 35.9302 35.3791 36.8978 34.5592C37.401 34.3914 37.401 34.2237 37.2333 34.2237ZM27.1703 32.2105C26.5732 32.2105 25.9895 32.0334 25.4931 31.7016C24.9966 31.3698 24.6097 30.8982 24.3812 30.3464C24.1527 29.7946 24.0929 29.1874 24.2094 28.6017C24.3259 28.0159 24.6134 27.4778 25.0356 27.0555C25.4578 26.6332 25.9957 26.3456 26.5813 26.2291C27.1669 26.1126 27.7739 26.1724 28.3255 26.4009C28.8772 26.6295 29.3487 27.0165 29.6804 27.5131C30.0121 28.0097 30.1892 28.5935 30.1892 29.1908C30.164 29.9837 29.8378 30.7372 29.2771 31.2981C28.7163 31.8591 27.9629 32.1853 27.1703 32.2105Z" fill="white"/>
<path d="M38.7424 34.1682C37.3121 32.8105 35.4952 31.9311 33.5432 31.6518C33.3692 31.6635 33.2053 31.738 33.0819 31.8614C32.9586 31.9848 32.8841 32.1487 32.8723 32.3228V32.9939C32.8723 33.1616 32.8723 33.1616 32.7046 33.1616H32.3692C32.2015 33.1616 32.2015 33.1616 32.0338 32.9939V32.4906L32.2015 32.1551C34.2141 25.4445 34.8849 16.2176 27.0023 9.50702C26.6668 9.1715 26.3314 9.1715 25.996 9.00374H24.822C23.2304 8.96756 21.6437 9.19429 20.1259 9.67479C19.7905 9.84255 19.6227 10.0103 19.6227 10.1781C19.6055 10.3106 19.6282 10.4453 19.6879 10.5649C19.7477 10.6844 19.8418 10.7834 19.9582 10.8491C21.7064 12.3593 23.2311 14.1103 24.4865 16.0498C23.8157 16.0498 23.4802 15.7143 22.9771 15.211C21.2325 13.736 19.3827 12.3903 17.4424 11.1847C17.2747 11.1847 17.107 11.0169 16.9393 11.0169C16.8482 11.0059 16.7559 11.0153 16.6689 11.0443C16.5819 11.0733 16.5024 11.1212 16.4361 11.1847C14.855 12.1213 13.4385 13.3115 12.2432 14.7077C12.1798 14.774 12.1319 14.8535 12.1029 14.9405C12.0739 15.0275 12.0645 15.1199 12.0755 15.211C12.0755 15.5465 12.4109 15.7143 12.9141 15.882C14.7539 16.9545 16.4939 18.1897 18.1133 19.5728H17.7779C17.2452 19.5118 16.7311 19.3404 16.2684 19.0695C14.6272 18.3118 12.9478 17.6399 11.2369 17.0564H10.9015C10.3983 17.0564 10.2306 17.3919 10.2306 17.5597C9.36906 19.1955 8.74771 20.9471 8.38574 22.7603C8.38574 23.2636 8.55346 23.7669 9.05661 23.7669C15.0944 24.7735 18.281 27.4577 18.9519 32.3228C18.9519 32.4906 18.9519 32.8261 18.7842 32.8261C18.6971 32.9218 18.5775 32.9816 18.4487 32.9939C18.3577 33.0048 18.2653 32.9955 18.1783 32.9665C18.0913 32.9375 18.0118 32.8895 17.9456 32.8261L15.2621 31.484C15.135 31.4663 15.0171 31.4073 14.9267 31.3162H10.2306C9.55976 31.3162 9.39204 31.6518 9.39204 32.1551C9.39204 32.6583 9.72747 32.8261 10.0629 33.3294C10.2306 33.4972 10.3983 33.8327 10.5661 34.0004L11.0692 34.6715C11.4982 35.2618 11.8903 35.8781 12.2432 36.5169L12.4109 36.8524C12.5787 37.1879 12.7464 37.1879 13.0818 37.1879H15.0944C15.1854 37.1989 15.2778 37.1896 15.3648 37.1605C15.4518 37.1315 15.5313 37.0836 15.5975 37.0202L17.4424 36.0136H32.8723C32.8944 36.0136 32.9162 36.0179 32.9365 36.0264C32.9569 36.0348 32.9754 36.0472 32.9909 36.0627C33.0065 36.0783 33.0189 36.0968 33.0273 36.1172C33.0357 36.1375 33.0401 36.1593 33.0401 36.1814V36.6847C33.0401 37.0202 33.2078 37.3557 33.5432 37.3557H33.7109C35.6629 37.0764 37.4798 36.197 38.9101 34.8393C38.9735 34.773 39.0215 34.6935 39.0505 34.6064C39.0795 34.5194 39.0888 34.427 39.0778 34.336C39.0778 34.5037 38.9101 34.336 38.7424 34.1682ZM38.5747 35.007C37.2175 36.3455 35.4405 37.175 33.5432 37.3557V37.3557C33.3755 37.3557 33.3755 37.1879 33.3755 37.0202V36.5169C33.3836 36.4489 33.3761 36.3799 33.3537 36.3151C33.3313 36.2504 33.2945 36.1916 33.246 36.1431C33.1976 36.0947 33.1388 36.0578 33.0741 36.0354C33.0093 36.013 32.9404 36.0055 32.8723 36.0136H17.6101C17.5191 36.0026 17.4267 36.012 17.3397 36.041C17.2527 36.07 17.1733 36.118 17.107 36.1814C16.4361 36.5169 15.933 36.8524 15.2621 37.1879C15.135 37.2057 15.0171 37.2646 14.9267 37.3557H12.9141C12.7464 37.3557 12.5787 37.3557 12.5787 37.1879L12.4109 36.8524C11.5724 35.5103 11.5724 35.3426 10.7338 34.1682C10.2306 33.3294 9.55976 32.8261 9.55976 32.4906C9.55167 32.4225 9.55911 32.3535 9.58154 32.2888C9.60396 32.2241 9.64078 32.1652 9.68922 32.1168C9.73766 32.0683 9.79645 32.0315 9.86118 32.0091C9.92591 31.9866 9.99488 31.9792 10.0629 31.9873H15.0944C15.0944 31.9873 16.9393 32.8261 17.7779 33.3294C18.6164 33.8327 19.455 33.3294 19.2873 32.4906C18.4487 26.7866 14.4235 24.6057 9.05661 23.5991C8.72118 23.5991 8.72117 23.2636 8.72117 22.9281C9.02481 21.1223 9.5898 19.3703 10.3983 17.7274C10.4782 17.6251 10.5798 17.5419 10.6959 17.4838C10.8119 17.4258 10.9395 17.3944 11.0692 17.3919C12.7907 17.9463 14.4719 18.6189 16.1007 19.4051C17.4424 20.0761 17.9456 19.9083 18.4487 19.5728V19.2373C16.7058 17.7603 14.8559 16.4145 12.9141 15.211C12.4109 15.0432 12.2432 14.8754 12.5787 14.5399C13.7554 13.2371 15.1106 12.1075 16.6038 11.1847C16.6961 11.1021 16.8155 11.0565 16.9393 11.0565C17.063 11.0565 17.1825 11.1021 17.2747 11.1847C19.215 12.3903 21.0648 13.736 22.8094 15.211C23.3567 15.7249 24.0717 16.0229 24.822 16.0498C24.9897 16.0498 25.1574 16.0498 25.1574 15.882C23.847 13.736 22.2055 11.8109 20.2936 10.1781C20.1259 10.0103 20.1259 10.0103 20.1259 9.84255C20.1259 9.67479 20.2936 9.67479 20.4613 9.67479C21.9791 9.19429 23.5658 8.96756 25.1574 9.00374H26.1637C26.4991 9.00374 26.6668 9.1715 27.0023 9.33926C35.2204 16.2176 33.7109 26.1156 32.0338 31.6518C32.0338 31.8195 32.0338 31.8195 31.866 31.9873C31.8396 32.3315 31.8972 32.6769 32.0338 32.9939C32.2015 33.1616 32.3692 33.3294 32.5369 33.3294H32.8723C33.0032 33.3214 33.1266 33.2659 33.2193 33.1731C33.312 33.0804 33.3675 32.957 33.3755 32.8261V32.1551C33.383 32.0686 33.4208 31.9876 33.4822 31.9262C33.5435 31.8649 33.6245 31.8271 33.7109 31.8195C35.5143 32.1493 37.1949 32.9609 38.5747 34.1682C38.6658 34.2587 38.7247 34.3766 38.7424 34.5037C38.7424 34.8393 38.5747 34.8393 38.5747 35.007Z" fill="#050A19"/>
<path d="M27.6735 27.29C27.2423 27.29 26.8207 27.4179 26.4622 27.6576C26.1036 27.8972 25.8242 28.2378 25.6591 28.6363C25.4941 29.0348 25.4509 29.4733 25.5351 29.8964C25.6192 30.3195 25.8268 30.7081 26.1318 31.0131C26.4367 31.3181 26.8252 31.5258 27.2481 31.6099C27.6711 31.6941 28.1094 31.6509 28.5078 31.4858C28.9062 31.3208 29.2468 31.0412 29.4863 30.6826C29.7259 30.3239 29.8538 29.9023 29.8538 29.4709C29.8147 28.9054 29.5724 28.3731 29.1717 27.9723C28.771 27.5715 28.2388 27.3291 27.6735 27.29V27.29ZM27.6735 31.1486C27.3086 31.1486 26.9519 31.0403 26.6485 30.8376C26.3451 30.6348 26.1087 30.3466 25.969 30.0094C25.8294 29.6722 25.7929 29.3011 25.864 28.9431C25.9352 28.5852 26.1109 28.2564 26.369 27.9983C26.627 27.7402 26.9557 27.5644 27.3136 27.4932C27.6714 27.422 28.0424 27.4586 28.3795 27.5982C28.7166 27.7379 29.0047 27.9744 29.2074 28.2779C29.4102 28.5814 29.5184 28.9382 29.5184 29.3032C29.5448 29.552 29.5152 29.8036 29.4318 30.0395C29.3485 30.2754 29.2134 30.4896 29.0365 30.6666C28.8596 30.8435 28.6454 30.9786 28.4096 31.062C28.1737 31.1454 27.9222 31.175 27.6735 31.1486V31.1486Z" fill="#050A19"/>
<path d="M27.673 31.1483C27.3081 31.1483 26.9514 31.04 26.648 30.8373C26.3447 30.6345 26.1082 30.3463 25.9686 30.0091C25.8289 29.6719 25.7924 29.3008 25.8636 28.9429C25.9348 28.5849 26.1105 28.2561 26.3685 27.998C26.6265 27.7399 26.9552 27.5642 27.3131 27.4929C27.671 27.4217 28.0419 27.4583 28.379 27.598C28.7161 27.7376 29.0042 27.9742 29.207 28.2776C29.4097 28.5811 29.5179 28.9379 29.5179 29.3029C29.5443 29.5517 29.5147 29.8033 29.4314 30.0392C29.348 30.2751 29.2129 30.4894 29.036 30.6663C28.8592 30.8432 28.6449 30.9783 28.4091 31.0617C28.1733 31.1451 27.9218 31.1747 27.673 31.1483Z" fill="#050A19"/>
<path d="M64.7385 36.9076C68.2605 37.0754 73.9629 37.2432 77.3172 37.2432C91.7408 37.2432 93.418 37.2432 93.418 29.3583C93.418 23.151 91.5731 22.6478 84.0259 22.48L75.1369 22.3122C71.1117 22.1445 70.944 21.8089 70.944 19.9635C70.944 18.1182 71.4471 18.1182 81.1747 18.1182C83.0196 18.1182 88.8896 18.2859 92.0763 18.2859C92.1443 18.294 92.2133 18.2866 92.278 18.2641C92.3427 18.2417 92.4015 18.2049 92.4499 18.1564C92.4984 18.108 92.5352 18.0492 92.5576 17.9844C92.5801 17.9197 92.5875 17.8507 92.5794 17.7826V13.7563C92.5875 13.6883 92.5801 13.6193 92.5576 13.5545C92.5352 13.4898 92.4984 13.431 92.4499 13.3825C92.4015 13.3341 92.3427 13.2972 92.278 13.2748C92.2133 13.2524 92.1443 13.2449 92.0763 13.253C89.0574 13.0853 84.0259 12.9175 80.3361 12.9175C66.2479 12.9175 63.8999 13.253 63.8999 20.4668C63.8999 26.6741 65.2416 27.5129 74.2983 27.8484L82.3487 28.1839C86.2062 28.3517 86.2062 28.855 86.2062 30.1971C86.2062 32.2103 86.0385 32.2103 76.9818 32.2103C72.7889 32.2103 68.4282 32.0425 64.5708 31.8747C64.5027 31.8666 64.4338 31.8741 64.369 31.8965C64.3043 31.9189 64.2455 31.9558 64.1971 32.0042C64.1486 32.0527 64.1118 32.1115 64.0894 32.1762C64.067 32.241 64.0595 32.31 64.0676 32.378V36.5721C64.403 36.7399 64.5708 36.9076 64.7385 36.9076ZM217.193 28.1839H206.627L211.49 18.6214H212.329L217.193 28.1839ZM186.333 24.8287V25.1642C186.333 31.2037 185.83 31.5392 177.947 31.5392H171.406V18.6214H177.947C185.83 18.6214 186.333 18.7892 186.333 24.8287ZM152.119 24.8287V25.1642C152.119 31.8747 151.783 31.8747 144.068 31.8747C136.353 31.8747 136.018 31.707 136.018 25.1642V24.8287C136.018 18.1182 136.353 18.1182 144.068 18.1182C151.783 18.1182 152.119 18.1182 152.119 24.8287ZM228.933 36.4043L217.528 13.5885C217.36 13.253 217.193 13.253 217.025 13.253H206.962C206.627 13.253 206.459 13.4208 206.459 13.5885L195.054 36.4043C194.886 36.7399 195.054 37.0754 195.39 37.0754H201.931C202.266 37.0754 202.434 36.9076 202.434 36.7399L204.111 33.3846H219.708L221.386 36.7399C221.553 37.0754 221.721 37.0754 221.889 37.0754H228.43C228.933 36.9076 229.101 36.7399 228.933 36.4043V36.4043ZM177.947 13.0853H164.697C164.629 13.0772 164.56 13.0846 164.496 13.107C164.431 13.1295 164.372 13.1663 164.324 13.2148C164.275 13.2632 164.239 13.322 164.216 13.3868C164.194 13.4515 164.186 13.5205 164.194 13.5885V36.4043C164.186 36.4724 164.194 36.5414 164.216 36.6061C164.239 36.6709 164.275 36.7297 164.324 36.7781C164.372 36.8266 164.431 36.8634 164.496 36.8858C164.56 36.9083 164.629 36.9157 164.697 36.9076H177.947C192.035 36.9076 193.88 36.2366 193.88 25.1642V24.9964C193.88 13.7563 192.035 13.0853 177.947 13.0853V13.0853ZM126.794 36.4043L113.712 23.4866L126.123 13.7563C126.458 13.4208 126.29 13.0853 125.955 13.0853H117.905C117.67 13.0783 117.438 13.1363 117.234 13.253L104.655 23.3188V13.5885C104.663 13.5205 104.656 13.4515 104.633 13.3868C104.611 13.322 104.574 13.2632 104.526 13.2148C104.477 13.1663 104.418 13.1295 104.354 13.107C104.289 13.0846 104.22 13.0772 104.152 13.0853H97.9463C97.8783 13.0772 97.8093 13.0846 97.7446 13.107C97.6799 13.1295 97.6211 13.1663 97.5726 13.2148C97.5242 13.2632 97.4874 13.322 97.465 13.3868C97.4425 13.4515 97.4351 13.5205 97.4432 13.5885V36.4043C97.4351 36.4724 97.4425 36.5414 97.465 36.6061C97.4874 36.6709 97.5242 36.7297 97.5726 36.7781C97.6211 36.8266 97.6799 36.8634 97.7446 36.8858C97.8093 36.9083 97.8783 36.9157 97.9463 36.9076H104.152C104.22 36.9157 104.289 36.9083 104.354 36.8858C104.418 36.8634 104.477 36.8266 104.526 36.7781C104.574 36.7297 104.611 36.6709 104.633 36.6061C104.656 36.5414 104.663 36.4724 104.655 36.4043V30.7004L108.345 27.6807L117.401 36.5721C117.481 36.6744 117.583 36.7576 117.699 36.8157C117.815 36.8737 117.943 36.9051 118.072 36.9076H126.794C127.129 36.9076 127.129 36.5721 126.794 36.4043ZM128.303 24.8287V25.1642C128.303 36.7399 130.148 37.4109 144.068 37.4109C157.989 37.4109 159.834 36.7399 159.834 25.1642V24.8287C159.834 13.253 157.989 12.582 144.068 12.582C130.148 12.582 128.303 13.4208 128.303 24.8287V24.8287ZM72.6212 7.54907L75.6401 10.9043C75.7199 11.0067 75.8215 11.0899 75.9376 11.1479C76.0536 11.206 76.1812 11.2374 76.3109 11.2399H82.6841C83.0196 11.2399 83.1873 11.2399 83.355 10.9043L86.3739 7.54907C86.7093 7.21355 86.5416 6.87802 86.0385 6.87802H81.8456C81.7158 6.88051 81.5883 6.91191 81.4722 6.96996C81.3562 7.028 81.2545 7.11122 81.1747 7.21355L79.833 9.05894H78.9944L77.6527 7.21355C77.5728 7.11122 77.4712 7.028 77.3551 6.96996C77.2391 6.91191 77.1115 6.88051 76.9818 6.87802H72.7889C72.4534 7.04578 72.2857 7.38131 72.6212 7.54907" fill="white"/>
</svg>
