<svg width="280" height="60" viewBox="0 0 280 60" fill="none" xmlns="http://www.w3.org/2000/svg">
<path d="M30.113 8.15427V3.85675C30.113 1.70799 28.3633 0 26.2308 0C24.0983 0 22.4032 1.76309 22.4032 3.85675V8.09917C9.93616 9.97245 0.3125 20.7713 0.3125 33.8292C0.3125 48.1543 11.9046 59.8347 26.1214 59.8347C40.3382 59.8347 51.9303 48.1543 51.9303 33.8292C51.8756 20.8815 42.416 10.1377 30.113 8.15427ZM26.1214 55.0964C14.4746 55.0964 5.01497 45.5647 5.01497 33.8292C5.01497 23.416 12.5061 14.7107 22.4032 12.9477V17.5758C22.4032 18.843 23.0047 20 23.9342 20.7163V24.6281H15.2401C14.2559 24.6281 13.3263 25.124 12.7795 26.0055C12.2874 26.8871 12.2327 27.9339 12.7248 28.8154L23.7155 49.9174C24.2076 50.854 25.1919 51.4601 26.2308 51.4601C27.3244 51.4601 28.2539 50.854 28.746 49.9174L39.7367 28.8154C40.1741 27.9339 40.1741 26.832 39.6273 26.0055C39.1352 25.1791 38.2057 24.6281 37.2214 24.6281H28.5273V20.7163C29.5116 20 30.113 18.843 30.113 17.5758V12.9477C39.8461 14.876 47.1732 23.5262 47.1732 33.8292C47.1732 45.5647 37.7136 55.0964 26.1214 55.0964ZM182.834 46.0055H174.359V35.7025H181.576V26.6667H174.359V17.7961H182.014V8.31956H162.821V55.4821H182.834V46.0055ZM95.5649 17.741H99.1738V55.427H110.657V8.31956H84.0821V55.427H95.5649V17.741ZM80.2545 46.0606H71.7245V35.7025H78.9969V26.6667H71.7245V17.6859H79.5437V8.31956H60.0776V55.427H80.2545V46.0606ZM198.144 35.7576H201.699V55.4821H213.236V8.37466H201.699V25.2893H198.144V8.37466H186.662V55.4821H198.144V35.7576ZM223.844 55.4821H235.327V17.7961H242.216V8.37466H217.009V17.7961H223.844V55.4821ZM125.967 8.31956H114.484V55.427H125.967V8.31956ZM159.048 46.0055H156.588V8.31956H144.996V46.0055H141.387V8.31956H129.795V55.3719H151.01V60H159.048V46.0055ZM270.431 14.9862C270.158 13.5537 269.556 12.3967 268.736 11.405C267.861 10.4132 266.604 9.64187 264.909 9.14601C263.213 8.59504 260.808 8.37466 257.691 8.37466H246.044V55.4821H257.527V36.4738H260.644C263.159 36.4738 265.237 36.0882 266.768 35.3719C268.353 34.6556 269.392 33.5537 269.994 32.1763C270.595 30.7989 270.869 28.595 270.869 25.6198V21.4876C270.869 18.5675 270.705 16.3636 270.431 14.9862ZM258.675 27.4931C255.34 27.4931 252.606 24.7383 252.606 21.3774C252.606 18.0165 255.34 15.2617 258.675 15.2617C262.01 15.2617 264.745 18.0165 264.745 21.3774C264.745 24.7934 262.01 27.4931 258.675 27.4931Z" fill="white"/>
<path d="M258.675 16.7491C256.105 16.7491 254.027 18.8428 254.027 21.3772C254.027 23.9667 256.105 26.0053 258.675 26.0053C261.245 26.0053 263.322 23.9116 263.322 21.3772C263.268 18.8428 261.19 16.7491 258.675 16.7491ZM259.495 24.4626L258.183 21.9282V24.4626H256.269V18.402H258.183V20.9915L259.44 18.402H261.682L260.042 21.4323L261.901 24.5177L259.495 24.4626Z" fill="white"/>
<path d="M278.195 13.4987L277.594 12.507C277.484 12.3417 277.375 12.1764 277.211 12.0662C277.375 12.0111 277.539 11.9009 277.648 11.7907C277.867 11.5703 277.922 11.2948 277.922 11.0194C277.922 10.799 277.867 10.5786 277.758 10.3582C277.648 10.1378 277.484 10.0276 277.266 9.91743C277.047 9.86233 276.828 9.80724 276.446 9.80724H274.641V13.8293H275.571V12.2315H276.117C276.172 12.2315 276.227 12.2866 276.282 12.2866C276.336 12.2866 276.391 12.3417 276.446 12.4519C276.555 12.5621 276.664 12.7273 276.774 12.9477L277.266 13.664L277.32 13.7742H278.414L278.195 13.4987ZM276.992 11.2397C276.938 11.2948 276.883 11.3499 276.828 11.3499C276.719 11.405 276.61 11.405 276.391 11.405H275.571V10.6337H276.5C276.719 10.6337 276.883 10.6888 276.938 10.7439C276.992 10.799 277.047 10.9092 277.047 11.0194C277.047 11.0745 276.992 11.1296 276.992 11.2397Z" fill="white"/>
<path d="M279.234 11.8458C279.234 13.4436 277.922 14.7659 276.336 14.7659C274.751 14.7659 273.438 13.4436 273.438 11.8458C273.438 10.248 274.751 8.92572 276.336 8.92572C277.922 8.87063 279.234 10.1929 279.234 11.8458ZM276.336 8.15437C274.313 8.15437 272.673 9.80727 272.673 11.8458C272.673 13.8844 274.313 15.5373 276.336 15.5373C278.36 15.5373 280 13.8844 280 11.8458C280 9.80727 278.305 8.15437 276.336 8.15437Z" fill="white"/>
</svg>
