<svg width="50" height="50" viewBox="0 0 50 50" fill="none" xmlns="http://www.w3.org/2000/svg">
<path d="M17 32.5093L33 16.7563" stroke="black" stroke-width="2" stroke-linecap="round" stroke-linejoin="round"/>
<path d="M18.3334 19.3828C19.0698 19.3828 19.6667 18.7949 19.6667 18.0696C19.6667 17.3443 19.0698 16.7563 18.3334 16.7563C17.597 16.7563 17 17.3443 17 18.0696C17 18.7949 17.597 19.3828 18.3334 19.3828Z" fill="black" stroke="black" stroke-width="2" stroke-linecap="round" stroke-linejoin="round"/>
<path d="M31.6674 32.5093C32.4038 32.5093 33.0007 31.9219 33.0007 31.1973C33.0007 30.4727 32.4038 29.8853 31.6674 29.8853C30.931 29.8853 30.334 30.4727 30.334 31.1973C30.334 31.9219 30.931 32.5093 31.6674 32.5093Z" fill="black" stroke="black" stroke-width="2" stroke-linecap="round" stroke-linejoin="round"/>
<path d="M25 48.2651C38.2548 48.2651 49 37.6845 49 24.6326C49 11.5807 38.2548 1 25 1C11.7452 1 1 11.5807 1 24.6326C1 37.6845 11.7452 48.2651 25 48.2651Z" stroke="black" stroke-width="2" stroke-linecap="round" stroke-linejoin="round"/>
</svg>
