<svg width="47" height="47" viewBox="0 0 47 47" fill="none" xmlns="http://www.w3.org/2000/svg">
<path d="M43.5286 7.47713C40.1663 7.47713 37.4309 4.74168 37.4309 1.37952V0H9.56991V1.37952C9.56991 4.74186 6.83445 7.47713 3.4723 7.47713H2.09277V16.6511C2.09277 23.2435 4.07862 29.5914 7.83586 35.0083C11.5931 40.4251 16.8427 44.5094 23.0171 46.8192L23.5004 47L23.9839 46.8192C30.1584 44.5094 35.408 40.4252 39.165 35.0083C42.9223 29.5914 44.9081 23.2435 44.9081 16.6511V7.47713H43.5286ZM42.1492 16.6511H42.1491C42.1491 22.6789 40.3332 28.4828 36.8978 33.4357C33.5611 38.2466 28.9366 41.9079 23.5004 44.0493C18.0642 41.9078 13.4396 38.2466 10.1029 33.4357C6.66756 28.4829 4.85182 22.6789 4.85182 16.6511V10.129C8.63293 9.53503 11.6278 6.54016 12.2217 2.75905H34.7793C35.3731 6.54016 38.368 9.53503 42.1492 10.129V16.6511Z" fill="#11192E"/>
<path d="M29.6556 12.9603L20.5239 22.092L17.344 18.9121L11.4912 24.765L20.5239 33.7977L35.5084 18.8131L29.6556 12.9603ZM15.3931 24.7652L17.3441 22.8142L20.524 25.9941L29.6557 16.8624L31.6067 18.8133L20.524 29.896L15.3931 24.7652Z" fill="#11192E"/>
</svg>
