<svg width="60" height="39" fill="none" xmlns="http://www.w3.org/2000/svg"><path d="M57.243 21.53A1.639 1.639 0 0156 19.938V16c0-3.309-2.691-6-6-6H40V1a1 1 0 00-1-1H1a1 1 0 00-1 1v30a1 1 0 001 1h7.092A5.97 5.97 0 008 33c0 3.309 2.691 6 6 6s6-2.691 6-6c0-.337-.036-.67-.092-1h23.184A5.97 5.97 0 0043 33c0 3.309 2.691 6 6 6s6-2.691 6-6c0-.337-.036-.67-.092-1H59a1 1 0 001-1v-5.938a3.635 3.635 0 00-2.757-3.532zM54.005 20H44v-4h10v3.938c0 .021.005.041.005.062zM2 2h36v24H2V2zm16 31c0 2.206-1.794 4-4 4s-4-1.794-4-4c0-.339.059-.672.145-1h1.039A2.966 2.966 0 0011 33c0 1.654 1.346 3 3 3s3-1.346 3-3c0-.352-.072-.686-.184-1h1.039c.086.328.145.661.145 1zm-3 0c0 .551-.449 1-1 1-.551 0-1-.449-1-1 0-.551.449-1 1-1 .551 0 1 .449 1 1zm38 0c0 2.206-1.794 4-4 4s-4-1.794-4-4c0-.339.059-.672.145-1h1.039A2.966 2.966 0 0046 33c0 1.654 1.346 3 3 3s3-1.346 3-3c0-.352-.072-.686-.184-1h1.039c.086.328.145.661.145 1zm-3 0c0 .551-.449 1-1 1-.551 0-1-.449-1-1 0-.551.449-1 1-1 .551 0 1 .449 1 1zm8-3H2v-2h37a1 1 0 001-1V12h10c1.474 0 2.75.81 3.444 2H43a1 1 0 00-1 1v6a1 1 0 001 1h11.652c.49.71 1.22 1.249 2.105 1.47A1.639 1.639 0 0158 25.062V30z" fill="#050A19"/><path d="M46 24h-3v2h3v-2zM28.651 6.241a1 1 0 00-1.302 0l-7 6a1 1 0 00.651 1.76v7a1 1 0 001 1h12a1 1 0 001-1v-7a1 1 0 00.651-1.759l-7-6zm-.65 2.076L32.296 12h-8.594L28 8.317zM29 20h-2v-1c0-.55.448-1 1-1 .55 0 1 .45 1 1v1zm4 0h-2v-1c0-1.654-1.347-3-3-3-1.655 0-3 1.346-3 3v1h-2v-6h10v6z" fill="#050A19"/><path d="M6 19c0-.551.449-1 1-1h7c1.654 0 3-1.346 3-3s-1.346-3-3-3h-3c-.551 0-1-.449-1-1 0-.551.449-1 1-1h11V8H11c-1.654 0-3 1.346-3 3s1.346 3 3 3h3c.551 0 1 .449 1 1 0 .551-.449 1-1 1H7c-1.654 0-3 1.346-3 3s1.346 3 3 3h13v-2H7c-.551 0-1-.449-1-1z" fill="#050A19"/></svg>