<svg width="52" height="52" fill="none" xmlns="http://www.w3.org/2000/svg"><path d="M51.35 46.693h-1.401V28.05h1.36a.65.65 0 00.65-.65v-3.966a.65.65 0 00-.65-.65H35.945v-.267c0-4.49-3.26-8.287-7.152-8.39v-2.014c1.5-1.012 2.56-2.696 2.811-4.656.002-.01.008-.018.01-.027 0-.01-.003-.019-.002-.028.033-.275.056-.554.056-.84C31.668 2.944 28.916 0 25.533 0 22.151 0 19.4 2.944 19.4 6.562c0 2.339 1.151 4.389 2.877 5.552v2.012c-3.893.105-7.153 3.902-7.153 8.393v.264H.65a.65.65 0 00-.649.65v3.966c0 .36.291.65.65.65h1.44v18.643H.69a.65.65 0 00-.65.65v3.968c0 .359.292.65.65.65h50.66a.65.65 0 00.65-.65v-3.968a.65.65 0 00-.65-.649zM30.365 6.485c-1.133-.49-1.991-1.619-2.295-2.06a8.07 8.07 0 001.12-1.297 5.513 5.513 0 011.175 3.357zM25.534 1.3a4.54 4.54 0 012.71.907c-1.842 2.898-6.041 3.934-7.539 4.217.07-2.838 2.207-5.124 4.83-5.124zm-4.712 6.425c1.128-.198 3.941-.826 6.246-2.468.462.655 1.596 2.044 3.158 2.56-.518 2.298-2.422 4.01-4.691 4.01-2.3.001-4.226-1.757-4.713-4.102zm4.712 5.402c.687 0 1.345-.127 1.961-.35v1.602a3.752 3.752 0 01-3.92-.002v-1.599a5.745 5.745 0 001.96.35zm-9.11 9.394c0-3.784 2.812-7.104 6.016-7.104h.348l.073.044c.826.513 1.751.77 2.677.77.934 0 1.867-.261 2.698-.783l.05-.031h.347c3.204 0 6.014 3.317 6.014 7.1v.267H16.423v-.263zM1.299 24.082H50.66v2.668H1.3v-2.668zm2.09 3.968h45.26v18.643H3.39V28.05zM50.7 50.66H1.34v-2.668H50.7v2.668z" fill="#050A19"/><path d="M26.02 30.31a5.276 5.276 0 00-5.27 5.27c0 3.864 4.604 8.739 4.8 8.944a.65.65 0 00.47.202h.007a.65.65 0 00.473-.21c.195-.214 4.79-5.27 4.79-8.936a5.277 5.277 0 00-5.27-5.27zm-.008 12.786c-1.149-1.323-3.964-4.84-3.964-7.516a3.976 3.976 0 013.971-3.97 3.976 3.976 0 013.971 3.97c0 2.536-2.833 6.157-3.978 7.516z" fill="#050A19"/><path d="M26.02 33.048a2.623 2.623 0 00-2.62 2.62 2.623 2.623 0 002.62 2.619 2.623 2.623 0 002.62-2.62 2.623 2.623 0 00-2.62-2.619zm0 3.94c-.728 0-1.32-.592-1.32-1.32 0-.728.592-1.32 1.32-1.32.728 0 1.32.592 1.32 1.32 0 .728-.592 1.32-1.32 1.32z" fill="#050A19"/></svg>