<svg width="48" height="48" fill="none" xmlns="http://www.w3.org/2000/svg"><path d="M34.398 0a13.606 13.606 0 00-12.05 7.32A11.191 11.191 0 003.2 15.2v1.6a.8.8 0 00.8.8.846.846 0 00.098-.016 12.727 12.727 0 004.491 8.311c.07.057.141.106.21.16v2.967L2.148 31.24a.8.8 0 00-.543.675l-1.6 15.2a.8.8 0 00.796.882H28a.8.8 0 00.796-.88l-1.6-15.199a.8.8 0 00-.543-.675L20 29.023v-2.968c.07-.054.142-.103.21-.16a12.759 12.759 0 003.288-4.201A13.599 13.599 0 0032 26.974v1.824h-1.6a.8.8 0 00-.8.8v3.2a.8.8 0 00.8.8v10.4a4 4 0 108 0v-10.4a.8.8 0 00.8-.8v-3.2a.8.8 0 00-.8-.8h-1.6v-1.824A13.593 13.593 0 0034.398 0zM4.8 15.2a9.58 9.58 0 0116.842-6.268 13.2 13.2 0 00-.75 6.196 4 4 0 01-3.293-3.929.8.8 0 00-.973-.781l-.48.107A34.407 34.407 0 004.8 15.285v-.086zm11.148 27.118l-1.548 3.09-1.548-3.09 1.548-5.68 1.547 5.68zm2.451-8.23l-1.914-.64 1.914-.955v1.595zm-8 0v-1.595l1.915.96-1.914.635zm-7.257-1.494L8.8 30.708v15.69H1.689l1.453-13.804zm7.258 3.18l2.835-.945-2.007 7.36a.806.806 0 00.056.568l1.821 3.64H10.4V35.776zm5.294 10.623l1.825-3.642a.806.806 0 00.056-.568l-2.007-7.36 2.831.948v10.623h-2.705zm9.963-13.803l1.453 13.803H20v-15.69l5.657 1.887zm-7.258-1.89l-4 2-4-2v-3.642a9.014 9.014 0 008 0v3.642zm.786-6.038a7.472 7.472 0 01-9.57 0 11.12 11.12 0 01-3.978-8.01 32.799 32.799 0 0110.448-4.476 5.609 5.609 0 005.105 4.6 13.502 13.502 0 001.26 3.308 11.154 11.154 0 01-3.265 4.578zm17.613 19.332a2.4 2.4 0 01-4.8 0v-10.4h4.8v10.4zm.8-12h-6.4v-1.6h6.4v1.6zm-2.4-3.2h-1.6v-1.64c.267.016.53.04.8.04s.534-.024.8-.04v1.64zm-.8-3.2a12 12 0 1112-11.999 12.013 12.013 0 01-12 12z" fill="#050A19"/><path d="M34.398 3.2a10.4 10.4 0 1010.4 10.399 10.411 10.411 0 00-10.4-10.4zm0 19.198a8.8 8.8 0 118.8-8.799 8.81 8.81 0 01-8.8 8.8z" fill="#050A19"/><path d="M38.633 9.365a6 6 0 010 8.469l1.131 1.13a7.6 7.6 0 000-10.73l-1.131 1.131zm-.593 9.118l-1.6.8.716 1.431 1.6-.8-.716-1.43z" fill="#050A19"/></svg>