<svg width="60" height="53" fill="none" xmlns="http://www.w3.org/2000/svg"><path d="M46.649 31.063l-8 3A1 1 0 0038 35a13.06 13.06 0 005.2 10.4l3.2 2.4a1 1 0 001.2 0l3.2-2.4A13.059 13.059 0 0056 35a1 1 0 00-.649-.937l-8-3a1.01 1.01 0 00-.702 0zm7.33 4.622A11.063 11.063 0 0149.6 43.8L47 45.75l-2.6-1.95a11.063 11.063 0 01-4.379-8.115L47 33.068l6.979 2.617z" fill="#050A19"/><path d="M59.383.076A.98.98 0 0059 .008V0H9a1 1 0 00-.707.293l-8 8A.994.994 0 000 9v36a1 1 0 001 1h37.528a20.84 20.84 0 003.872 3.8l4 3a1 1 0 001.2 0l4-3A21.1 21.1 0 0060 33V1a.999.999 0 00-.617-.924zM23 10h6v8h-6v-8zm1.414-2l6-6h5.172l-6 6h-5.172zm14-6h18.172l-6 6H32.414l6-6zM52 9.414l6-6V31.5L52 29V9.414zM9.414 2h18.172l-6 6H3.414l6-6zM2 44V10h19v9a1 1 0 001 1h8a1 1 0 001-1v-9h19v18.167l-2.615-1.09a1 1 0 00-.77 0l-12 5A1 1 0 0034 33a21.05 21.05 0 003.135 11H2zm48.4 4.2L47 50.75l-3.4-2.55a19.1 19.1 0 01-7.588-14.538L47 29.083l10.988 4.579A19.1 19.1 0 0150.4 48.2z" fill="#050A19"/><path d="M24 34h-4a1 1 0 00-1 1v1a3 3 0 002 2.816V40h-2v2h6v-2h-2v-1.184A3 3 0 0025 36v-1a1 1 0 00-1-1zm-2 3a1 1 0 01-1-1h2a1 1 0 01-1 1zm-9.447-2.9l-2 1 .894 1.79.553-.272V42h2v-5.382l.553.277.894-1.79-2-1a1 1 0 00-.894-.005zm-6 0l-2 1 .894 1.79.553-.272V42h2v-5.382l.553.277.894-1.79-2-1a1 1 0 00-.894-.005z" fill="#050A19"/></svg>