<svg width="60" height="48" fill="none" xmlns="http://www.w3.org/2000/svg"><path d="M59 33V20a1 1 0 00-1-1H26a1 1 0 00-1 1v13h-1V15a1 1 0 00-1-1H12v2h10v26a1 1 0 001 1h.09a5.993 5.993 0 0011.82 0h11.18a5.993 5.993 0 0011.82 0H59a1 1 0 001-1v-8a1 1 0 00-1-1zm-2 0H41V21h16v12zM27 21h12v12H27V21zm2 25a4 4 0 01-3.858-3H28v1h2v-1h2.858A4 4 0 0129 46zm23 0a4 4 0 01-3.858-3H51v1h2v-1h2.858A4 4 0 0152 46zm6-5H24v-6h34v6z" fill="#050A19"/><path d="M16 21H7a1 1 0 00-1 1v5a1 1 0 001 1h9a1 1 0 001-1v-5a1 1 0 00-1-1zm-1 5H8v-3h7v3zm2 3h-4v2h4v-2z" fill="#050A19"/><path d="M10 48a6.006 6.006 0 005.91-5H20a1 1 0 001-1V18a1 1 0 00-1-1H6a3 3 0 00-3 3v8.634L.485 30.143A1 1 0 000 31v11a1 1 0 001 1h3.09A6.006 6.006 0 0010 48zm0-2a4 4 0 01-3.858-3H9v1h2v-1h2.858A4 4 0 0110 46zM2 31.566l2.515-1.508A1 1 0 005 29.2V20a1 1 0 011-1h13v22H2v-9.434zM38 0h-8a1 1 0 00-1 1v5h-2a1 1 0 00-.65 1.759l7 6a1 1 0 001.3 0l7-6A1 1 0 0041 6h-2V1a1 1 0 00-1-1zm-4 11.683L29.7 8h.3a1 1 0 001-1V2h6v5a1 1 0 001 1h.3L34 11.683zM56 0h-8a1 1 0 00-1 1v5h-2a1 1 0 00-.65 1.759l7 6a1 1 0 001.3 0l7-6A1 1 0 0059 6h-2V1a1 1 0 00-1-1zm-4 11.683L47.7 8h.3a1 1 0 001-1V2h6v5a1 1 0 001 1h.3L52 11.683zM57 38H25v2h32v-2z" fill="#050A19"/></svg>