<svg width="16" height="11" fill="none" xmlns="http://www.w3.org/2000/svg"><path d="M1.17 0C.94 0 .73.07.55.183l6.927 5.86a.8.8 0 001.06 0l6.915-5.86A1.16 1.16 0 0014.83 0H1.171zM.068.787A1.17 1.17 0 000 1.17v7.805c0 .235.07.45.189.634L5.146 5.09.067.787zm15.866 0l-5.067 4.298L15.81 9.61c.118-.183.189-.4.189-.634V1.17a1.16 1.16 0 00-.067-.384zm-5.665 4.81L9.037 6.64a1.6 1.6 0 01-2.067 0L5.744 5.604.824 10.09c.11.035.225.055.347.055h13.658c.122 0 .238-.02.348-.055l-4.909-4.493z" fill="#10172C"/></svg>