<svg width="95" height="69" fill="none" xmlns="http://www.w3.org/2000/svg"><path d="M31.64 32.8c2.4 1.6 4.267 3.733 5.6 6.4 1.467 2.533 2.2 5.4 2.2 8.6 0 6.133-2 11.133-6 15-4 3.867-8.933 5.8-14.8 5.8-5.333 0-9.733-1.667-13.2-5-3.333-3.333-5-7.667-5-13 0-2.8.467-5.467 1.4-8 1.067-2.533 2.867-5.8 5.4-9.8l20-32.2h19.6l-15.2 32.2zm47.2 0c2.4 1.6 4.267 3.733 5.6 6.4 1.467 2.533 2.2 5.4 2.2 8.6 0 6.133-2 11.133-6 15-4 3.867-8.933 5.8-14.8 5.8-5.333 0-9.733-1.667-13.2-5-3.333-3.333-5-7.667-5-13 0-2.8.467-5.467 1.4-8 1.067-2.533 2.867-5.8 5.4-9.8l20-32.2h19.6l-15.2 32.2z" fill="#CB454D"/></svg>