<svg width="15" height="15" fill="none" xmlns="http://www.w3.org/2000/svg"><path d="M7.502 0h-.004C3.363 0 0 3.364 0 7.5c0 1.64.529 3.161 1.428 4.396l-.935 2.786 2.883-.921A7.435 7.435 0 007.502 15C11.637 15 15 11.635 15 7.5S11.637 0 7.502 0zm4.364 10.59c-.181.512-.9.936-1.472 1.06-.392.083-.904.15-2.627-.565-2.204-.913-3.623-3.153-3.734-3.298-.106-.145-.89-1.186-.89-2.262 0-1.077.546-1.6.766-1.826.181-.184.48-.269.767-.269.093 0 .176.005.252.009.22.01.33.022.476.37.18.436.621 1.512.674 1.623.053.11.107.26.032.406-.07.15-.133.216-.243.344-.11.127-.216.225-.326.362-.102.119-.216.246-.089.467.128.215.569.934 1.217 1.512.838.745 1.516.983 1.76 1.085.18.074.396.057.528-.084.168-.18.375-.48.586-.776.15-.212.34-.238.538-.163.202.07 1.274.6 1.494.71.22.11.366.162.42.255.052.093.052.53-.13 1.04z" fill="#fff"/></svg>