<svg width="45" height="52" fill="none" xmlns="http://www.w3.org/2000/svg"><path d="M2.001 45.5H25.81c1.094 0 1.985-1.094 1.985-2.438V12.189c0-.038-.013-.07-.017-.106a.825.825 0 00-.017-.1.861.861 0 00-.162-.37L18.335.24a.627.627 0 00-.383-.22c-.027-.004-.054-.02-.084-.02H1.993C.895 0 0 1.094 0 2.438v40.624C0 44.407.897 45.5 2.001 45.5zM18.53 2.774l7.006 8.601H19.19a.607.607 0 01-.468-.238.915.915 0 01-.194-.575V2.774zM1.324 2.437c0-.448.3-.812.67-.812h15.212v8.938c0 1.343.89 2.437 1.985 2.437h7.28v30.063c0 .215-.07.422-.194.574a.607.607 0 01-.468.238H2a.562.562 0 01-.257-.059.676.676 0 01-.219-.175.85.85 0 01-.147-.265.984.984 0 01-.054-.313V2.437z" fill="#11192E"/><path d="M5.956 19.5h15.882a.606.606 0 00.468-.238.915.915 0 00.194-.575.915.915 0 00-.194-.574.606.606 0 00-.468-.238H5.956a.607.607 0 00-.468.238.915.915 0 00-.194.575c0 .215.07.422.194.574a.607.607 0 00.468.238zm0 6.5h15.882a.606.606 0 00.468-.238.915.915 0 00.194-.575.915.915 0 00-.194-.574.606.606 0 00-.468-.238H5.956a.607.607 0 00-.468.238.915.915 0 00-.194.575c0 .215.07.422.194.574a.607.607 0 00.468.238zm0-13h6.617a.606.606 0 00.468-.238.915.915 0 00.194-.575.915.915 0 00-.194-.574.606.606 0 00-.468-.238H5.956a.607.607 0 00-.468.238.915.915 0 00-.194.575c0 .215.07.422.194.574a.607.607 0 00.468.238zm0 19.5h15.882a.606.606 0 00.468-.238.915.915 0 00.194-.575.915.915 0 00-.194-.574.606.606 0 00-.468-.238H5.956a.607.607 0 00-.468.238.915.915 0 00-.194.575c0 .215.07.422.194.574a.607.607 0 00.468.238zm0 6.5h15.882a.606.606 0 00.468-.238.915.915 0 00.194-.575.915.915 0 00-.194-.574.606.606 0 00-.468-.238H5.956a.607.607 0 00-.468.238.915.915 0 00-.194.575c0 .215.07.422.194.574a.607.607 0 00.468.238z" fill="#11192E"/><path d="M28.456 8.125h5.956v8.938c0 1.343.89 2.437 1.985 2.437h7.28v30.063c0 .215-.07.422-.194.574a.606.606 0 01-.468.238H19.207a.562.562 0 01-.257-.059.677.677 0 01-.219-.175.85.85 0 01-.147-.265.984.984 0 01-.054-.313v-1.626a.915.915 0 00-.194-.574.607.607 0 00-.468-.238.606.606 0 00-.468.238.915.915 0 00-.194.575v1.624c0 1.344.897 2.438 2.001 2.438h23.808C44.109 52 45 50.906 45 49.562V18.689c0-.038-.013-.07-.017-.106a.845.845 0 00-.017-.1.863.863 0 00-.162-.37L35.541 6.74a.606.606 0 00-.383-.218c-.027-.005-.054-.021-.084-.021h-6.618a.607.607 0 00-.468.238.915.915 0 00-.194.574c0 .216.07.423.194.575a.607.607 0 00.468.238zm7.941 9.75a.606.606 0 01-.468-.238.915.915 0 01-.194-.575V9.274l7.006 8.601h-6.344z" fill="#11192E"/><path d="M31.103 26h7.941a.607.607 0 00.468-.238.915.915 0 00.194-.575.915.915 0 00-.194-.574.607.607 0 00-.468-.238h-7.94a.607.607 0 00-.469.238.915.915 0 00-.194.575c0 .215.07.422.194.574a.607.607 0 00.468.238zm0 6.5h7.941a.607.607 0 00.468-.238.915.915 0 00.194-.575.915.915 0 00-.194-.574.607.607 0 00-.468-.238h-7.94a.607.607 0 00-.469.238.915.915 0 00-.194.575c0 .215.07.422.194.574a.607.607 0 00.468.238zm0 6.5h7.941a.607.607 0 00.468-.238.915.915 0 00.194-.575.915.915 0 00-.194-.574.607.607 0 00-.468-.238h-7.94a.607.607 0 00-.469.238.915.915 0 00-.194.575c0 .215.07.422.194.574a.607.607 0 00.468.238zm0 6.5h7.941a.607.607 0 00.468-.238.915.915 0 00.194-.575.915.915 0 00-.194-.574.607.607 0 00-.468-.238h-7.94a.607.607 0 00-.469.238.915.915 0 00-.194.575c0 .215.07.422.194.574a.607.607 0 00.468.238z" fill="#11192E"/></svg>