<svg width="41" height="53" fill="none" xmlns="http://www.w3.org/2000/svg"><path d="M31.516 8.32H8.596a.917.917 0 00-.676.305c-.18.195-.28.46-.28.736v12.484c0 .276.1.54.28.736a.916.916 0 00.675.304h22.92c.254 0 .497-.11.676-.305.18-.195.28-.46.28-.735V9.36c0-.276-.1-.54-.28-.736a.917.917 0 00-.675-.304zm-.955 12.485H9.55V10.4h21.01v10.404zM37.246 0H2.866C2.105.001 1.376.33.84.915A3.272 3.272 0 000 3.121v45.775c0 .827.303 1.62.84 2.205a2.755 2.755 0 002.025.916h34.381a2.755 2.755 0 002.025-.916c.537-.585.84-1.378.84-2.205V3.12a3.27 3.27 0 00-.84-2.206A2.755 2.755 0 0037.246 0zm.955 48.896c0 .275-.101.54-.28.735a.918.918 0 01-.675.305H2.866a.918.918 0 01-.676-.305 1.09 1.09 0 01-.28-.735V3.12c0-.276.101-.54.28-.735a.918.918 0 01.675-.305h34.381c.253 0 .496.11.675.305.179.195.28.46.28.735v45.775zM21.966 31.208c0 .411-.112.814-.322 1.156-.21.342-.508.609-.857.766a1.766 1.766 0 01-1.104.119c-.37-.08-.71-.279-.978-.57a2.144 2.144 0 01-.523-1.065 2.254 2.254 0 01.109-1.202c.145-.38.39-.706.703-.934a1.8 1.8 0 011.061-.35c.507 0 .992.22 1.35.61.358.39.56.918.56 1.47zm0 10.403c0 .412-.112.814-.322 1.156-.21.342-.508.609-.857.766a1.765 1.765 0 01-1.104.119c-.37-.08-.71-.279-.978-.57a2.145 2.145 0 01-.523-1.065 2.253 2.253 0 01.109-1.202c.145-.38.39-.705.703-.934a1.8 1.8 0 011.061-.35c.507 0 .992.22 1.35.61.358.39.56.919.56 1.47zm-9.55-10.403c0 .411-.113.814-.323 1.156-.21.342-.508.609-.857.766a1.766 1.766 0 01-1.103.119 1.868 1.868 0 01-.978-.57 2.144 2.144 0 01-.523-1.065 2.254 2.254 0 01.109-1.202c.144-.38.389-.706.703-.934a1.8 1.8 0 011.061-.35c.507 0 .992.22 1.35.61.358.39.56.918.56 1.47zm0 10.403c0 .412-.113.814-.323 1.156-.21.342-.508.609-.857.766a1.765 1.765 0 01-1.103.119 1.868 1.868 0 01-.978-.57 2.144 2.144 0 01-.523-1.065 2.254 2.254 0 01.109-1.202c.144-.38.389-.705.703-.934a1.8 1.8 0 011.061-.35c.507 0 .992.22 1.35.61.358.39.56.919.56 1.47zm19.1-10.403c0 .411-.112.814-.322 1.156-.21.342-.508.609-.857.766a1.766 1.766 0 01-1.104.119c-.37-.08-.71-.279-.978-.57a2.144 2.144 0 01-.523-1.065 2.255 2.255 0 01.11-1.202c.144-.38.389-.706.703-.934a1.8 1.8 0 011.06-.35c.507 0 .993.22 1.35.61.359.39.56.918.56 1.47zm0 10.403c0 .412-.112.814-.322 1.156-.21.342-.508.609-.857.766a1.765 1.765 0 01-1.104.119c-.37-.08-.71-.279-.978-.57a2.145 2.145 0 01-.523-1.065 2.254 2.254 0 01.11-1.202c.144-.38.389-.705.703-.934a1.8 1.8 0 011.06-.35c.507 0 .993.22 1.35.61.359.39.56.919.56 1.47z" fill="#000"/></svg>