<svg width="50" height="50" fill="none" xmlns="http://www.w3.org/2000/svg"><path d="M17 32.51l16-15.754" stroke="#000" stroke-width="2" stroke-linecap="round" stroke-linejoin="round"/><path d="M18.333 19.383c.737 0 1.334-.588 1.334-1.313 0-.726-.597-1.314-1.334-1.314-.736 0-1.333.588-1.333 1.314 0 .725.597 1.313 1.333 1.313zM31.667 32.51c.737 0 1.334-.588 1.334-1.313 0-.724-.597-1.312-1.334-1.312-.736 0-1.333.588-1.333 1.312 0 .725.597 1.312 1.333 1.312z" fill="#000" stroke="#000" stroke-width="2" stroke-linecap="round" stroke-linejoin="round"/><path d="M25 48.265c13.255 0 24-10.58 24-23.632C49 11.58 38.255 1 25 1S1 11.58 1 24.633c0 13.052 10.745 23.632 24 23.632z" stroke="#000" stroke-width="2" stroke-linecap="round" stroke-linejoin="round"/></svg>