<svg width="47" height="47" fill="none" xmlns="http://www.w3.org/2000/svg"><path d="M43.529 7.477A6.105 6.105 0 0137.43 1.38V0H9.57v1.38a6.105 6.105 0 01-6.098 6.097h-1.38v9.174c0 6.593 1.987 12.94 5.744 18.357A32.066 32.066 0 0023.017 46.82l.483.18.484-.18a32.063 32.063 0 0015.181-11.812 32.063 32.063 0 005.743-18.357V7.477h-1.38zm-1.38 9.174a29.317 29.317 0 01-5.251 16.785A29.31 29.31 0 0123.5 44.049a29.311 29.311 0 01-13.397-10.613A29.317 29.317 0 014.852 16.65v-6.52a8.879 8.879 0 007.37-7.37h22.557a8.879 8.879 0 007.37 7.37v6.522z" fill="#11192E"/><path d="M29.656 12.96l-9.132 9.132-3.18-3.18-5.853 5.853 9.033 9.033 14.984-14.985-5.852-5.853zM15.393 24.765l1.951-1.95 3.18 3.18 9.132-9.133 1.95 1.951-11.082 11.083-5.13-5.13z" fill="#11192E"/></svg>