<svg width="51" height="44" fill="none" xmlns="http://www.w3.org/2000/svg"><path d="M19.097 0c-1.65 0-3.009 1.469-3.009 3.251v3.251H3.053c-1.65 0-3.009 1.469-3.009 3.251v9.415a1.196 1.196 0 000 .643v20.285c0 1.783 1.36 3.251 3.008 3.251h44.123c1.649 0 3.008-1.468 3.008-3.25V19.708a1.189 1.189 0 000-.44V9.753c0-1.782-1.36-3.25-3.008-3.25H34.139V3.25c0-1.78-1.36-3.25-3.009-3.25H19.097zm0 2.167H31.13c.564 0 1.003.474 1.003 1.084v3.251H18.094v-3.25c0-.61.439-1.085 1.003-1.085zM3.052 8.67h44.123c.564 0 1.002.475 1.002 1.084v8.67h-7.019c0-1.186-.909-2.168-2.006-2.168h-5.014c-1.096 0-2.005.982-2.005 2.168H18.094c0-1.186-.909-2.168-2.006-2.168h-5.013c-1.097 0-2.006.982-2.006 2.168H2.05v-8.67c0-.61.44-1.084 1.003-1.084zm8.023 9.754h5.014v.745a1.197 1.197 0 000 .643v.779h-5.014v-.88a1.189 1.189 0 000-.44v-.847zm23.064 0h5.013v.745a1.197 1.197 0 000 .643v.779h-5.014v-.88a1.185 1.185 0 000-.44v-.847zM2.048 20.59h7.02c0 1.185.909 2.167 2.006 2.167h5.014c1.096 0 2.005-.982 2.005-2.167h14.039c0 1.185.909 2.167 2.005 2.167h5.014c1.097 0 2.006-.982 2.006-2.167h7.02v19.506c0 .61-.44 1.084-1.003 1.084H3.052c-.564 0-1.002-.474-1.002-1.084V20.59z" fill="#11192E"/></svg>