<svg width="42" height="44" fill="none" xmlns="http://www.w3.org/2000/svg"><path d="M35.047.156H6.953A6.35 6.35 0 00.61 6.5v34.438a2.722 2.722 0 002.72 2.718h5.437a2.721 2.721 0 002.718-2.718v-4.532h19.032v4.532a2.722 2.722 0 002.718 2.718h5.438a2.721 2.721 0 002.719-2.718V6.5A6.35 6.35 0 0035.047.156zM2.422 34.594v-14.5h37.156v14.5H2.422zm0-25.375h37.156v9.062H2.422V9.22zm4.531-7.25h28.094A4.536 4.536 0 0139.578 6.5v.906H2.422V6.5a4.536 4.536 0 014.531-4.531zm2.719 38.968a.907.907 0 01-.906.907H3.328a.907.907 0 01-.906-.907v-4.53h7.25v4.53zm29 .907h-5.438a.907.907 0 01-.906-.907v-4.53h7.25v4.53a.907.907 0 01-.906.907zm-25.828-14.5a1.813 1.813 0 11-3.626 0 1.813 1.813 0 013.626 0zm19.937 0a1.813 1.813 0 11-3.625 0 1.813 1.813 0 013.625 0z" fill="#11192E"/></svg>