<svg width="55" height="54" fill="none" xmlns="http://www.w3.org/2000/svg"><path d="M53.886 11.09L43.025.254a.93.93 0 00-1.277 0l-5.11 5.099a.9.9 0 000 1.275l.638.637-.436.436a10.305 10.305 0 00-5.42 2.856l-2.774 2.774-1.555-1.552a9.575 9.575 0 00-6.808-2.813h-2.4l-1.012-1.01.638-.638a.9.9 0 000-1.275L12.4.941a.905.905 0 00-1.277 0L.264 11.777a.9.9 0 000 1.274l5.11 5.1a.905.905 0 001.277 0l.639-.638.437.436a10.285 10.285 0 002.862 5.409l6.524 6.506v4.38a9.528 9.528 0 002.82 6.792l1.696 1.694v1.43h-.903a.902.902 0 00-.903.9v7.212c0 .498.404.902.903.902h15.357a.902.902 0 00.903-.902v-7.211a.902.902 0 00-.903-.902h-.903v-.616a10.278 10.278 0 001.806-5.841v-5.454a2.654 2.654 0 001.559-.752l4.481-4.472a9.658 9.658 0 002.82-6.792v-2.394l1.013-1.012.639.639a.905.905 0 001.277 0l5.11-5.1a.9.9 0 000-1.275zM6.65 15.601l-.639.638-3.832-3.825 9.581-9.56 3.833 3.824-.638.636-8.305 8.287zm5.215 6.479a8.495 8.495 0 01-2.405-4.708.9.9 0 00-.254-.496l-.639-.637 3.513-3.506 3.513-3.506 1.278 1.275a.903.903 0 00.638.264h2.774a7.777 7.777 0 015.53 2.285l1.555 1.552-1.278 1.275-1.555-1.551a.906.906 0 00-1.279-.002.901.901 0 00-.002 1.276l1.555 1.552-3.516 3.508a2.663 2.663 0 00-.786 1.908 2.719 2.719 0 001.647 2.48 2.62 2.62 0 00-.31 1.892l-2.775-2.768a.905.905 0 00-1.277-.022.9.9 0 00-.022 1.274l.022.023 3.537 3.529c.167.167.26.394.257.63a.911.911 0 01-.909.902.777.777 0 01-.627-.256l-8.185-8.173zM35.18 51.37H21.63v-5.408h13.55v5.409zm0-13.668a8.49 8.49 0 01-1.636 5.027.9.9 0 00-.171.529v.901h-9.937v-1.803a.9.9 0 00-.265-.637l-1.96-1.958a7.744 7.744 0 01-2.292-5.517v-2.602c.486.426 1.11.663 1.756.668h.015a2.72 2.72 0 002.71-2.704 2.654 2.654 0 00-.145-.837c.342.181.72.286 1.106.307a2.707 2.707 0 002.552 2.553 2.716 2.716 0 002.693 2.564h.01a2.67 2.67 0 001.902-.785l2.681-2.68c.217.456.556.842.98 1.117v5.857zm9.123-20.876a.9.9 0 00-.264.638v2.768a7.85 7.85 0 01-2.291 5.518l-4.482 4.471a.879.879 0 01-.624.257.911.911 0 01-.903-.901.877.877 0 01.256-.631l.006-.005 4.477-4.467a.9.9 0 00-.023-1.275.905.905 0 00-1.255 0l-3.193 3.187-1.283 1.28-4.476 4.466a.88.88 0 01-.625.257.912.912 0 01-.903-.901.878.878 0 01.258-.631l5.759-5.747a.9.9 0 00-.022-1.274.905.905 0 00-1.255 0l-5.76 5.746a.878.878 0 01-.623.257.913.913 0 01-.904-.901.874.874 0 01.258-.631l5.76-5.747a.9.9 0 00-.001-1.275.905.905 0 00-1.278 0l-5.781 5.747a.874.874 0 01-.623.256h-.006a.912.912 0 01-.903-.901c0-.234.092-.46.257-.626l5.759-5.747a.901.901 0 00-.001-1.276.906.906 0 00-1.28.001l-3.89 3.883-.589.588a.882.882 0 01-.624.257.911.911 0 01-.903-.901.873.873 0 01.256-.631L32.711 11.83a8.529 8.529 0 014.717-2.402.904.904 0 00.497-.253l.639-.637 7.027 7.012-1.288 1.275zm3.832-1.274l-9.58-9.562 3.832-3.824 9.582 9.561-3.834 3.825z" fill="#11192E"/></svg>