<svg width="114" height="46" viewBox="0 0 114 46" fill="none" xmlns="http://www.w3.org/2000/svg">
<path d="M17.4428 19.9113L13.6765 14.4581H13.4533H9.51959V19.9113H5V0.335584H13.4533C15.183 0.335584 16.6802 0.624558 17.945 1.20251C19.2283 1.78046 20.2141 2.60078 20.9023 3.66346C21.5904 4.72614 21.9345 5.98458 21.9345 7.43878C21.9345 8.89298 21.5811 10.1514 20.8744 11.2141C20.1862 12.2581 19.2004 13.0598 17.9171 13.6191L22.2972 19.9113H17.4428ZM17.3591 7.43878C17.3591 6.33881 17.0057 5.49985 16.299 4.9219C15.5922 4.32531 14.5599 4.02701 13.2022 4.02701H9.51959V10.8506H13.2022C14.5599 10.8506 15.5922 10.5523 16.299 9.95566C17.0057 9.35907 17.3591 8.52011 17.3591 7.43878Z" fill="#CB454D"/>
<path d="M31.1262 4.64225C33.4511 4.64225 35.2366 5.20155 36.4828 6.32017C37.7289 7.42014 38.352 9.08874 38.352 11.326V19.9113H34.2788V18.0377C33.4604 19.4359 31.9353 20.1351 29.7034 20.1351C28.5503 20.1351 27.5459 19.9393 26.6904 19.5478C25.8534 19.1563 25.2117 18.6156 24.7653 17.9258C24.319 17.236 24.0958 16.4529 24.0958 15.5767C24.0958 14.1784 24.6166 13.0785 25.6581 12.2768C26.7183 11.4751 28.3457 11.0743 30.5404 11.0743H33.9998C33.9998 10.1235 33.7115 9.39636 33.135 8.89298C32.5584 8.37096 31.6935 8.10995 30.5404 8.10995C29.7406 8.10995 28.9501 8.24046 28.169 8.50147C27.4064 8.74383 26.7555 9.07942 26.2161 9.50822L24.6538 6.45999C25.4721 5.88204 26.4486 5.4346 27.5831 5.11766C28.7363 4.80072 29.9173 4.64225 31.1262 4.64225ZM30.7915 17.1987C31.5354 17.1987 32.1957 17.0309 32.7723 16.6953C33.3488 16.3411 33.758 15.8284 33.9998 15.1572V13.6191H31.0147C29.2291 13.6191 28.3364 14.2064 28.3364 15.3809C28.3364 15.9402 28.5503 16.3877 28.978 16.7233C29.4244 17.0402 30.0289 17.1987 30.7915 17.1987Z" fill="#CB454D"/>
<path d="M51.9718 19.1842C51.544 19.5012 51.0139 19.7435 50.3816 19.9113C49.7678 20.0605 49.1168 20.1351 48.4287 20.1351C46.6431 20.1351 45.2575 19.6783 44.2718 18.7647C43.3046 17.8512 42.821 16.5089 42.821 14.7377V8.5574H40.5054V5.20155H42.821V1.53809H47.1732V5.20155H50.9116V8.5574H47.1732V14.6818C47.1732 15.3157 47.3313 15.8097 47.6475 16.164C47.9823 16.4996 48.4473 16.6674 49.0424 16.6674C49.7306 16.6674 50.3165 16.4809 50.8 16.108L51.9718 19.1842Z" fill="#CB454D"/>
<path d="M68.6543 12.4446C68.6543 12.5005 68.6264 12.892 68.5706 13.6191H57.2159C57.4205 14.5513 57.904 15.2877 58.6666 15.8284C59.4292 16.3691 60.3777 16.6394 61.5123 16.6394C62.2934 16.6394 62.9816 16.5275 63.5768 16.3038C64.1905 16.0614 64.7578 15.6886 65.2786 15.1852L67.5942 17.7021C66.1806 19.3241 64.1161 20.1351 61.4007 20.1351C59.7081 20.1351 58.2109 19.8088 56.909 19.1563C55.6071 18.4851 54.6027 17.5622 53.8959 16.3877C53.1892 15.2132 52.8358 13.8801 52.8358 12.3886C52.8358 10.9158 53.1799 9.59211 53.868 8.41757C54.5748 7.22438 55.5326 6.30153 56.7416 5.649C57.9691 4.97783 59.3362 4.64225 60.8427 4.64225C62.312 4.64225 63.6419 4.95919 64.8322 5.59307C66.0226 6.22695 66.9525 7.14049 67.6221 8.33368C68.3102 9.50822 68.6543 10.8785 68.6543 12.4446ZM60.8706 7.94216C59.8848 7.94216 59.0572 8.22181 58.3876 8.78112C57.718 9.34042 57.3089 10.1048 57.1601 11.0743H64.5532C64.4044 10.1235 63.9953 9.36839 63.3257 8.80909C62.6561 8.23114 61.8378 7.94216 60.8706 7.94216Z" fill="#CB454D"/>
<path d="M85.0548 9.81584H89.1838V17.758C88.1237 18.5597 86.8961 19.1749 85.5012 19.6037C84.1063 20.0325 82.702 20.2469 81.2885 20.2469C79.2612 20.2469 77.4385 19.8181 75.8204 18.9605C74.2022 18.0843 72.9282 16.8818 71.9982 15.353C71.0869 13.8056 70.6312 12.0624 70.6312 10.1235C70.6312 8.18452 71.0869 6.45067 71.9982 4.9219C72.9282 3.37448 74.2115 2.17198 75.8483 1.31437C77.485 0.438124 79.3263 0 81.3722 0C83.0833 0 84.6364 0.288974 86.0313 0.866924C87.4262 1.44487 88.598 2.28384 89.5465 3.38381L86.6451 6.06848C85.2501 4.59564 83.5669 3.85922 81.5954 3.85922C80.3493 3.85922 79.2426 4.12023 78.2755 4.64225C77.3083 5.16427 76.555 5.90069 76.0157 6.85151C75.4763 7.80233 75.2066 8.89298 75.2066 10.1235C75.2066 11.3353 75.4763 12.4166 76.0157 13.3674C76.555 14.3183 77.299 15.064 78.2476 15.6047C79.2147 16.1267 80.3121 16.3877 81.5396 16.3877C82.8415 16.3877 84.0133 16.108 85.0548 15.5487V9.81584Z" fill="#CB454D"/>
<path d="M102.84 20.2469C100.812 20.2469 98.9805 19.8088 97.3438 18.9325C95.7256 18.0563 94.4516 16.8538 93.5216 15.325C92.6103 13.7776 92.1546 12.0437 92.1546 10.1235C92.1546 8.20317 92.6103 6.47864 93.5216 4.94987C94.4516 3.40245 95.7256 2.19062 97.3438 1.31437C98.9805 0.438124 100.812 0 102.84 0C104.867 0 106.69 0.438124 108.308 1.31437C109.926 2.19062 111.2 3.40245 112.13 4.94987C113.06 6.47864 113.525 8.20317 113.525 10.1235C113.525 12.0437 113.06 13.7776 112.13 15.325C111.2 16.8538 109.926 18.0563 108.308 18.9325C106.69 19.8088 104.867 20.2469 102.84 20.2469ZM102.84 16.3877C103.993 16.3877 105.035 16.1267 105.964 15.6047C106.894 15.064 107.62 14.3183 108.141 13.3674C108.68 12.4166 108.95 11.3353 108.95 10.1235C108.95 8.91162 108.68 7.8303 108.141 6.87948C107.62 5.92865 106.894 5.19223 105.964 4.67021C105.035 4.12955 103.993 3.85922 102.84 3.85922C101.687 3.85922 100.645 4.12955 99.7152 4.67021C98.7852 5.19223 98.0505 5.92865 97.5112 6.87948C96.9904 7.8303 96.73 8.91162 96.73 10.1235C96.73 11.3353 96.9904 12.4166 97.5112 13.3674C98.0505 14.3183 98.7852 15.064 99.7152 15.6047C100.645 16.1267 101.687 16.3877 102.84 16.3877Z" fill="#CB454D"/>
<path d="M6.19322 28.4H9.10922V38.624H15.4272V41H6.19322V28.4ZM21.3962 41.144C20.3762 41.144 19.4582 40.934 18.6422 40.514C17.8382 40.082 17.2082 39.488 16.7522 38.732C16.2962 37.976 16.0682 37.118 16.0682 36.158C16.0682 35.198 16.2962 34.34 16.7522 33.584C17.2082 32.828 17.8382 32.24 18.6422 31.82C19.4582 31.388 20.3762 31.172 21.3962 31.172C22.4162 31.172 23.3282 31.388 24.1322 31.82C24.9362 32.24 25.5662 32.828 26.0222 33.584C26.4782 34.34 26.7062 35.198 26.7062 36.158C26.7062 37.118 26.4782 37.976 26.0222 38.732C25.5662 39.488 24.9362 40.082 24.1322 40.514C23.3282 40.934 22.4162 41.144 21.3962 41.144ZM21.3962 38.84C22.1162 38.84 22.7042 38.6 23.1602 38.12C23.6282 37.628 23.8622 36.974 23.8622 36.158C23.8622 35.342 23.6282 34.694 23.1602 34.214C22.7042 33.722 22.1162 33.476 21.3962 33.476C20.6762 33.476 20.0822 33.722 19.6142 34.214C19.1462 34.694 18.9122 35.342 18.9122 36.158C18.9122 36.974 19.1462 37.628 19.6142 38.12C20.0822 38.6 20.6762 38.84 21.3962 38.84ZM38.5731 31.316V39.38C38.5731 41.156 38.1111 42.476 37.1871 43.34C36.2631 44.204 34.9131 44.636 33.1371 44.636C32.2011 44.636 31.3131 44.522 30.4731 44.294C29.6331 44.066 28.9371 43.736 28.3851 43.304L29.5011 41.288C29.9091 41.624 30.4251 41.888 31.0491 42.08C31.6731 42.284 32.2971 42.386 32.9211 42.386C33.8931 42.386 34.6071 42.164 35.0631 41.72C35.5311 41.288 35.7651 40.628 35.7651 39.74V39.326C35.0331 40.13 34.0131 40.532 32.7051 40.532C31.8171 40.532 31.0011 40.34 30.2571 39.956C29.5251 39.56 28.9431 39.008 28.5111 38.3C28.0791 37.592 27.8631 36.776 27.8631 35.852C27.8631 34.928 28.0791 34.112 28.5111 33.404C28.9431 32.696 29.5251 32.15 30.2571 31.766C31.0011 31.37 31.8171 31.172 32.7051 31.172C34.1091 31.172 35.1771 31.634 35.9091 32.558V31.316H38.5731ZM33.2631 38.228C34.0071 38.228 34.6131 38.012 35.0811 37.58C35.5611 37.136 35.8011 36.56 35.8011 35.852C35.8011 35.144 35.5611 34.574 35.0811 34.142C34.6131 33.698 34.0071 33.476 33.2631 33.476C32.5191 33.476 31.9071 33.698 31.4271 34.142C30.9471 34.574 30.7071 35.144 30.7071 35.852C30.7071 36.56 30.9471 37.136 31.4271 37.58C31.9071 38.012 32.5191 38.228 33.2631 38.228ZM41.1866 31.316H43.9946V41H41.1866V31.316ZM42.5906 29.966C42.0746 29.966 41.6546 29.816 41.3306 29.516C41.0066 29.216 40.8446 28.844 40.8446 28.4C40.8446 27.956 41.0066 27.584 41.3306 27.284C41.6546 26.984 42.0746 26.834 42.5906 26.834C43.1066 26.834 43.5266 26.978 43.8506 27.266C44.1746 27.554 44.3366 27.914 44.3366 28.346C44.3366 28.814 44.1746 29.204 43.8506 29.516C43.5266 29.816 43.1066 29.966 42.5906 29.966ZM49.8587 41.144C49.0547 41.144 48.2687 41.048 47.5007 40.856C46.7327 40.652 46.1207 40.4 45.6647 40.1L46.6007 38.084C47.0327 38.36 47.5547 38.588 48.1667 38.768C48.7787 38.936 49.3787 39.02 49.9667 39.02C51.1547 39.02 51.7487 38.726 51.7487 38.138C51.7487 37.862 51.5867 37.664 51.2627 37.544C50.9387 37.424 50.4407 37.322 49.7687 37.238C48.9767 37.118 48.3227 36.98 47.8067 36.824C47.2907 36.668 46.8407 36.392 46.4567 35.996C46.0847 35.6 45.8987 35.036 45.8987 34.304C45.8987 33.692 46.0727 33.152 46.4207 32.684C46.7807 32.204 47.2967 31.832 47.9687 31.568C48.6527 31.304 49.4567 31.172 50.3807 31.172C51.0647 31.172 51.7427 31.25 52.4147 31.406C53.0987 31.55 53.6627 31.754 54.1067 32.018L53.1707 34.016C52.3187 33.536 51.3887 33.296 50.3807 33.296C49.7807 33.296 49.3307 33.38 49.0307 33.548C48.7307 33.716 48.5807 33.932 48.5807 34.196C48.5807 34.496 48.7427 34.706 49.0667 34.826C49.3907 34.946 49.9067 35.06 50.6147 35.168C51.4067 35.3 52.0547 35.444 52.5587 35.6C53.0627 35.744 53.5007 36.014 53.8727 36.41C54.2447 36.806 54.4307 37.358 54.4307 38.066C54.4307 38.666 54.2507 39.2 53.8907 39.668C53.5307 40.136 53.0027 40.502 52.3067 40.766C51.6227 41.018 50.8067 41.144 49.8587 41.144ZM62.4092 40.532C62.1332 40.736 61.7912 40.892 61.3832 41C60.9872 41.096 60.5672 41.144 60.1232 41.144C58.9712 41.144 58.0772 40.85 57.4412 40.262C56.8172 39.674 56.5052 38.81 56.5052 37.67V33.692H55.0112V31.532H56.5052V29.174H59.3132V31.532H61.7252V33.692H59.3132V37.634C59.3132 38.042 59.4152 38.36 59.6192 38.588C59.8352 38.804 60.1352 38.912 60.5192 38.912C60.9632 38.912 61.3412 38.792 61.6532 38.552L62.4092 40.532ZM63.9855 31.316H66.7935V41H63.9855V31.316ZM65.3895 29.966C64.8735 29.966 64.4535 29.816 64.1295 29.516C63.8055 29.216 63.6435 28.844 63.6435 28.4C63.6435 27.956 63.8055 27.584 64.1295 27.284C64.4535 26.984 64.8735 26.834 65.3895 26.834C65.9055 26.834 66.3255 26.978 66.6495 27.266C66.9735 27.554 67.1355 27.914 67.1355 28.346C67.1355 28.814 66.9735 29.204 66.6495 29.516C66.3255 29.816 65.9055 29.966 65.3895 29.966ZM74.0795 41.144C73.0475 41.144 72.1175 40.934 71.2895 40.514C70.4735 40.082 69.8315 39.488 69.3635 38.732C68.9075 37.976 68.6795 37.118 68.6795 36.158C68.6795 35.198 68.9075 34.34 69.3635 33.584C69.8315 32.828 70.4735 32.24 71.2895 31.82C72.1175 31.388 73.0475 31.172 74.0795 31.172C75.0995 31.172 75.9875 31.388 76.7435 31.82C77.5115 32.24 78.0695 32.846 78.4175 33.638L76.2395 34.808C75.7355 33.92 75.0095 33.476 74.0615 33.476C73.3295 33.476 72.7235 33.716 72.2435 34.196C71.7635 34.676 71.5235 35.33 71.5235 36.158C71.5235 36.986 71.7635 37.64 72.2435 38.12C72.7235 38.6 73.3295 38.84 74.0615 38.84C75.0215 38.84 75.7475 38.396 76.2395 37.508L78.4175 38.696C78.0695 39.464 77.5115 40.064 76.7435 40.496C75.9875 40.928 75.0995 41.144 74.0795 41.144ZM83.2923 41.144C82.4883 41.144 81.7023 41.048 80.9343 40.856C80.1663 40.652 79.5543 40.4 79.0983 40.1L80.0343 38.084C80.4663 38.36 80.9883 38.588 81.6003 38.768C82.2123 38.936 82.8123 39.02 83.4003 39.02C84.5883 39.02 85.1823 38.726 85.1823 38.138C85.1823 37.862 85.0203 37.664 84.6963 37.544C84.3723 37.424 83.8743 37.322 83.2023 37.238C82.4103 37.118 81.7563 36.98 81.2403 36.824C80.7243 36.668 80.2743 36.392 79.8903 35.996C79.5183 35.6 79.3323 35.036 79.3323 34.304C79.3323 33.692 79.5063 33.152 79.8543 32.684C80.2143 32.204 80.7303 31.832 81.4023 31.568C82.0863 31.304 82.8903 31.172 83.8143 31.172C84.4983 31.172 85.1763 31.25 85.8483 31.406C86.5323 31.55 87.0963 31.754 87.5403 32.018L86.6043 34.016C85.7523 33.536 84.8223 33.296 83.8143 33.296C83.2143 33.296 82.7643 33.38 82.4643 33.548C82.1643 33.716 82.0143 33.932 82.0143 34.196C82.0143 34.496 82.1763 34.706 82.5003 34.826C82.8243 34.946 83.3403 35.06 84.0483 35.168C84.8403 35.3 85.4883 35.444 85.9923 35.6C86.4963 35.744 86.9343 36.014 87.3063 36.41C87.6783 36.806 87.8643 37.358 87.8643 38.066C87.8643 38.666 87.6843 39.2 87.3243 39.668C86.9643 40.136 86.4363 40.502 85.7403 40.766C85.0563 41.018 84.2403 41.144 83.2923 41.144Z" fill="#CB454D"/>
</svg>
