<?xml version="1.0" encoding="utf-8"?><svg viewBox="0 0 1439 69" xmlns="http://www.w3.org/2000/svg" xmlns:xlink="http://www.w3.org/1999/xlink"><style>:root>svg{display:none}:root>svg:target{display:block}</style><svg viewBox="0 0 20 8" id="arrow-left" xmlns="http://www.w3.org/2000/svg"><path fill-rule="evenodd" clip-rule="evenodd" d="M5 2.5h15V5H5.037L5 3.562V7.5L0 3.75 5 0v2.5z"/></svg><svg viewBox="0 0 20 12" id="arrow-more" xmlns="http://www.w3.org/2000/svg"><path d="M0 5.287h17.44l-4.013-4.279L14.373 0 20 6l-5.627 6-.946-1.008 4.013-4.279H0V5.287z"/></svg><svg viewBox="0 0 20 8" id="arrow-right" xmlns="http://www.w3.org/2000/svg"><path fill-rule="evenodd" clip-rule="evenodd" d="M15 5.5H0V3h14.963L15 4.438V.5l5 3.75L15 8V5.5z"/></svg><svg viewBox="0 0 15 15" id="facebook" xmlns="http://www.w3.org/2000/svg"><path d="M7.5 0a7.5 7.5 0 100 15 7.5 7.5 0 000-15zm2.861 3.82H9.324c-.814 0-.97.386-.97.954v1.25h1.939v1.96h-1.94v5.026H6.33V7.983H4.64V6.024H6.33V4.58c0-1.677 1.024-2.59 2.52-2.59l1.511.002V3.82z"/></svg><svg viewBox="0 0 1439 1" id="line-dashed" xmlns="http://www.w3.org/2000/svg"><path d="M0 .5h1439"/></svg><svg viewBox="0 0 11 15" id="location-icon" xmlns="http://www.w3.org/2000/svg"><path fill-rule="evenodd" clip-rule="evenodd" d="M5.5 0C2.467 0 0 2.582 0 5.757c0 3.249 3.767 7.406 4.522 8.206L5.5 15l.978-1.037C7.233 13.163 11 9.006 11 5.757 11 2.582 8.534 0 5.5 0zm0 7.295c.895 0 1.62-.73 1.62-1.628 0-.9-.725-1.629-1.62-1.629-.895 0-1.62.73-1.62 1.629s.725 1.628 1.62 1.628z"/></svg><svg viewBox="0 0 16 11" id="mail-icon" xmlns="http://www.w3.org/2000/svg"><path d="M1.17 0C.94 0 .73.07.55.183l6.927 5.86a.8.8 0 001.06 0l6.915-5.86A1.16 1.16 0 0014.83 0H1.171zM.068.787A1.17 1.17 0 000 1.17v7.805c0 .235.07.45.189.634L5.146 5.09.067.787zm15.866 0l-5.067 4.298L15.81 9.61c.118-.183.189-.4.189-.634V1.17c0-.135-.025-.264-.067-.384zm-5.665 4.81L9.037 6.64a1.6 1.6 0 01-2.067 0L5.744 5.604.824 10.09c.11.035.225.055.347.055h13.658c.122 0 .238-.02.348-.055l-4.909-4.493z"/></svg><svg viewBox="0 0 13 13" id="phone-icon" xmlns="http://www.w3.org/2000/svg"><path fill-rule="evenodd" clip-rule="evenodd" d="M2.65.277l1.79 1.761a.956.956 0 010 1.217l-.874.839c.5 1.174 1 2.013 1.707 2.727.75.755 1.583 1.258 2.707 1.72l.833-.84c.291-.293.832-.293 1.165 0l1.79 1.804a.865.865 0 010 1.217l-.832.839C7.73 14.79-2.596 4.346.61 1.116l.833-.84a.85.85 0 011.207 0z"/></svg><svg viewBox="0 0 95 69" id="quote" xmlns="http://www.w3.org/2000/svg"><path d="M31.64 32.8c2.4 1.6 4.267 3.733 5.6 6.4 1.467 2.533 2.2 5.4 2.2 8.6 0 6.133-2 11.133-6 15-4 3.867-8.933 5.8-14.8 5.8-5.333 0-9.733-1.667-13.2-5-3.333-3.333-5-7.667-5-13 0-2.8.467-5.467 1.4-8 1.067-2.533 2.867-5.8 5.4-9.8l20-32.2h19.6l-15.2 32.2zm47.2 0c2.4 1.6 4.267 3.733 5.6 6.4 1.467 2.533 2.2 5.4 2.2 8.6 0 6.133-2 11.133-6 15-4 3.867-8.933 5.8-14.8 5.8-5.333 0-9.733-1.667-13.2-5-3.333-3.333-5-7.667-5-13 0-2.8.467-5.467 1.4-8 1.067-2.533 2.867-5.8 5.4-9.8l20-32.2h19.6l-15.2 32.2z"/></svg><svg viewBox="0 0 29 15" id="select-icon" xmlns="http://www.w3.org/2000/svg"><path fill-rule="evenodd" clip-rule="evenodd" d="M7.28 2.207l.378.065c.064 0 .095.033.095.13l.442.552a.237.237 0 00.127.065l.158.065c.094.065.22 0 .284-.097l.442-.747c.032-.033.063-.065.126-.098l.727-.292c.126-.033.19-.163.158-.293L10.09.972A.18.18 0 009.997.81L8.922.095C8.89.063 8.796.03 8.732.063l-1.737.52c-.126.032-.19.13-.19.227v.13c0 .032 0 .065.032.097l.253.52c.032.065.063.13.032.195l-.032.13c-.032.163.032.293.19.325zm-6.634.877h.19c.22 0 .379-.13.474-.39.031-.064.063-.097.126-.097l.853.065c.016.016.031.024.047.033.016.008.032.016.047.032l.285.455c.031.032.031.032.031.065l-.031.26c0 .195-.158.357-.348.39-.063 0-.094.032-.094.097l-.127 1.43c0 .032 0 .065.032.097l.6.585c.032.033.063.098.032.13a.413.413 0 00.252.553l.758.195c.063 0 .095.032.095.097 0 .033.032.098.063.098l.348.13c.031.032.063.065.063.097l.031.292c0 .065.095.098.158.065l.158-.097a.094.094 0 01.127 0l.094.097c.032.033.032.098.032.13l-.095.325c0 .033-.031.065-.063.065l-.158.033c-.063 0-.095.032-.095.097v.52c0 .033 0 .065.032.098l.6.52c.032.032.032.097.032.13l-.032.065a.689.689 0 00.284.78l.221.13c.032.032.064.064.064.097v1.884c0 .26.126.488.315.618.064 0 .064.065.064.097l-.032.13c-.032.26.063.488.284.618l.095.065c.221.13.505.032.6-.228l.032-.065c0-.032 0-.097-.063-.13l-.285-.162c-.031 0-.063-.065-.063-.098v-.617c0-.357.158-.683.41-.91l.6-.552c.317-.293.475-.715.411-1.17l-.031-.098c0-.032 0-.065.031-.097l.253-.292a.606.606 0 00.095-.715l-.38-.65c0-.033-.03-.065-.062-.065l-.695-.098c-.063 0-.095-.032-.095-.097v-.228c0-.032-.032-.097-.095-.097h-.347c-.032 0-.063 0-.095-.033l-.347-.39c-.032-.032-.064-.032-.095-.032H4.752c-.031 0-.094-.032-.094-.097-.032-.195-.158-.358-.348-.39l-.158-.033c-.063 0-.095-.032-.095-.097v-.26c0-.033-.031-.098-.063-.098L3.71 6.27c-.063-.033-.095-.098-.063-.163l.19-.422c0-.033.031-.065.063-.065l.663-.195c.063-.033.095 0 .126.032l.253.358a.11.11 0 01.047.016.11.11 0 00.048.016h.031c.032 0 .095-.032.095-.097v-.325c0-.033.032-.065.063-.098l.821-.552a.642.642 0 00.285-.682c0-.065.063-.13.126-.13l.98.097a.388.388 0 00.441-.39v-.325a.22.22 0 00-.22-.227c-.032 0-.064-.033-.096-.065l-.094-.163a.568.568 0 00-.6-.292l-.506.098c-.031 0-.031 0-.063.032-.063.13-.221.162-.347.098-.158-.065-.158-.26-.032-.358l.38-.227c.03 0 .062-.033.062-.065l.032-.13c.095-.293-.127-.585-.41-.618l-.79-.065c-.222 0-.474.098-.6.293l-.095.13c-.032.032-.063.032-.095.032l-3.127-.422a.372.372 0 00-.41.455l.031.26c.032.065-.032.13-.095.13h-.41c-.032 0-.095.032-.095.097v.487c0 .033.031.065.031.065l.253.163c.032.032.032.032.063.032zm27.732-1.17c-.031-.065-.095-.065-.126-.065l-1.327.195c-.031 0-.094 0-.126-.032l-.38-.455c-.017-.019-.025-.027-.034-.03-.007-.002-.015-.002-.028-.002L24.588 1.2h-.063l-.948.195c-.379.097-.79-.033-1.074-.293a.986.986 0 00-.726-.292h-2.18c-.031 0-.063 0-.063.032l-.473.325c-.032.033-.064.065-.064.098a.38.38 0 01-.252.357l-.316.097c-.095.033-.221 0-.253-.13-.031-.032-.063-.064-.126-.064H16.692l-.916-.293a.936.936 0 00-.664.033l-.252.13a.745.745 0 00-.442.487l-.095.26c-.064.195-.064.39.031.552l.095.163c.032.032.063.065.126.065h.127c.19 0 .379-.13.442-.325 0-.033.031-.065.095-.098l.19-.065c.094-.032.157.033.189.13l.031.358a.502.502 0 01-.316.52l-.505.195c-.063.032-.158-.033-.158-.098l-.063-.26c0-.065-.063-.097-.095-.097l-.22-.033c-.096 0-.159.033-.159.13v.325c0 .065-.031.098-.095.13l-.473.13c-.032 0-.063.033-.063.065l-.158.325a.1.1 0 000 .13l.063.13c.031.097-.032.195-.127.195-.22 0-.347.195-.316.39l.064.26c0 .065.063.097.126.097h.38c.062 0 .094-.032.125-.097l.064-.195c0-.065.063-.098.126-.098l.41.033c.032 0 .064 0 .064-.033l.22-.13c.064-.032.127-.032.19.033l.221.325c.032.032.032.065.032.13v.032c-.032.098.095.228.19.163l.063-.033c.063-.032.094-.097.063-.162l-.127-.39c-.031-.065 0-.13.064-.163h.031c.063-.032.127 0 .158.033l.158.195c.158.227.474.325.727.227h.031c.063-.032.095 0 .127.033l.378.39c.032.032.032.065.032.13l-.063.357c0 .065-.063.098-.095.098l-1.074.26h-.094l-.6-.293c-.032 0-.064-.032-.064-.065a.776.776 0 00-.695-.455l-.473-.032c-.032 0-.064 0-.095.032l-.79.65c-.41.325-.663.812-.726 1.332 0 .033-.032.065-.063.098l-.095.065c-.032.032-.063.065-.063.13 0 .455.19.91.537 1.202l.284.26c.031.032.063.032.095.032h1.231c.032 0 .064 0 .064.033l.347.227c.032.033.063.065.063.098l.032.617c0 .065.031.098.063.13l.41.195c.064.033.095.065.064.13l-.127 1.137c-.031.26.032.488.158.715l.158.228c0 .016.008.024.016.032s.016.016.016.033l.031.325c.032.357.285.65.632.714a.8.8 0 00.695-.227l.19-.163c.315-.324.473-.747.473-1.202v-.357c0-.033.032-.098.064-.098l.284-.227a.996.996 0 00.379-.813v-.812c0-.032 0-.065.031-.097l.6-.683c.032-.032.032-.065.032-.13a.852.852 0 00-.568-.617l-.064-.032a.515.515 0 01-.379-.488c0-.13-.063-.26-.158-.357l-.22-.228c-.032-.032-.032-.065-.032-.097l.031-.423a.14.14 0 01.077-.117c.026.012.05.032.05.052l.537.65c.031.033.031.065.031.098v.325c0 .065.032.13.095.13l.19.065h.094l.6-.358a.416.416 0 00.127-.617l-.41-.618c-.064-.097 0-.195.094-.195l.347-.032c.063 0 .095.032.127.097l.126.325c0 .017.008.025.016.033s.016.016.016.032l.694.52h.032l.442.195c.063.033.095.065.095.13l-.063.195a.907.907 0 00.252.747l.411.39c.158.163.442.098.537-.13l.442-1.234a.173.173 0 01.158-.098l.41.065c.032 0 .095.033.095.098l.348 1.007c0 .016.008.024.016.032.008.009.016.017.016.033l.126.13c.095.097.221.032.221-.098l-.032-.227c0-.097.064-.162.127-.13a.11.11 0 01.047.016.11.11 0 00.047.017c.127.13.285.162.443.065l.284-.195c.032-.033.063-.065.063-.13l-.031-1.235c0-.065.031-.13.094-.13l.348-.098c.031 0 .095-.032.095-.097l.157-.585c0-.032 0-.097-.031-.13l-.221-.26a.6.6 0 01-.063-.682L25.062 5c.031-.032.063-.065.095-.065.126 0 .252-.097.315-.227l.79-1.722c.032-.065.126-.098.19-.065l.189.097c.032.033.063.065.063.098v.455c0 .065.032.097.063.13.158.097.348 0 .443-.163l.284-.617c0-.02.012-.028.029-.039.01-.006.022-.014.034-.026l.632-.39c.22-.065.316-.325.19-.553zm-10.012 9.52c.032-.064.127-.096.19-.096.031 0 .095.032.158.065l.031.032c.063.032.127.13.095.227l-.19.975c-.031.065-.063.13-.126.163-.095.032-.22.032-.284-.065l-.095-.098a.863.863 0 00-.025-.046c-.021-.038-.038-.069-.038-.116v-.553c0-.032 0-.097.032-.13l.252-.357zm-5.18-7.863l.22-.065c.064-.032.127-.097.127-.162v-.455c0-.097-.063-.162-.158-.162-.063 0-.158.065-.158.13l-.031.13c0 .065-.063.13-.127.13h-.126c-.095 0-.126.097-.126.162v.065c0 .097.063.162.126.162l.19.033c0 .032.031.032.063.032zm11.94 7.28l.094.13c0 .032.032.064.095 0l.095.032c.095 0 .19-.065.19-.163 0-.097.126-.162.22-.13.032 0 .064.033.064.065l.41.975V12.442c0 .033 0 .065-.031.098l-.38.52c-.031.065-.094.065-.157.065l-.727-.163c-.016 0-.023-.008-.031-.016s-.016-.016-.032-.016l-.253-.228c-.031-.032-.063-.032-.094-.032H23.673c-.064 0-.127-.065-.127-.13l-.031-.488a.7.7 0 01.347-.617l.221-.098c.032 0 .063-.032.063-.032l.285-.357c.031-.033.063-.065.094-.065l.474-.098c.032 0 .095.033.127.065zm.946-6.012l.095.195c.031.065.031.13 0 .163l-.316.844a.213.213 0 000 .195l.095.163c.031.097.126.13.22.13.095 0 .159-.033.222-.13l.379-.683c.031-.032.031-.097.031-.162l-.157-.78c0-.065-.064-.162-.127-.195l-.126-.065c-.063-.032-.158-.032-.253 0-.063.098-.095.228-.063.325zm.631 7.928l.063-.097c.095-.098.221-.098.285.032l.031.033c.063.097.063.227-.032.292l-.284.228c-.031.032-.063.065-.063.097l-.19.618c-.031.065-.094.13-.189.13h-.253c-.094 0-.158-.065-.19-.13l-.03-.065a.258.258 0 01.063-.26l.505-.423c.031 0 .063-.032.063-.065l.19-.357c.031 0 .031-.033.031-.033z"/></svg><svg viewBox="0 0 15 15" id="telegram" xmlns="http://www.w3.org/2000/svg"><path d="M7.5 15c4.143 0 7.5-3.357 7.5-7.5S11.643 0 7.5 0A7.499 7.499 0 000 7.5C0 11.643 3.357 15 7.5 15zM3.432 7.338l7.231-2.789c.336-.12.629.082.52.59l-1.23 5.8c-.092.411-.336.511-.678.317L7.4 9.874l-.904.872c-.1.1-.185.184-.379.184l.134-1.908 3.475-3.14c.15-.133-.034-.208-.234-.075L5.199 8.51l-1.851-.578c-.402-.127-.41-.402.085-.595z"/></svg><svg viewBox="0 0 19 21" id="user" xmlns="http://www.w3.org/2000/svg"><path d="M9.28 13.751c3.566 0 6.457-2.912 6.457-6.505S12.846.74 9.28.74c-3.567 0-6.458 2.913-6.458 6.506 0 3.593 2.891 6.505 6.458 6.505z"/><path d="M.436 17.965c1.887 4.03 15.801 4.03 17.688 0 .625-1.337-1.719-3.852-3.501-4.997a7.758 7.758 0 01-4.238 2.06L9.25 18.938l-1.137-3.92a7.761 7.761 0 01-4.176-2.05c-1.782 1.144-4.126 3.66-3.5 4.996z"/></svg><svg viewBox="0 0 15 15" id="whatsapp" xmlns="http://www.w3.org/2000/svg"><path d="M7.502 0h-.004C3.363 0 0 3.364 0 7.5c0 1.64.529 3.161 1.428 4.396l-.935 2.786 2.883-.921A7.435 7.435 0 007.502 15C11.637 15 15 11.635 15 7.5S11.637 0 7.502 0zm4.364 10.59c-.181.512-.9.936-1.472 1.06-.392.083-.904.15-2.627-.565-2.204-.913-3.623-3.153-3.734-3.298-.106-.145-.89-1.186-.89-2.262 0-1.077.546-1.6.766-1.826.181-.184.48-.269.767-.269.093 0 .176.005.252.009.22.01.33.022.476.37.18.436.621 1.512.674 1.623.053.11.107.26.032.406-.07.15-.133.216-.243.344-.11.127-.216.225-.326.362-.102.119-.216.246-.089.467.128.215.569.934 1.217 1.512.838.745 1.516.983 1.76 1.085.18.074.396.057.528-.084.168-.18.375-.48.586-.776.15-.212.34-.238.538-.163.202.07 1.274.6 1.494.71.22.11.366.162.42.255.052.093.052.53-.13 1.04z"/></svg></svg>