<?xml version="1.0" encoding="utf-8"?><svg viewBox="0 0 95 69" xmlns="http://www.w3.org/2000/svg" xmlns:xlink="http://www.w3.org/1999/xlink"><style>:root>svg{display:none}:root>svg:target{display:block}</style><svg viewBox="0 0 20 8" id="arrow-left" xmlns="http://www.w3.org/2000/svg"><path fill-rule="evenodd" clip-rule="evenodd" d="M5 2.5h15V5H5.037L5 3.562V7.5L0 3.75 5 0v2.5z"/></svg><svg viewBox="0 0 20 8" id="arrow-right" xmlns="http://www.w3.org/2000/svg"><path fill-rule="evenodd" clip-rule="evenodd" d="M15 5.5H0V3h14.963L15 4.438V.5l5 3.75L15 8V5.5z"/></svg><svg viewBox="0 0 11 15" id="location" xmlns="http://www.w3.org/2000/svg"><path fill-rule="evenodd" clip-rule="evenodd" d="M5.5 0C2.467 0 0 2.582 0 5.757c0 3.249 3.767 7.406 4.522 8.206L5.5 15l.978-1.037C7.233 13.163 11 9.006 11 5.757 11 2.582 8.534 0 5.5 0zm0 7.295c.895 0 1.62-.73 1.62-1.628 0-.9-.725-1.629-1.62-1.629-.895 0-1.62.73-1.62 1.629s.725 1.628 1.62 1.628z"/></svg><svg viewBox="0 0 16 11" id="mail" xmlns="http://www.w3.org/2000/svg"><path d="M1.17 0C.94 0 .73.07.55.183l6.927 5.86a.8.8 0 001.06 0l6.915-5.86A1.16 1.16 0 0014.83 0H1.171zM.068.787A1.17 1.17 0 000 1.17v7.805c0 .235.07.45.189.634L5.146 5.09.067.787zm15.866 0l-5.067 4.298L15.81 9.61c.118-.183.189-.4.189-.634V1.17c0-.135-.025-.264-.067-.384zm-5.665 4.81L9.037 6.64a1.6 1.6 0 01-2.067 0L5.744 5.604.824 10.09c.11.035.225.055.347.055h13.658c.122 0 .238-.02.348-.055l-4.909-4.493z"/></svg><svg viewBox="0 0 95 69" id="quote" xmlns="http://www.w3.org/2000/svg"><path d="M31.64 32.8c2.4 1.6 4.267 3.733 5.6 6.4 1.467 2.533 2.2 5.4 2.2 8.6 0 6.133-2 11.133-6 15-4 3.867-8.933 5.8-14.8 5.8-5.333 0-9.733-1.667-13.2-5-3.333-3.333-5-7.667-5-13 0-2.8.467-5.467 1.4-8 1.067-2.533 2.867-5.8 5.4-9.8l20-32.2h19.6l-15.2 32.2zm47.2 0c2.4 1.6 4.267 3.733 5.6 6.4 1.467 2.533 2.2 5.4 2.2 8.6 0 6.133-2 11.133-6 15-4 3.867-8.933 5.8-14.8 5.8-5.333 0-9.733-1.667-13.2-5-3.333-3.333-5-7.667-5-13 0-2.8.467-5.467 1.4-8 1.067-2.533 2.867-5.8 5.4-9.8l20-32.2h19.6l-15.2 32.2z"/></svg><svg viewBox="0 0 60 39" id="task-1" xmlns="http://www.w3.org/2000/svg"><path d="M57.243 21.53A1.639 1.639 0 0156 19.938V16c0-3.309-2.691-6-6-6H40V1a1 1 0 00-1-1H1a1 1 0 00-1 1v30a1 1 0 001 1h7.092A5.97 5.97 0 008 33c0 3.309 2.691 6 6 6s6-2.691 6-6c0-.337-.036-.67-.092-1h23.184A5.97 5.97 0 0043 33c0 3.309 2.691 6 6 6s6-2.691 6-6c0-.337-.036-.67-.092-1H59a1 1 0 001-1v-5.938a3.635 3.635 0 00-2.757-3.532zM54.005 20H44v-4h10v3.938c0 .021.005.041.005.062zM2 2h36v24H2V2zm16 31c0 2.206-1.794 4-4 4s-4-1.794-4-4c0-.339.059-.672.145-1h1.039A2.966 2.966 0 0011 33c0 1.654 1.346 3 3 3s3-1.346 3-3c0-.352-.072-.686-.184-1h1.039c.086.328.145.661.145 1zm-3 0c0 .551-.449 1-1 1-.551 0-1-.449-1-1 0-.551.449-1 1-1 .551 0 1 .449 1 1zm38 0c0 2.206-1.794 4-4 4s-4-1.794-4-4c0-.339.059-.672.145-1h1.039A2.966 2.966 0 0046 33c0 1.654 1.346 3 3 3s3-1.346 3-3c0-.352-.072-.686-.184-1h1.039c.086.328.145.661.145 1zm-3 0c0 .551-.449 1-1 1-.551 0-1-.449-1-1 0-.551.449-1 1-1 .551 0 1 .449 1 1zm8-3H2v-2h37a1 1 0 001-1V12h10c1.474 0 2.75.81 3.444 2H43a1 1 0 00-1 1v6a1 1 0 001 1h11.652c.49.71 1.22 1.249 2.105 1.47A1.639 1.639 0 0158 25.062V30z"/><path d="M46 24h-3v2h3v-2zM28.651 6.241a1 1 0 00-1.302 0l-7 6a1 1 0 00.651 1.76v7a1 1 0 001 1h12a1 1 0 001-1v-7a1 1 0 00.651-1.759l-7-6zm-.65 2.076L32.296 12h-8.594L28 8.317zM29 20h-2v-1c0-.55.448-1 1-1 .55 0 1 .45 1 1v1zm4 0h-2v-1c0-1.654-1.347-3-3-3-1.655 0-3 1.346-3 3v1h-2v-6h10v6z"/><path d="M6 19c0-.551.449-1 1-1h7c1.654 0 3-1.346 3-3s-1.346-3-3-3h-3c-.551 0-1-.449-1-1 0-.551.449-1 1-1h11V8H11c-1.654 0-3 1.346-3 3s1.346 3 3 3h3c.551 0 1 .449 1 1 0 .551-.449 1-1 1H7c-1.654 0-3 1.346-3 3s1.346 3 3 3h13v-2H7c-.551 0-1-.449-1-1z"/></svg><svg viewBox="0 0 15 15" id="telegram" xmlns="http://www.w3.org/2000/svg"><path d="M7.5 15c4.143 0 7.5-3.357 7.5-7.5S11.643 0 7.5 0A7.499 7.499 0 000 7.5C0 11.643 3.357 15 7.5 15zM3.432 7.338l7.231-2.789c.336-.12.629.082.52.59l-1.23 5.8c-.092.411-.336.511-.678.317L7.4 9.874l-.904.872c-.1.1-.185.184-.379.184l.134-1.908 3.475-3.14c.15-.133-.034-.208-.234-.075L5.199 8.51l-1.851-.578c-.402-.127-.41-.402.085-.595z"/></svg></svg>