<svg width="16" height="11" viewBox="0 0 16 11" fill="none" xmlns="http://www.w3.org/2000/svg">
<path d="M1.17073 0C0.940605 0 0.729385 0.0691317 0.54878 0.182927L7.47561 6.04269C7.7927 6.31124 8.22006 6.3112 8.53658 6.04269L15.4512 0.182927C15.2706 0.0691317 15.0594 0 14.8293 0H1.17073ZM0.0670828 0.786573C0.0253267 0.907159 0 1.03561 0 1.17073V8.97561C0 9.21071 0.0706536 9.42673 0.189034 9.60976L5.14634 5.09148L0.0670828 0.786573ZM15.9329 0.786573L10.8659 5.08537L15.811 9.60976C15.9293 9.42673 16 9.21071 16 8.97561V1.17073C16 1.03561 15.9747 0.907159 15.9329 0.786573ZM10.2683 5.59756L9.03658 6.64023C8.44088 7.14564 7.56531 7.1449 6.96952 6.64023L5.7439 5.60367L0.82318 10.0915C0.933288 10.1256 1.04913 10.1463 1.17073 10.1463H14.8293C14.9509 10.1463 15.0667 10.1256 15.1768 10.0915L10.2683 5.59756Z" fill="#10172C"/>
</svg>
