<svg width="156" height="17" viewBox="0 0 156 17" fill="none" xmlns="http://www.w3.org/2000/svg">
<path d="M46.0267 0.341797H43.5127H41.9333H40.3217H39.3226L34.0688 16.5886H38.7424L39.7093 13.3268H45.7689L46.7358 16.5886H51.5705L46.349 0.341797H46.0267ZM40.8374 9.38162L42.2556 4.53553H43.1581L44.6085 9.38162H40.8374Z" fill="#11192E"/>
<path d="M136.275 0.341797H133.761H132.181H130.57H129.571L124.317 16.5886H128.99L129.957 13.3268H136.049L137.016 16.5886H141.851L136.629 0.341797H136.275ZM131.118 9.38162L132.536 4.53553H133.438L134.889 9.38162H131.118Z" fill="#11192E"/>
<path d="M55.6962 0.341797H53.1821V16.5886H57.759V4.53553H64.9466V0.341797H57.759H55.6962Z" fill="#11192E"/>
<path d="M74.5192 0.341797H71.3928H69.33H66.8159V16.5886H71.3928V11.8047H74.5192C78.7738 11.8047 80.9333 9.22629 80.9333 6.08876C80.9655 2.92016 78.7738 0.341797 74.5192 0.341797ZM74.5192 7.85945H71.3928V4.28701H74.5192C75.7762 4.28701 76.3564 5.09469 76.3564 6.0577C76.3886 7.05177 75.7762 7.85945 74.5192 7.85945Z" fill="#11192E"/>
<path d="M91.473 0C86.3482 0 82.4482 3.66566 82.4482 8.48071C82.4482 13.2958 86.3482 16.9614 91.473 16.9614C96.5978 16.9614 100.498 13.2958 100.498 8.48071C100.498 3.66566 96.5978 0 91.473 0ZM91.473 12.5191C89.0234 12.5191 87.2507 10.8106 87.2507 8.44965C87.2507 6.08872 89.0234 4.38015 91.473 4.38015C93.9226 4.38015 95.6954 6.08872 95.6954 8.44965C95.6954 10.8416 93.9226 12.5191 91.473 12.5191Z" fill="#11192E"/>
<path d="M118.096 0.341797H116.581L112.713 7.39348L108.91 0.341797H107.266H104.817H102.689V16.5886H107.266V6.64793L110.876 13.3268H114.389L118.096 6.5858V16.5886H122.673V0.341797H120.481H118.096Z" fill="#11192E"/>
<path d="M156 0.341797H150.457H145.88H140.336V4.53553H145.88V16.5886H150.457V4.53553H156V0.341797Z" fill="#11192E"/>
<path d="M17.8562 0.341797L11.3777 3.97638L4.89917 0.341797L0 8.48077L6.54298 12.1464V16.5576H16.3091V12.0843L22.7231 8.48077L17.8562 0.341797ZM11.3777 5.65388L13.086 8.51184H9.66942L11.3777 5.65388ZM6.54298 10.9038L1.51488 8.10799L5.31818 1.83291L10.6041 4.81513L8.34794 8.5429L7.70331 9.63017L7.67108 9.6923L6.83306 11.0902L6.54298 10.9038ZM15.2132 15.5014H7.67108V11.8047L8.99256 9.5991H13.7306L15.181 12.0222V15.5014H15.2132ZM15.9223 11.0591L15.2132 9.87869L15.0521 9.5991L14.4074 8.51184L12.1512 4.78406L17.4372 1.80184L21.2083 8.07693L16.3091 10.8106L15.9223 11.0591Z" fill="#11192E"/>
</svg>
