<svg width="95" height="69" viewBox="0 0 95 69" fill="none" xmlns="http://www.w3.org/2000/svg">
<path d="M31.6406 32.8C34.0406 34.4 35.9073 36.5333 37.2406 39.2C38.7073 41.7333 39.4406 44.6 39.4406 47.8C39.4406 53.9333 37.4406 58.9333 33.4406 62.8C29.4406 66.6667 24.5073 68.6 18.6406 68.6C13.3073 68.6 8.90729 66.9333 5.44063 63.6C2.10729 60.2667 0.440626 55.9333 0.440626 50.6C0.440626 47.8 0.907292 45.1333 1.84063 42.6C2.90729 40.0667 4.70729 36.8 7.24063 32.8L27.2406 0.599991H46.8406L31.6406 32.8ZM78.8406 32.8C81.2406 34.4 83.1073 36.5333 84.4406 39.2C85.9073 41.7333 86.6406 44.6 86.6406 47.8C86.6406 53.9333 84.6406 58.9333 80.6406 62.8C76.6406 66.6667 71.7073 68.6 65.8406 68.6C60.5073 68.6 56.1073 66.9333 52.6406 63.6C49.3073 60.2667 47.6406 55.9333 47.6406 50.6C47.6406 47.8 48.1073 45.1333 49.0406 42.6C50.1073 40.0667 51.9073 36.8 54.4406 32.8L74.4406 0.599991H94.0406L78.8406 32.8Z" fill="#CB454D"/>
</svg>
