<svg width="29" height="15" viewBox="0 0 29 15" fill="none" xmlns="http://www.w3.org/2000/svg">
<path fill-rule="evenodd" clip-rule="evenodd" d="M7.27944 2.20708L7.65846 2.27207C7.72163 2.27207 7.75322 2.30456 7.75322 2.40204L8.19542 2.95443C8.227 2.98692 8.29017 3.01941 8.32176 3.01941L8.47968 3.0844C8.57444 3.14938 8.70078 3.0844 8.76395 2.98692L9.20615 2.23958C9.23774 2.20708 9.26932 2.17459 9.33249 2.1421L10.059 1.84966C10.1853 1.81716 10.2485 1.68719 10.2169 1.55722L10.0905 0.97234C10.0905 0.907354 10.059 0.842368 9.99579 0.809874L8.92188 0.0950247C8.8903 0.0625315 8.79554 0.0300382 8.73237 0.0625314L6.99517 0.582422C6.86882 0.614916 6.80565 0.712395 6.80565 0.809874V0.939848C6.80565 0.972341 6.80565 1.00483 6.83724 1.03733L7.08992 1.55722C7.12151 1.6222 7.15309 1.68719 7.12151 1.75218L7.08992 1.88215C7.05834 2.04462 7.12151 2.17459 7.27944 2.20708ZM0.646268 3.08444H0.835781C1.05688 3.08444 1.21481 2.95447 1.30956 2.69452C1.34115 2.62954 1.37273 2.59704 1.43591 2.59704L2.28871 2.66203C2.30451 2.67828 2.3203 2.6864 2.33609 2.69452C2.35188 2.70265 2.36768 2.71077 2.38347 2.72702L2.66774 3.18192C2.69932 3.21441 2.69932 3.21441 2.69932 3.24691L2.66774 3.50685C2.66774 3.70181 2.50981 3.86428 2.3203 3.89677C2.25713 3.89677 2.22554 3.92926 2.22554 3.99425L2.0992 5.42395C2.0992 5.45644 2.0992 5.48894 2.13079 5.52143L2.73091 6.10631C2.7625 6.1388 2.79408 6.20379 2.7625 6.23628C2.66774 6.46373 2.79408 6.72368 3.01518 6.78866L3.77323 6.98362C3.8364 6.98362 3.86799 7.01612 3.86799 7.0811C3.86799 7.1136 3.89957 7.17858 3.93116 7.17858L4.2786 7.30856C4.31018 7.34105 4.34177 7.37354 4.34177 7.40603L4.37335 7.69847C4.37335 7.76346 4.46811 7.79595 4.53128 7.76346L4.68921 7.66598C4.7208 7.63349 4.78397 7.63349 4.81555 7.66598L4.91031 7.76346C4.94189 7.79595 4.94189 7.86094 4.94189 7.89343L4.84714 8.21836C4.84714 8.25086 4.81555 8.28335 4.78397 8.28335L4.62604 8.31584C4.56287 8.31584 4.53128 8.34834 4.53128 8.41332V8.93321C4.53128 8.96571 4.53128 8.9982 4.56287 9.03069L5.16299 9.55059C5.19458 9.58308 5.19458 9.64806 5.19458 9.68056L5.16299 9.74554C5.06824 10.038 5.19458 10.3629 5.44726 10.5254L5.66836 10.6554C5.69994 10.6878 5.73153 10.7203 5.73153 10.7528V12.6374C5.73153 12.8974 5.85787 13.1248 6.04739 13.2548C6.11056 13.2548 6.11056 13.3198 6.11056 13.3523L6.07897 13.4823C6.04739 13.7422 6.14214 13.9697 6.36324 14.0996L6.458 14.1646C6.67909 14.2946 6.96336 14.1971 7.05812 13.9372L7.08971 13.8722C7.08971 13.8397 7.08971 13.7747 7.02654 13.7422L6.74227 13.5797C6.71068 13.5797 6.6791 13.5148 6.6791 13.4823V12.8649C6.6791 12.5075 6.83702 12.1825 7.08971 11.9551L7.68983 11.4027C8.00568 11.1103 8.16361 10.6878 8.10044 10.2329L8.06886 10.1355C8.06886 10.103 8.06886 10.0705 8.10044 10.038L8.35313 9.74554C8.54264 9.55058 8.57422 9.25815 8.44788 9.03069L8.06886 8.38083C8.06886 8.34834 8.03727 8.31584 8.00568 8.31584L7.3108 8.21836C7.24763 8.21836 7.21605 8.18587 7.21605 8.12088V7.89343C7.21605 7.86094 7.18446 7.79595 7.12129 7.79595H6.77385C6.74227 7.79595 6.71068 7.79595 6.6791 7.76346L6.33165 7.37354C6.30007 7.34105 6.26848 7.34105 6.2369 7.34105H4.75238C4.7208 7.34105 4.65762 7.30855 4.65762 7.24357C4.62604 7.04861 4.4997 6.88614 4.31018 6.85365L4.15226 6.82116C4.08909 6.82116 4.0575 6.78866 4.0575 6.72368V6.46373C4.0575 6.43124 4.02591 6.36625 3.99433 6.36625L3.71006 6.26877C3.64689 6.23628 3.6153 6.17129 3.64689 6.10631L3.8364 5.6839C3.8364 5.6514 3.86799 5.61891 3.89957 5.61891L4.56287 5.42395C4.62604 5.39146 4.65762 5.42395 4.68921 5.45644L4.94189 5.81387C4.95769 5.81387 4.97348 5.82199 4.98927 5.83012C5.00506 5.83824 5.02086 5.84636 5.03665 5.84636H5.06824C5.09982 5.84636 5.16299 5.81387 5.16299 5.74888V5.42395C5.16299 5.39146 5.19458 5.35897 5.22616 5.32647L5.22616 5.32647L6.04739 4.77409C6.26848 4.64411 6.39483 4.35168 6.33165 4.09173C6.33165 4.02674 6.39483 3.96176 6.458 3.96176L7.43715 4.05924C7.68983 4.09173 7.87934 3.89677 7.87934 3.66932V3.34439C7.87934 3.21441 7.78459 3.11693 7.65824 3.11693C7.62666 3.11693 7.59507 3.08444 7.56349 3.05195L7.46873 2.88948C7.34239 2.66203 7.12129 2.56455 6.86861 2.59704L6.36324 2.69452C6.33166 2.69452 6.33165 2.69452 6.30007 2.72702C6.2369 2.85699 6.07897 2.88948 5.95263 2.8245C5.7947 2.75951 5.7947 2.56455 5.92104 2.46707L6.30007 2.23962C6.33165 2.23962 6.36324 2.20712 6.36324 2.17463L6.39483 2.04466C6.48958 1.75222 6.26848 1.45978 5.98421 1.42729L5.19458 1.3623C4.97348 1.3623 4.7208 1.45978 4.59445 1.65474L4.4997 1.78471C4.46811 1.81721 4.43653 1.81721 4.40494 1.81721L1.27798 1.3948C1.02529 1.3623 0.804196 1.58975 0.867367 1.8497L0.898952 2.10964C0.930538 2.17463 0.867367 2.23962 0.804196 2.23962H0.393585C0.361999 2.23962 0.298828 2.27211 0.298828 2.3371V2.8245C0.298828 2.85699 0.330414 2.88948 0.330414 2.88948L0.583097 3.05195C0.614683 3.08444 0.614683 3.08444 0.646268 3.08444ZM28.3782 1.91443C28.3467 1.84945 28.2835 1.84945 28.2519 1.84945L26.9253 2.0444C26.8937 2.0444 26.8306 2.0444 26.799 2.01191L26.4199 1.55701L26.4199 1.55699L26.4199 1.55698L26.4199 1.55697C26.4017 1.53822 26.394 1.5303 26.3846 1.52696C26.3778 1.52451 26.3701 1.52451 26.3568 1.52451L24.588 1.19958H24.5248L23.5773 1.39454C23.1982 1.49202 22.7876 1.36205 22.5033 1.1021C22.3138 0.907144 22.0611 0.809664 21.7769 0.809664H19.5975C19.5659 0.809664 19.5343 0.809664 19.5343 0.842157L19.0605 1.16709C19.0289 1.19958 18.9974 1.23208 18.9974 1.26457C18.9974 1.42703 18.9026 1.55701 18.7447 1.62199L18.4288 1.71947C18.3341 1.75197 18.2077 1.71947 18.1761 1.5895C18.1446 1.55701 18.113 1.52451 18.0498 1.52451H17.1022H16.7232H16.6916L15.7756 1.23208C15.5545 1.16709 15.3334 1.16709 15.1123 1.26457L14.8597 1.39454C14.6386 1.49202 14.4806 1.65449 14.4175 1.88194L14.3227 2.14189C14.2595 2.33684 14.2595 2.5318 14.3543 2.69427L14.449 2.85673C14.4806 2.88923 14.5122 2.92172 14.5754 2.92172H14.7017C14.8912 2.92172 15.0808 2.79175 15.1439 2.59679C15.1439 2.5643 15.1755 2.5318 15.2387 2.49931L15.4282 2.43432C15.523 2.40183 15.5861 2.46682 15.6177 2.5643L15.6493 2.92172C15.6809 3.14917 15.523 3.37663 15.3334 3.44161L14.8281 3.63657C14.7649 3.66906 14.6701 3.60408 14.6701 3.53909L14.607 3.27915C14.607 3.21416 14.5438 3.18167 14.5122 3.18167L14.2911 3.14917C14.1964 3.14917 14.1332 3.18167 14.1332 3.27915V3.60408C14.1332 3.66906 14.1016 3.70156 14.0384 3.73405L13.5647 3.86402C13.5331 3.86402 13.5015 3.89652 13.5015 3.92901L13.3436 4.25394C13.312 4.28644 13.312 4.35142 13.3436 4.38391L13.4067 4.51389C13.4383 4.61137 13.3751 4.70885 13.2804 4.70885C13.0593 4.70885 12.9329 4.90381 12.9645 5.09876L13.0277 5.35871C13.0277 5.4237 13.0909 5.45619 13.154 5.45619H13.5331C13.5962 5.45619 13.6278 5.4237 13.6594 5.35871L13.7226 5.16375C13.7226 5.09876 13.7858 5.06627 13.8489 5.06627L14.2595 5.09876C14.2911 5.09876 14.3227 5.09876 14.3227 5.06627L14.5438 4.9363C14.607 4.90381 14.6701 4.9038 14.7333 4.96879L14.9544 5.29372C14.986 5.32622 14.986 5.35871 14.986 5.4237V5.45619C14.9544 5.55367 15.0808 5.68364 15.1755 5.61865L15.2387 5.58616C15.3019 5.55367 15.3334 5.48868 15.3019 5.4237L15.1755 5.03378C15.1439 4.96879 15.1755 4.9038 15.2387 4.87131H15.2703C15.3334 4.83882 15.3966 4.87131 15.4282 4.90381L15.5861 5.09876C15.7441 5.32622 16.0599 5.4237 16.3126 5.32622H16.3442C16.4073 5.29372 16.4389 5.32622 16.4705 5.35871L16.8495 5.74863C16.8811 5.78112 16.8811 5.81361 16.8811 5.8786L16.818 6.23603C16.818 6.30101 16.7548 6.3335 16.7232 6.3335L15.6493 6.59345H15.5545L14.9544 6.30101C14.9228 6.30101 14.8912 6.26852 14.8912 6.23603C14.7649 5.97608 14.5122 5.78112 14.1964 5.78112L13.7226 5.74863C13.691 5.74863 13.6594 5.74863 13.6278 5.78112L12.8382 6.43098C12.4276 6.75592 12.1749 7.24331 12.1117 7.76321C12.1117 7.7957 12.0801 7.82819 12.0486 7.86068L11.9538 7.92567C11.9222 7.95816 11.8906 7.99066 11.8906 8.05564C11.8906 8.51055 12.0801 8.96545 12.4276 9.25789L12.7118 9.51784C12.7434 9.55033 12.775 9.55033 12.8066 9.55033H14.0384C14.07 9.55033 14.1016 9.55033 14.1016 9.58282L14.449 9.81028C14.4806 9.84277 14.5122 9.87526 14.5122 9.90775L14.5438 10.5251C14.5438 10.5901 14.5754 10.6226 14.607 10.6551L15.0176 10.8501C15.0808 10.8826 15.1123 10.915 15.0808 10.98L14.9544 12.1173C14.9228 12.3772 14.986 12.6047 15.1123 12.8321L15.2703 13.0596C15.2703 13.0758 15.2782 13.084 15.2861 13.0921C15.294 13.1002 15.3019 13.1083 15.3019 13.1246L15.3334 13.4495C15.365 13.8069 15.6177 14.0994 15.9652 14.1644C16.2178 14.1969 16.4705 14.1319 16.66 13.9369L16.8495 13.7744C17.1654 13.4495 17.3233 13.0271 17.3233 12.5722V12.2148C17.3233 12.1823 17.3549 12.1173 17.3865 12.1173L17.6708 11.8898C17.9235 11.6949 18.0498 11.4024 18.0498 11.0775V10.2652C18.0498 10.2327 18.0498 10.2002 18.0814 10.1677L18.6815 9.48534C18.7131 9.45285 18.7131 9.42036 18.7131 9.35537C18.6499 9.06293 18.4288 8.83548 18.1446 8.738L18.0814 8.70551C17.8603 8.64052 17.7024 8.44556 17.7024 8.21811C17.7024 8.08814 17.6392 7.95816 17.5444 7.86068L17.3233 7.63323C17.2917 7.60074 17.2917 7.56825 17.2917 7.53575L17.3233 7.11334C17.3233 7.06572 17.3572 7.01811 17.4002 6.99606C17.4259 7.00849 17.4497 7.02842 17.4497 7.04836L17.9866 7.69822C18.0182 7.73071 18.0182 7.76321 18.0182 7.7957V8.12063C18.0182 8.18562 18.0498 8.2506 18.113 8.2506L18.3025 8.31559H18.3972L18.9974 7.95816C19.2185 7.82819 19.2816 7.53575 19.1237 7.34079L18.7131 6.72342C18.6499 6.62594 18.7131 6.52846 18.8078 6.52846L19.1553 6.49597C19.2185 6.49597 19.25 6.52846 19.2816 6.59345L19.408 6.91838C19.408 6.93463 19.4159 6.94275 19.4238 6.95088C19.4317 6.959 19.4396 6.96712 19.4396 6.98337L20.1344 7.50326H20.166L20.6082 7.69822C20.6714 7.73071 20.703 7.76321 20.703 7.82819L20.6398 8.02315C20.6082 8.31559 20.703 8.57553 20.8925 8.77049L21.3031 9.16041C21.461 9.32288 21.7453 9.25789 21.84 9.03044L22.2822 7.7957C22.3138 7.73071 22.377 7.69822 22.4402 7.69822L22.8508 7.76321C22.8824 7.76321 22.9455 7.7957 22.9455 7.86068L23.293 8.86797C23.293 8.88422 23.3009 8.89234 23.3088 8.90047C23.3167 8.90859 23.3246 8.91671 23.3246 8.93296L23.4509 9.06293C23.5457 9.16041 23.672 9.09543 23.672 8.96545L23.6404 8.738C23.6404 8.64052 23.7036 8.57553 23.7668 8.60803C23.7826 8.60803 23.7984 8.61615 23.8141 8.62428C23.8299 8.6324 23.8457 8.64052 23.8615 8.64052C23.9879 8.77049 24.1458 8.80299 24.3037 8.70551L24.588 8.51055C24.6196 8.47806 24.6512 8.44556 24.6512 8.38058L24.6196 7.14583C24.6196 7.08085 24.6512 7.01586 24.7143 7.01586L25.0618 6.91838C25.0934 6.91838 25.1565 6.88589 25.1565 6.8209L25.3145 6.23603C25.3145 6.20353 25.3145 6.13855 25.2829 6.10605L25.0618 5.84611C24.9038 5.65115 24.8723 5.3912 24.9986 5.16375L25.0618 5.00129C25.0934 4.96879 25.1249 4.9363 25.1565 4.9363C25.2829 4.9363 25.4092 4.83882 25.4724 4.70885L26.262 2.98671C26.2936 2.92172 26.3884 2.88923 26.4515 2.92172L26.641 3.0192C26.6726 3.05169 26.7042 3.08419 26.7042 3.11668V3.57158C26.7042 3.63657 26.7358 3.66906 26.7674 3.70156C26.9253 3.79904 27.1148 3.70156 27.2096 3.53909L27.4939 2.92172C27.4939 2.90164 27.5059 2.89397 27.5226 2.88337C27.5329 2.87682 27.545 2.86915 27.557 2.85673L28.1887 2.46682C28.4098 2.40183 28.5046 2.14188 28.3782 1.91443ZM18.3663 11.4349C18.3979 11.37 18.4926 11.3375 18.5558 11.3375C18.5874 11.3375 18.6506 11.37 18.7137 11.4025L18.7453 11.4349C18.8085 11.4674 18.8717 11.5649 18.8401 11.6624L18.6506 12.6372C18.619 12.7022 18.5874 12.7672 18.5242 12.7997C18.4295 12.8322 18.3031 12.8322 18.24 12.7347L18.1452 12.6372C18.1367 12.6198 18.1283 12.6047 18.1204 12.5907C18.099 12.5525 18.082 12.5223 18.082 12.4747V11.9223C18.082 11.8898 18.082 11.8249 18.1136 11.7924L18.3663 11.4349ZM13.1857 3.57142L13.4068 3.50643C13.4699 3.47394 13.5331 3.40895 13.5331 3.34397V2.88906C13.5331 2.79158 13.4699 2.7266 13.3752 2.7266C13.312 2.7266 13.2173 2.79158 13.2173 2.85657L13.1857 2.98654C13.1857 3.05153 13.1225 3.11651 13.0593 3.11651H12.933C12.8382 3.11651 12.8066 3.21399 12.8066 3.27898V3.34397C12.8066 3.44144 12.8698 3.50643 12.933 3.50643L13.1225 3.53893C13.1225 3.57142 13.1541 3.57142 13.1857 3.57142ZM25.1255 10.8501L25.2203 10.9801C25.2203 11.0126 25.2518 11.0451 25.315 10.9801L25.4098 11.0126C25.5045 11.0126 25.5993 10.9476 25.5993 10.8501C25.5993 10.7526 25.7256 10.6876 25.8204 10.7201C25.852 10.7201 25.8836 10.7526 25.8836 10.7851L26.2942 11.7599V11.8249V12.4423C26.2942 12.4748 26.2942 12.5072 26.2626 12.5397L25.8836 13.0596C25.852 13.1246 25.7888 13.1246 25.7256 13.1246L24.9992 12.9622C24.9834 12.9622 24.9755 12.954 24.9676 12.9459C24.9597 12.9378 24.9518 12.9297 24.936 12.9297L24.6833 12.7022C24.6517 12.6697 24.6201 12.6697 24.5886 12.6697H24.1148H23.6726C23.6094 12.6697 23.5462 12.6047 23.5462 12.5397L23.5146 12.0523C23.5146 11.7924 23.641 11.5649 23.8621 11.435L24.0832 11.3375C24.1148 11.3375 24.1464 11.305 24.1464 11.305L24.4306 10.9476C24.4622 10.9151 24.4938 10.8826 24.5254 10.8826L24.9992 10.7851C25.0308 10.7851 25.0939 10.8176 25.1255 10.8501ZM26.0719 4.8391L26.1667 5.03406C26.1983 5.09904 26.1983 5.16403 26.1667 5.19652L25.8508 6.04135C25.8193 6.10633 25.8193 6.17132 25.8508 6.23631L25.9456 6.39877C25.9772 6.49625 26.0719 6.52874 26.1667 6.52874C26.2614 6.52874 26.3246 6.49625 26.3878 6.39877L26.7668 5.71641C26.7984 5.68392 26.7984 5.61894 26.7984 5.55395L26.6405 4.77411C26.6405 4.70913 26.5773 4.61165 26.5141 4.57915L26.3878 4.51417C26.3246 4.48167 26.2299 4.48167 26.1351 4.51417C26.0719 4.61165 26.0403 4.74162 26.0719 4.8391ZM26.7031 12.7674L26.7663 12.6699C26.861 12.5724 26.9874 12.5724 27.0505 12.7024L27.0821 12.7349C27.1453 12.8324 27.1453 12.9623 27.0505 13.0273L26.7663 13.2548C26.7347 13.2873 26.7031 13.3198 26.7031 13.3523L26.5136 13.9696C26.482 14.0346 26.4188 14.0996 26.3241 14.0996H26.0714C25.9766 14.0996 25.9135 14.0346 25.8819 13.9696L25.8503 13.9047C25.8187 13.8072 25.8503 13.7097 25.9135 13.6447L26.4188 13.2223C26.4504 13.2223 26.482 13.1898 26.482 13.1573L26.6715 12.7999C26.7031 12.7999 26.7031 12.7674 26.7031 12.7674Z" fill="white"/>
</svg>
