<svg width="19" height="21" viewBox="0 0 19 21" fill="none" xmlns="http://www.w3.org/2000/svg">
<path d="M9.27961 13.7514C12.8459 13.7514 15.7369 10.8388 15.7369 7.24592C15.7369 3.65306 12.8459 0.740479 9.27961 0.740479C5.71332 0.740479 2.82227 3.65306 2.82227 7.24592C2.82227 10.8388 5.71332 13.7514 9.27961 13.7514Z" fill="white"/>
<path d="M0.436418 17.9653C2.32254 21.9946 16.2374 21.9946 18.1235 17.9653C18.749 16.6284 16.4051 14.1126 14.623 12.968C13.4793 14.0527 12.0124 14.7938 10.3846 15.0274L9.25006 18.9393L8.11311 15.0196C6.51002 14.7765 5.06635 14.0391 3.93667 12.9683C2.15477 14.1126 -0.189146 16.6289 0.436418 17.9653Z" fill="white"/>
</svg>
