<svg width="46" height="47" fill="none" xmlns="http://www.w3.org/2000/svg"><path d="M44.327 44.062h-23.5a.734.734 0 01-.734-.734V8.078a.734.734 0 01.734-.734h23.5a.734.734 0 01.734.734v35.25a.734.734 0 01-.734.734zm-22.765-1.468h22.03V8.812h-22.03v33.782z" fill="#11192E"/><path d="M44.327 32.313h-23.5a.734.734 0 010-1.47h23.5a.734.734 0 110 1.47z" fill="#11192E"/><path d="M32.576 44.062a.734.734 0 01-.734-.734v-23.5a.735.735 0 011.468 0v23.5a.734.734 0 01-.734.734zm11.75 0a.734.734 0 01-.734-.734v-23.5a.735.735 0 011.468 0v23.5a.734.734 0 01-.734.734z" fill="#11192E"/><path d="M44.327 20.563h-23.5a.734.734 0 010-1.47h23.5a.734.734 0 110 1.47zm-14.843 5.974H23.61a.734.734 0 010-1.47h5.875a.734.734 0 110 1.47z" fill="#11192E"/><path d="M26.547 29.474a.734.734 0 01-.735-.734v-5.875a.734.734 0 011.47 0v5.875a.734.734 0 01-.735.734zm14.842-2.937h-5.875a.734.734 0 010-1.47h5.875a.734.734 0 110 1.47zM28.626 40.178a.734.734 0 01-.518-.217l-4.157-4.153a.735.735 0 011.04-1.04l4.149 4.154a.735.735 0 01-.518 1.252l.004.004z" fill="#11192E"/><path d="M24.47 40.178a.735.735 0 01-.518-1.256l4.152-4.153a.735.735 0 011.036 1.039l-4.15 4.153a.733.733 0 01-.52.217zM41.602 38.1h-5.875a.734.734 0 010-1.47h5.875a.734.734 0 110 1.47zm-2.938-4.143a.826.826 0 100 1.652.826.826 0 000-1.652zm0 5.163a.826.826 0 100 1.652.826.826 0 000-1.652z" fill="#11192E"/><path d="M32.577 47H.734A.734.734 0 010 46.265V10.56a.734.734 0 111.469 0v34.97h31.108a.735.735 0 010 1.47zm0-40.618a.734.734 0 01-.734-.735V1.47H10.546a.734.734 0 110-1.469h22.031a.735.735 0 01.734.734v4.913a.734.734 0 01-.734.735z" fill="#11192E"/><path d="M10.56 11.295H.734a.735.735 0 01-.518-1.252l9.83-9.826a.734.734 0 011.248.518v9.825a.734.734 0 01-.734.735zM2.508 9.826h7.318V2.508L2.508 9.826zm15.249 7.799H6.103a.734.734 0 010-1.469h11.654a.734.734 0 010 1.469zm0 4.957H6.103a.734.734 0 110-1.469h11.654a.734.734 0 010 1.469zm-4.865 4.958h-6.79a.734.734 0 010-1.47h6.79a.734.734 0 010 1.47z" fill="#11192E"/></svg>