<svg width="48" height="46" fill="none" xmlns="http://www.w3.org/2000/svg"><path d="M45.12.329H2.88c-.764 0-1.496.325-2.036.903A3.195 3.195 0 000 3.408v41.064c0 .175.042.347.122.5a1 1 0 00.333.373.908.908 0 00.934.045l7.251-3.877 7.25 3.877a.91.91 0 00.86 0L24 41.513l7.25 3.877a.91.91 0 00.86 0l7.25-3.877 7.25 3.877a.908.908 0 00.934-.045 1 1 0 00.334-.373 1.08 1.08 0 00.122-.5V3.408c0-.816-.304-1.599-.844-2.176A2.792 2.792 0 0045.12.329zm.96 42.482l-6.29-3.364a.91.91 0 00-.86 0l-7.25 3.877-7.25-3.877a.91.91 0 00-.86 0l-7.25 3.877-7.25-3.877a.91.91 0 00-.86 0l-6.29 3.364V3.408c0-.272.101-.533.281-.725a.93.93 0 01.679-.301h42.24a.93.93 0 01.678.3c.18.193.282.454.282.726v39.403zm-5.76-25.03c0 .272-.101.533-.281.726a.93.93 0 01-.679.3H27.84a.93.93 0 01-.679-.3 1.063 1.063 0 01-.281-.726c0-.273.101-.534.281-.726a.93.93 0 01.679-.301h11.52a.93.93 0 01.679.3c.18.193.281.454.281.727zm0 8.212c0 .273-.101.534-.281.726a.93.93 0 01-.679.3H27.84a.93.93 0 01-.679-.3 1.063 1.063 0 01-.281-.726c0-.272.101-.533.281-.726a.93.93 0 01.679-.3h11.52a.93.93 0 01.679.3c.18.193.281.454.281.726zM20.16 12.648H8.64a.93.93 0 00-.679.3c-.18.193-.281.454-.281.726V30.1c0 .272.101.533.281.726.18.192.424.3.679.3h11.52a.93.93 0 00.679-.3c.18-.193.281-.454.281-.726V13.674c0-.272-.101-.533-.281-.726a.93.93 0 00-.679-.3zm-.96 16.425H9.6V14.701h9.6v14.372z" fill="#11192E"/></svg>