<svg width="56" height="56" fill="none" xmlns="http://www.w3.org/2000/svg"><path d="M55.915 11.115l-5.77-9.757C49.636.509 48.703 0 47.685 0H19.77c-1.018 0-1.952.51-2.46 1.358l-5.686 9.757c-.085.085-.085.34-.085.424v10.522H.85c-.51 0-.849.339-.849.848v32.243c0 .509.34.848.848.848h28.51c.509 0 .848-.34.848-.849V40.813h22.23C54.388 40.812 56 39.2 56 37.25V11.54c0-.085-.085-.339-.085-.424zm-28.594 1.273h12.897v6.448H27.321v-6.448zM48.703 2.29l5.006 8.485H41.661l-2.546-9.079h8.655c.34 0 .763.255.933.594zm-11.37-.594l2.63 8.994H27.577l2.63-8.994h7.127zm-18.497.594c.17-.34.51-.594.934-.594h8.654l-2.63 8.994H13.83l5.006-8.4zM1.697 54.303V23.758h17.224v7.636c0 .509.34.848.849.848h8.74v22.146H1.696v-.085zm25.37-23.842h-6.534v-5.77l6.534 5.77zm27.236 6.788a1.883 1.883 0 01-1.867 1.866h-22.23V31.31c0-.17-.085-.509-.255-.679l-9.587-8.485c-.17-.17-.425-.17-.594-.17h-6.534v-9.587h12.388v7.297c0 .509.34.848.849.848h14.594c.509 0 .848-.34.848-.848v-7.297h12.388v24.86z" fill="#11192E"/><path d="M36.824 24.182c-.085-.085-.17-.17-.255-.17-.084-.085-.254-.085-.339-.085-.085 0-.255 0-.34.085-.084.085-.17.085-.254.17l-3.903 3.988a.82.82 0 000 1.188.82.82 0 001.188 0l2.46-2.546v9.079c0 .509.34.848.849.848.51 0 .849-.339.849-.848v-8.994l2.46 2.545a.82.82 0 001.188 0 .82.82 0 000-1.188l-3.903-4.072zm6.873 5.176a.82.82 0 001.188 0l2.461-2.546v9.079c0 .51.34.849.849.849.508 0 .848-.34.848-.849v-8.994l2.46 2.546a.82.82 0 001.188 0 .82.82 0 000-1.188l-3.903-3.988a.77.77 0 00-.593-.255.77.77 0 00-.595.255l-3.903 3.988c-.339.254-.254.763 0 1.103zM26.473 41.236H14.849c-.51 0-.849.34-.849.849v9.588c0 .509.34.848.848.848h11.625c.509 0 .848-.34.848-.848v-9.588a.85.85 0 00-.848-.849zm-.849 9.503h-9.927v-7.89h9.927v7.89z" fill="#11192E"/><path d="M18.412 49.806c.17.17.34.34.594.34.255 0 .51-.085.679-.255l4.836-4.582a.82.82 0 000-1.188.82.82 0 00-1.188 0l-4.072 3.903-1.273-1.951c-.255-.425-.764-.51-1.188-.255-.424.255-.509.764-.255 1.188l1.867 2.8zM3.903 29.358h12.218c.51 0 .849-.34.849-.849 0-.509-.34-.848-.849-.848H3.903c-.509 0-.848.339-.848.848 0 .51.34.849.848.849zm0 5.345H25.88c.509 0 .848-.34.848-.849 0-.509-.339-.848-.848-.848H3.903c-.509 0-.848.34-.848.848 0 .51.34.849.848.849zm0 5.261H25.88c.509 0 .848-.34.848-.849 0-.509-.339-.848-.848-.848H3.903c-.509 0-.848.34-.848.848 0 .425.34.849.848.849zm7.976 3.818H3.903c-.509 0-.848.34-.848.849 0 .509.34.848.848.848h7.976c.509 0 .848-.34.848-.849 0-.509-.339-.848-.848-.848zm0 5.515H3.903c-.509 0-.848.34-.848.849 0 .509.34.848.848.848h7.976c.509 0 .848-.34.848-.848 0-.51-.339-.849-.848-.849z" fill="#11192E"/></svg>