<svg width="58" height="39" fill="none" xmlns="http://www.w3.org/2000/svg"><path d="M57.072 13.564L51.31 2.526a2.825 2.825 0 00-3.751-1.214L41.903 4.14H37.64L29.72.557a2.817 2.817 0 00-1.946-.138l-11.76 3.428-5.573-2.786A2.826 2.826 0 006.69 2.275L.927 13.313a2.812 2.812 0 001.235 3.818l5.71 2.854 12.736 9.96c.31.243.668.418 1.05.513l13.584 3.396a2.829 2.829 0 002.67-.74l8.626-8.624a.912.912 0 00.05-.054l3.626-4.243 5.623-2.811a2.812 2.812 0 001.235-3.818zM45.725 22.56l-9.612-6.99a.937.937 0 00-1.113.008l-3 2.25a6.597 6.597 0 01-7.875 0l-1.27-.953a.936.936 0 01-.101-1.413l9.172-9.172a.944.944 0 01.663-.275h8.968L48.5 19.312l-2.775 3.247zM2.528 14.903a.93.93 0 01.061-.722L8.353 3.143a.942.942 0 011.25-.405l4.999 2.5-6.632 12.7L3 15.455a.93.93 0 01-.472-.55zm34.06 16.885a.94.94 0 01-.891.247l-13.584-3.396a.932.932 0 01-.35-.171L9.567 18.93l6.93-13.271L28.3 2.219a.938.938 0 01.649.046l4.142 1.874h-.502a2.794 2.794 0 00-1.989.824l-9.172 9.172a2.812 2.812 0 00.301 4.239l1.27.953a8.482 8.482 0 0010.126 0l2.446-1.835 8.865 6.448-7.849 7.848zM55.47 15.155a.931.931 0 01-.472.55l-4.97 2.484-6.632-12.7 5-2.5a.941.941 0 011.25.405l5.763 11.038a.928.928 0 01.061.723zM26.16 38.117a.938.938 0 01-1.136.682l-7.064-1.766a2.828 2.828 0 01-1.164-.606l-5.285-4.594a.937.937 0 111.23-1.415l5.286 4.594a.947.947 0 00.388.202l7.063 1.766a.937.937 0 01.682 1.137z" fill="#11192E"/></svg>