<svg width="52" height="47" fill="none" xmlns="http://www.w3.org/2000/svg"><path d="M13.18 45.329H.813c-.489 0-.814-.325-.814-.813V1.724C0 1.236.325.91.814.91h12.365c.488 0 .814.326.814.814v42.791c0 .489-.326.814-.814.814zM1.626 43.702h10.739V2.537H1.627v41.165z" fill="#11192E"/><path d="M9.763 19.296H4.23c-.489 0-.814-.325-.814-.813V5.629c0-.488.325-.814.814-.814h5.532c.488 0 .813.326.813.814v12.854c0 .488-.325.813-.813.813zM5.044 17.67H8.95V6.442H5.044V17.67zm1.953 23.754c-1.953 0-3.58-1.627-3.58-3.58 0-1.952 1.627-3.579 3.58-3.579 1.952 0 3.579 1.627 3.579 3.58 0 1.952-1.627 3.58-3.58 3.58zm0-5.532c-1.058 0-1.953.895-1.953 1.953 0 1.057.895 1.952 1.953 1.952 1.057 0 1.952-.895 1.952-1.952 0-1.058-.895-1.953-1.952-1.953zm17.817-16.596h-5.532c-.488 0-.813-.325-.813-.813V5.629c0-.488.325-.814.813-.814h5.532c.488 0 .814.326.814.814v12.854a.815.815 0 01-.814.813zm-4.718-1.627H24V6.442h-3.905V17.67zm1.951 23.755c-1.952 0-3.58-1.627-3.58-3.58 0-1.952 1.628-3.579 3.58-3.579 1.953 0 3.58 1.627 3.58 3.58 0 1.952-1.627 3.58-3.58 3.58zm0-5.532c-1.057 0-1.952.895-1.952 1.952 0 1.058.895 1.953 1.952 1.953 1.058 0 1.953-.813 1.953-1.953 0-1.138-.895-1.952-1.953-1.952z" fill="#11192E"/><path d="M28.23 45.329H15.864c-.488 0-.813-.325-.813-.813V1.724c0-.488.325-.814.813-.814H28.23c.488 0 .814.326.814.814v42.791c0 .489-.326.814-.814.814zm-11.552-1.627h10.738V2.537H16.678v41.165zm19.199-23.511c-.163 0-.245 0-.407-.081-.163-.082-.326-.326-.407-.488L31.727 7.175c-.08-.407.163-.895.57-.977l5.37-1.464c.243-.081.406 0 .65.081.163.082.325.326.407.488l3.335 12.447c.082.407-.162.895-.57.977l-5.368 1.464h-.245zM33.517 7.5l2.929 10.901 3.742-.976L37.26 6.524l-3.743.976zm10.006 33.436c-.65 0-1.22-.163-1.79-.488-.813-.488-1.382-1.22-1.708-2.197-.488-1.87.651-3.905 2.522-4.393.895-.244 1.871-.081 2.685.326.813.488 1.383 1.22 1.708 2.196.244.895.082 1.871-.325 2.685-.488.813-1.22 1.383-2.197 1.708-.244.163-.57.163-.895.163zm0-5.532c-.162 0-.325 0-.488.081-1.057.244-1.627 1.383-1.383 2.36.163.488.488.895.895 1.22.488.244.976.325 1.464.163.489-.163.895-.489 1.22-.895.326-.407.326-.977.163-1.465-.162-.488-.488-.895-.894-1.22-.245-.163-.651-.244-.977-.244z" fill="#11192E"/><path d="M39.293 46.224c-.163 0-.244 0-.407-.081-.162-.082-.325-.326-.407-.489L27.416 4.246c-.082-.244 0-.407.08-.65.082-.164.326-.326.489-.408L39.944.016c.407-.082.895.162.976.57l11.064 41.326c.081.407-.163.895-.57.977l-11.958 3.254c0 .081-.082.081-.163.081zM29.205 4.653l10.657 39.781 10.414-2.766L39.618 1.805 29.205 4.653z" fill="#11192E"/></svg>