<svg width="57" height="46" fill="none" xmlns="http://www.w3.org/2000/svg"><path d="M19.167.001a1.278 1.278 0 00-1.278 1.278v16.61h-7.667a1.33 1.33 0 00-.12 0 1.278 1.278 0 00-1.158 1.279v16.61H1.278a1.26 1.26 0 00-.12 0A1.278 1.278 0 000 37.056v7.666A1.278 1.278 0 001.278 46h53.666a1.278 1.278 0 001.278-1.278v-7.666a1.277 1.277 0 00-1.278-1.278h-7.666v-16.61a1.278 1.278 0 00-1.158-1.278 1.33 1.33 0 00-.12 0h-7.667V1.28A1.278 1.278 0 0037.175 0a1.278 1.278 0 00-.12 0H19.168zm1.277 2.556h15.334V17.89H20.445V2.557zM11.5 20.445h15.333v15.333H11.5V20.445zm17.889 0h15.333v15.333H29.39V20.445zM2.556 38.334h13.416v5.11H2.556v-5.11zm15.972 0h19.166v5.11H18.528v-5.11zm21.722 0h13.417v5.11H40.25v-5.11z" fill="#11192E"/></svg>