<svg width="60" height="50" fill="none" xmlns="http://www.w3.org/2000/svg"><path d="M59.032 50H29.066a.965.965 0 01-.967-.961V29.98c0-1.232.788-2.344 2.01-2.836l8.126-3.273a.969.969 0 011.218.442l4.336 8.141c.143.267.379.265.521 0l4.336-8.141a.973.973 0 011.252-.427l8.213 3.675c1.148.513 1.89 1.605 1.89 2.784V49.04c0 .53-.434.961-.968.961zm-28.998-1.923h28.03V30.345c0-.43-.286-.825-.745-1.03l-7.386-3.305-3.912 7.344a2.231 2.231 0 01-3.943 0l-3.926-7.374-7.317 2.946c-.486.196-.8.61-.8 1.054v18.097zM44.05 22.525c-5.354 0-9.71-4.392-9.71-9.791V9.79C34.339 4.392 38.696 0 44.05 0c5.355 0 9.712 4.392 9.712 9.791v2.944c-.002 5.398-4.357 9.79-9.712 9.79zm0-20.602c-4.287 0-7.775 3.53-7.775 7.868v2.944c0 4.338 3.488 7.868 7.775 7.868 4.287 0 7.776-3.53 7.776-7.868V9.79c-.001-4.338-3.489-7.868-7.776-7.868zM21.746 15.55a.97.97 0 01-.695-.292l-3.839-3.932H1.956C.876 11.326 0 10.346 0 9.14V2.712C.046 1.488.905.557 1.956.557h23.727c1.078 0 1.956.98 1.956 2.186V9.14c0 1.204-.878 2.185-1.956 2.185h-3.417l.44 3.13a.96.96 0 01-.96 1.095zm-4.124-6.147c.262 0 .512.105.695.292l2.06 2.112-.183-1.31a.955.955 0 01.228-.763.97.97 0 01.73-.33h4.522c-.041-.005.027-.097.027-.263V2.743c0-.175-.075-.268-.095-.281L2.02 2.48a.475.475 0 00-.084.268V9.14c0 .175.077.267.095.28l15.592-.017z" fill="#11192E"/><path d="M22.041 7.027H12.027a.965.965 0 01-.967-.962c0-.53.433-.961.967-.961h10.016c.534 0 .967.43.967.961a.965.965 0 01-.969.962zm-13.654 0h-2.79a.965.965 0 01-.968-.962c0-.53.433-.961.968-.961h2.79c.534 0 .967.43.967.961 0 .53-.433.962-.967.962z" fill="#11192E"/></svg>