<svg width="55" height="55" fill="none" xmlns="http://www.w3.org/2000/svg"><path d="M45.242 0H14.637a5.755 5.755 0 00-5.766 5.766v38.589H.887c-.532 0-.887.355-.887.887A9.73 9.73 0 009.758 55h31.048c2.928 0 5.323-2.395 5.323-5.323V10.645h7.984c.532 0 .887-.355.887-.887A9.73 9.73 0 0045.242 0zM9.758 53.226c-4.08 0-7.452-3.105-7.895-7.097h33.621v3.548c0 .355 0 .621.089.976v.089l.266.798v.089c.088.266.266.532.355.71l.088.088c.178.267.355.444.533.621v.09H9.758v.088zm34.597-3.549a3.559 3.559 0 01-3.549 3.549 3.559 3.559 0 01-3.548-3.549v-4.435c0-.532-.355-.887-.887-.887H10.645V6.032c0-2.395 1.863-4.258 4.258-4.258h29.452v47.904zm1.774-40.806V1.863c3.726.443 6.653 3.37 7.008 7.008H46.13z" fill="#11192E"/><path d="M18.63 10.645h17.74c.532 0 .887-.355.887-.887V6.21c0-.533-.355-.887-.887-.887H18.63c-.532 0-.887.354-.887.887v3.548c0 .532.355.887.887.887zm.886-3.548h15.968V8.87H19.516V7.097zm20.936 8.338H14.55c-.532 0-.887.355-.887.888 0 .532.355.887.887.887h25.992c.532 0 .887-.355.887-.887 0-.533-.443-.888-.976-.888zm0 3.549H14.55c-.532 0-.887.355-.887.887s.355.887.887.887h25.992c.532 0 .887-.355.887-.887s-.443-.887-.976-.887zm0 3.548H14.55c-.532 0-.887.355-.887.887 0 .533.355.887.887.887h25.992c.532 0 .887-.354.887-.887 0-.532-.443-.887-.976-.887zm0 3.548H14.55c-.532 0-.887.355-.887.888 0 .532.355.887.887.887h25.992c.532 0 .887-.355.887-.887 0-.533-.443-.887-.976-.887zm0 3.549H14.55c-.532 0-.887.355-.887.887s.355.887.887.887h25.992c.532 0 .887-.355.887-.887s-.443-.887-.976-.887zm0 3.548H14.55c-.532 0-.887.355-.887.888 0 .532.355.887.887.887h25.992c.532 0 .887-.355.887-.887 0-.533-.443-.888-.976-.888zm0 3.549H14.55c-.532 0-.887.355-.887.887s.355.887.887.887h25.992c.532 0 .887-.355.887-.887s-.443-.887-.976-.887z" fill="#11192E"/></svg>